<?xml version="1.0" encoding="utf-8"?>
<!-- Generator: Adobe Illustrator 16.0.0, SVG Export Plug-In . SVG Version: 6.00 Build 0)  -->
<!DOCTYPE svg PUBLIC "-//W3C//DTD SVG 1.1//EN" "http://www.w3.org/Graphics/SVG/1.1/DTD/svg11.dtd">
<svg version="1.1" id="Layer_1" xmlns="http://www.w3.org/2000/svg" xmlns:xlink="http://www.w3.org/1999/xlink" x="0px" y="0px"
	 width="387px" height="75px" viewBox="0 0 387 75" enable-background="new 0 0 387 75" xml:space="preserve">
<g>
	<path fill="#FFFFFF" d="M37.161,21.536c-0.013-0.007-0.029-0.013-0.046-0.021c0.023,0.014,0.041,0.029,0.063,0.042
		C37.172,21.552,37.167,21.542,37.161,21.536z"/>
	<path fill="#FFFFFF" d="M39.636,10.22c-0.704-0.3-1.432-0.56-2.175-0.786c-1.933-0.582-3.98-0.897-6.102-0.897
		c-11.674,0-21.139,9.464-21.139,21.139c0,0.038,0.002,0.077,0.002,0.115s-0.002,0.074-0.002,0.115
		c0,5.265,1.914,10.079,5.081,13.796l6.802,9.298l9.408,12.854L45.789,46.34l1.932-2.639c3.168-3.717,5.083-8.531,5.083-13.796
		C52.804,21.021,47.364,13.414,39.636,10.22z M41.639,31.964c-0.057,0.319-0.129,0.64-0.217,0.958
		c-0.742,2.651-2.461,4.768-4.659,6.073l-3.617,2.479l-8.366,4.941c0,0,3.434-6.517,3.18-6.611
		c-4.996-1.828-7.816-7.222-6.355-12.431c1.529-5.473,7.207-8.666,12.682-7.137c1.028,0.291,1.976,0.725,2.829,1.278
		c0.017,0.008,0.033,0.014,0.046,0.021c0.005,0.006,0.011,0.016,0.017,0.021C40.552,23.78,42.38,27.86,41.639,31.964z"/>
	<path fill="#FFFFFF" d="M27.312,45.479"/>
</g>
<g opacity="0.8">
	<path fill="#FFFFFF" d="M75.5,60.584c0,1.858-0.972,2.976-2.575,3.643c-0.289,0.12-1.681,0.508-3.349,0.337
		c-1.77-0.182-3.07-0.791-3.07-0.791c-0.557-0.296-0.771-0.982-0.479-1.535c0.292-0.551,0.954-0.702,1.54-0.465
		c1.671,0.679,3.131,0.815,4.168,0.521c0.913-0.259,1.499-0.852,1.546-1.695v-0.199c0-1.042-0.792-1.823-1.885-1.885l0.003-0.013
		l-1.88-0.235l0.001-0.005c-1.896-0.261-3.358-1.869-3.358-3.821c0-1.871,1.31-3.236,2.555-3.701
		c0.496-0.185,1.245-0.301,2.282-0.301c1.649,0,2.984,0.636,2.984,0.636c0.526,0.256,0.749,0.883,0.497,1.405
		c-0.25,0.523-0.858,0.684-1.408,0.485c-1.573-0.567-2.808-0.43-2.808-0.43c-1.041,0-1.886,0.842-1.886,1.885
		c0,1.04,0.853,1.742,1.886,1.885c0.629,0.086,1.45,0.182,1.45,0.182c2.648,0.283,3.786,1.793,3.786,3.892V60.584z"/>
	<path fill="#FFFFFF" d="M70.9,55.675"/>
	<path fill="#FFFFFF" d="M66.044,63.49"/>
	<path fill="#FFFFFF" d="M69.59,62.503"/>
	<path fill="#FFFFFF" d="M71.445,62.75"/>
	<path fill="#FFFFFF" d="M66.044,60.558"/>
	<path fill="#FFFFFF" d="M92.469,62.373c-1.173,0.397-1.583,0.319-2.275,0.33c-0.963,0.015-1.706-0.937-1.697-1.849l0.009-0.555
		h4.686c0.475,0,0.861-0.388,0.863-0.867l0.018-0.892c-0.01-2.088-1.734-3.78-3.852-3.77c-2.118,0.011-3.824,1.714-3.815,3.804
		l-0.018,2.248c0.011,2.089,1.733,3.778,3.852,3.771c0,0,1.42,0.129,2.765-0.489c0.195-0.091,0.246-0.096,0.419-0.187
		c0.442-0.232,0.566-0.816,0.308-1.244c-0.257-0.429-0.813-0.566-1.242-0.309L92.469,62.373z M92.207,58.791h-3.701v-0.567
		c-0.003-1.009,0.82-1.83,1.842-1.835c1.022-0.005,1.854,0.81,1.859,1.82V58.791z"/>
	<path fill="#FFFFFF" d="M83.217,62.373c-1.173,0.397-1.583,0.319-2.273,0.33c-0.964,0.015-1.706-0.937-1.696-1.849l0.008-0.555
		h4.684c0.476,0,0.861-0.388,0.864-0.867l0.018-0.892c-0.011-2.088-1.734-3.78-3.851-3.77c-2.119,0.011-3.826,1.714-3.816,3.804
		l-0.017,2.248c0.009,2.089,1.732,3.778,3.851,3.771c0,0,1.422,0.129,2.766-0.489c0.195-0.091,0.244-0.096,0.42-0.187
		c0.443-0.232,0.565-0.816,0.311-1.244c-0.261-0.429-0.818-0.566-1.246-0.309L83.217,62.373z M82.956,58.791h-3.7v-0.567
		c-0.004-1.009,0.82-1.83,1.841-1.835c1.022-0.005,1.854,0.81,1.859,1.82V58.791z"/>
	<g>
		<ellipse fill="#FFFFFF" cx="62.405" cy="52.071" rx="1.179" ry="1.167"/>
		<path fill="#FFFFFF" d="M61.338,55.831c0-0.571,0.469-1.036,1.047-1.036s1.046,0.465,1.046,1.036v7.739
			c0,0.571-0.468,1.034-1.046,1.034s-1.047-0.463-1.047-1.034V55.831z"/>
	</g>
	<path fill="#FFFFFF" d="M98.15,58.536v-6.619c0-0.571-0.469-1.035-1.045-1.035c-0.577,0-1.047,0.464-1.047,1.035V63.57
		c0,0.571,0.47,1.034,1.047,1.034c0.577,0,1.045-0.463,1.045-1.034V61.1l1.148-1.128c0.346,0.626,2.411,4.039,2.411,4.039
		c0.266,0.478,0.874,0.648,1.357,0.38c0.484-0.268,0.659-0.874,0.393-1.354l-2.635-4.52l2.267-2.199
		c0.348-0.372,0.328-0.953-0.045-1.299c-0.372-0.349-0.952-0.327-1.3,0.044L98.15,58.536z"/>
</g>
<g>
	<g>
		<path fill="#FFFFFF" d="M78.269,16.126"/>
		<path fill="#FFFFFF" d="M71.422,12.695"/>
		<path fill="#FFFFFF" d="M61.646,15.249h-3.818v-1.935h9.85v1.935h-3.816v10.52h-2.216V15.249z"/>
		<path fill="#FFFFFF" d="M73.398,17.08c0.55,0,1.022,0.096,1.416,0.29c0.393,0.194,0.713,0.448,0.968,0.765
			c0.251,0.317,0.437,0.68,0.554,1.091c0.115,0.41,0.174,0.832,0.174,1.266v5.278h-2.109v-4.645c0-0.246-0.02-0.501-0.055-0.763
			c-0.034-0.265-0.105-0.505-0.219-0.722c-0.111-0.217-0.27-0.396-0.474-0.537c-0.208-0.141-0.479-0.211-0.819-0.211
			c-0.34,0-0.633,0.064-0.88,0.193c-0.246,0.129-0.45,0.303-0.615,0.519c-0.166,0.217-0.291,0.461-0.37,0.729
			c-0.084,0.271-0.123,0.546-0.123,0.828v4.609h-2.112V12.47h2.112v6.034h0.034c0.085-0.176,0.204-0.348,0.362-0.519
			c0.159-0.169,0.342-0.322,0.554-0.457c0.213-0.134,0.452-0.243,0.722-0.326S73.083,17.08,73.398,17.08z"/>
		<path fill="#FFFFFF" d="M87.031,21.654c0,0.092,0,0.186,0,0.28s-0.006,0.188-0.017,0.282h-6.423
			c0.025,0.305,0.106,0.583,0.237,0.834c0.137,0.253,0.315,0.471,0.538,0.652c0.223,0.182,0.473,0.325,0.757,0.431
			c0.283,0.106,0.575,0.159,0.88,0.159c0.527,0,0.973-0.097,1.337-0.291c0.36-0.193,0.661-0.46,0.895-0.801l1.41,1.126
			c-0.833,1.126-2.042,1.688-3.625,1.688c-0.659,0-1.261-0.103-1.812-0.307c-0.549-0.205-1.028-0.496-1.433-0.87
			c-0.405-0.375-0.722-0.836-0.95-1.382c-0.229-0.545-0.344-1.163-0.344-1.855c0-0.68,0.115-1.298,0.344-1.854
			c0.228-0.557,0.542-1.033,0.942-1.426c0.396-0.393,0.871-0.698,1.416-0.915c0.542-0.217,1.136-0.325,1.769-0.325
			c0.584,0,1.129,0.096,1.626,0.29c0.498,0.194,0.931,0.481,1.293,0.862c0.362,0.382,0.648,0.856,0.852,1.425
			C86.931,20.226,87.031,20.89,87.031,21.654z M84.918,20.703c0-0.27-0.037-0.529-0.113-0.774c-0.076-0.246-0.199-0.463-0.359-0.65
			c-0.164-0.187-0.374-0.337-0.624-0.449c-0.252-0.111-0.549-0.167-0.889-0.167c-0.635,0-1.172,0.191-1.61,0.572
			c-0.44,0.38-0.682,0.87-0.731,1.469H84.918z"/>
	</g>
	<path fill="#FFFFFF" d="M74.998,39.267c0,1.04-0.177,1.977-0.534,2.812c-0.357,0.839-0.845,1.549-1.463,2.135
		c-0.616,0.584-1.348,1.034-2.189,1.352c-0.849,0.316-1.766,0.475-2.756,0.475c-0.991,0-1.908-0.158-2.754-0.475
		c-0.844-0.317-1.579-0.768-2.206-1.352c-0.624-0.586-1.113-1.296-1.461-2.135c-0.347-0.836-0.524-1.772-0.524-2.812V28.351h3.072
		v10.793c0,0.504,0.062,1.003,0.194,1.497c0.128,0.497,0.344,0.941,0.644,1.327c0.301,0.392,0.7,0.709,1.196,0.953
		c0.498,0.244,1.108,0.365,1.839,0.365c0.73,0,1.343-0.121,1.841-0.365c0.492-0.244,0.892-0.562,1.194-0.953
		c0.302-0.386,0.512-0.83,0.644-1.327c0.13-0.494,0.197-0.993,0.197-1.497V28.351h3.067V39.267z"/>
	<path fill="#FFFFFF" d="M78.654,28.351h4.069l8.013,12.915h0.051V28.351h3.07v17.251H89.96l-8.187-13.33h-0.05v13.33h-3.069V28.351
		z"/>
	<path fill="#FFFFFF" d="M103.749,28.351h3.07v17.251h-3.07V28.351z"/>
	<path fill="#FFFFFF" d="M110.476,33.905h2.775v1.877h0.049c0.263-0.585,0.711-1.101,1.354-1.547c0.642-0.447,1.401-0.67,2.275-0.67
		c0.763,0,1.417,0.133,1.965,0.402c0.542,0.268,0.988,0.621,1.34,1.058c0.348,0.44,0.603,0.944,0.766,1.512
		c0.16,0.569,0.245,1.153,0.245,1.753v7.312h-2.927V39.12c0-0.34-0.022-0.699-0.071-1.073c-0.051-0.372-0.155-0.708-0.319-1.01
		c-0.161-0.301-0.385-0.548-0.667-0.742c-0.285-0.196-0.663-0.292-1.134-0.292s-0.878,0.093-1.218,0.279
		c-0.342,0.187-0.621,0.426-0.841,0.718c-0.219,0.293-0.385,0.631-0.5,1.011c-0.115,0.383-0.169,0.77-0.169,1.156v6.436h-2.923
		V33.905z"/>
	<path fill="#FFFFFF" d="M122.973,36.246v-2.341h2.046V30.52h2.876v3.385h2.922v2.341h-2.922v5.433c0,0.521,0.093,0.949,0.279,1.292
		c0.186,0.339,0.603,0.512,1.255,0.512c0.196,0,0.406-0.021,0.633-0.062s0.43-0.101,0.609-0.184l0.098,2.292
		c-0.259,0.097-0.57,0.172-0.926,0.229c-0.357,0.059-0.702,0.086-1.022,0.086c-0.782,0-1.416-0.109-1.903-0.329
		c-0.487-0.218-0.873-0.519-1.156-0.902c-0.285-0.38-0.479-0.819-0.587-1.314c-0.104-0.495-0.156-1.027-0.156-1.597v-5.456H122.973z
		"/>
	<path fill="#FFFFFF" d="M132.937,33.905h2.803v1.949h0.047c0.326-0.68,0.782-1.232,1.365-1.656
		c0.584-0.421,1.269-0.633,2.045-0.633c0.115,0,0.238,0.005,0.368,0.012c0.131,0.008,0.241,0.028,0.34,0.06v2.681
		c-0.194-0.049-0.361-0.082-0.5-0.098c-0.139-0.016-0.272-0.024-0.4-0.024c-0.667,0-1.202,0.122-1.611,0.365
		c-0.401,0.245-0.724,0.536-0.947,0.877c-0.229,0.341-0.384,0.69-0.463,1.047c-0.082,0.357-0.122,0.643-0.122,0.853v6.264h-2.926
		V33.905z"/>
	<path fill="#FFFFFF" d="M148.749,44.116h-0.07c-0.291,0.518-0.764,0.945-1.415,1.276c-0.647,0.334-1.389,0.5-2.214,0.5
		c-0.476,0-0.963-0.059-1.477-0.182c-0.511-0.121-0.979-0.324-1.41-0.608c-0.433-0.285-0.791-0.656-1.077-1.121
		c-0.282-0.464-0.421-1.035-0.421-1.719c0-0.878,0.246-1.575,0.739-2.093c0.498-0.521,1.134-0.92,1.915-1.195
		c0.777-0.276,1.646-0.46,2.595-0.548c0.951-0.09,1.879-0.136,2.79-0.136v-0.292c0-0.73-0.263-1.27-0.791-1.62
		c-0.532-0.35-1.156-0.525-1.888-0.525c-0.62,0-1.214,0.131-1.779,0.392c-0.568,0.259-1.042,0.574-1.415,0.949l-1.511-1.778
		c0.665-0.616,1.436-1.08,2.304-1.389c0.869-0.31,1.75-0.463,2.642-0.463c1.041,0,1.897,0.146,2.573,0.439
		c0.671,0.292,1.205,0.674,1.596,1.145c0.389,0.471,0.662,0.998,0.814,1.583c0.155,0.585,0.232,1.171,0.232,1.754v7.116h-2.732
		V44.116z M148.703,40.265h-0.658c-0.471,0-0.967,0.021-1.484,0.062c-0.523,0.039-1.001,0.13-1.438,0.267
		c-0.437,0.139-0.805,0.332-1.096,0.586c-0.292,0.252-0.439,0.597-0.439,1.034c0,0.277,0.062,0.509,0.185,0.693
		c0.12,0.188,0.28,0.34,0.474,0.452c0.195,0.113,0.412,0.196,0.657,0.245c0.245,0.048,0.489,0.071,0.73,0.071
		c1.006,0,1.772-0.267,2.291-0.804c0.521-0.536,0.78-1.267,0.78-2.192V40.265z"/>
	<path fill="#FFFFFF" d="M154.892,33.905h2.778v1.877h0.045c0.262-0.585,0.712-1.101,1.353-1.547c0.646-0.447,1.405-0.67,2.28-0.67
		c0.765,0,1.417,0.133,1.962,0.402c0.544,0.268,0.993,0.621,1.341,1.058c0.347,0.44,0.603,0.944,0.764,1.512
		c0.166,0.569,0.246,1.153,0.246,1.753v7.312h-2.922V39.12c0-0.34-0.025-0.699-0.071-1.073c-0.051-0.372-0.159-0.708-0.318-1.01
		c-0.163-0.301-0.387-0.548-0.67-0.742c-0.289-0.196-0.662-0.292-1.133-0.292c-0.471,0-0.878,0.093-1.222,0.279
		c-0.338,0.187-0.621,0.426-0.837,0.718c-0.22,0.293-0.389,0.631-0.501,1.011c-0.111,0.383-0.17,0.77-0.17,1.156v6.436h-2.922
		V33.905z"/>
	<path fill="#FFFFFF" d="M180.23,39.9c0,0.129,0,0.26,0,0.39s-0.007,0.26-0.023,0.39h-8.892c0.031,0.423,0.138,0.808,0.326,1.158
		c0.188,0.348,0.436,0.648,0.743,0.901c0.308,0.25,0.66,0.451,1.049,0.597c0.392,0.146,0.794,0.22,1.219,0.22
		c0.731,0,1.347-0.135,1.851-0.403c0.501-0.269,0.917-0.637,1.242-1.108l1.949,1.561c-1.152,1.558-2.827,2.336-5.018,2.336
		c-0.91,0-1.747-0.141-2.511-0.425s-1.426-0.688-1.985-1.205c-0.562-0.521-0.998-1.158-1.317-1.914
		c-0.315-0.755-0.473-1.611-0.473-2.569c0-0.942,0.158-1.8,0.473-2.57c0.319-0.771,0.751-1.431,1.305-1.975
		c0.548-0.544,1.205-0.966,1.961-1.267c0.754-0.3,1.571-0.45,2.449-0.45c0.812,0,1.563,0.133,2.252,0.402
		c0.691,0.268,1.289,0.666,1.792,1.193c0.501,0.529,0.896,1.187,1.18,1.974C180.088,37.923,180.23,38.844,180.23,39.9z
		 M177.306,38.584c0-0.374-0.051-0.731-0.159-1.072c-0.104-0.341-0.272-0.641-0.5-0.9c-0.227-0.259-0.516-0.467-0.864-0.623
		c-0.347-0.154-0.759-0.23-1.232-0.23c-0.874,0-1.621,0.264-2.225,0.792c-0.61,0.528-0.949,1.206-1.012,2.034H177.306z"/>
	<path fill="#FFFFFF" d="M181.376,36.246v-2.341h2.046V30.52h2.874v3.385h2.925v2.341h-2.925v5.433c0,0.521,0.095,0.949,0.279,1.292
		c0.186,0.339,0.605,0.512,1.256,0.512c0.195,0,0.404-0.021,0.634-0.062c0.227-0.04,0.431-0.101,0.611-0.184l0.097,2.292
		c-0.26,0.097-0.571,0.172-0.927,0.229c-0.357,0.059-0.7,0.086-1.025,0.086c-0.779,0-1.414-0.109-1.9-0.329
		c-0.485-0.218-0.871-0.519-1.159-0.902c-0.282-0.38-0.477-0.819-0.584-1.314c-0.104-0.495-0.156-1.027-0.156-1.597v-5.456H181.376z
		"/>
</g>
<line fill="none" stroke="#FFFFFF" stroke-width="0.806" stroke-miterlimit="10" x1="210.887" y1="8.65" x2="210.887" y2="67.301"/>
<g>
	<path fill="#FFFFFF" d="M220.711,31.13h1.479l5.719,8.204h0.027V31.13h1.172v9.878h-1.479l-5.721-8.204h-0.027v8.204h-1.17V31.13z"
		/>
	<path fill="#FFFFFF" d="M237.197,39.822c-0.389,0.502-0.816,0.854-1.283,1.053c-0.463,0.201-1.002,0.301-1.615,0.301
		c-0.514,0-0.975-0.091-1.383-0.272c-0.41-0.182-0.756-0.427-1.039-0.732c-0.285-0.308-0.502-0.67-0.654-1.089
		c-0.154-0.418-0.23-0.864-0.23-1.339c0-0.502,0.084-0.964,0.25-1.388c0.166-0.423,0.4-0.786,0.697-1.088s0.652-0.537,1.061-0.704
		c0.408-0.168,0.855-0.251,1.34-0.251c0.455,0,0.873,0.076,1.254,0.23c0.383,0.153,0.711,0.376,0.984,0.669
		c0.275,0.293,0.486,0.651,0.635,1.074c0.148,0.424,0.225,0.905,0.225,1.445v0.349h-5.273c0.018,0.278,0.084,0.547,0.201,0.803
		c0.115,0.255,0.268,0.479,0.453,0.668c0.186,0.191,0.404,0.343,0.656,0.454s0.525,0.168,0.824,0.168
		c0.473,0,0.873-0.084,1.199-0.252c0.324-0.166,0.617-0.413,0.879-0.738L237.197,39.822z M236.266,37.157
		c-0.02-0.558-0.201-1.004-0.545-1.34c-0.346-0.334-0.818-0.501-1.422-0.501c-0.607,0-1.094,0.167-1.467,0.501
		c-0.371,0.335-0.596,0.782-0.668,1.34H236.266z"/>
	<path fill="#FFFFFF" d="M246.127,41.008h-1.074l-1.855-5.023h-0.027l-1.646,5.023h-1.115l-2.121-6.529h1.199l1.492,5.022h0.027
		l1.691-5.022h1.143l1.717,5.022h0.025l1.48-5.022h1.174L246.127,41.008z"/>
	<path fill="#FFFFFF" d="M255.865,36.752l-3.682-5.623h1.492l2.777,4.466l2.859-4.466h1.41l-3.684,5.623v4.255h-1.174V36.752z"/>
	<path fill="#FFFFFF" d="M259.701,37.743c0-0.511,0.09-0.977,0.266-1.395c0.178-0.418,0.418-0.779,0.727-1.082
		c0.307-0.302,0.674-0.537,1.102-0.704c0.428-0.168,0.893-0.251,1.395-0.251s0.969,0.083,1.396,0.251
		c0.428,0.167,0.795,0.402,1.102,0.704s0.547,0.664,0.725,1.082c0.176,0.418,0.266,0.884,0.266,1.395
		c0,0.512-0.09,0.977-0.266,1.395c-0.178,0.418-0.418,0.779-0.725,1.083c-0.307,0.303-0.674,0.536-1.102,0.703
		c-0.428,0.169-0.895,0.252-1.396,0.252s-0.967-0.083-1.395-0.252c-0.428-0.167-0.795-0.4-1.102-0.703
		c-0.309-0.304-0.549-0.665-0.727-1.083C259.791,38.72,259.701,38.255,259.701,37.743z M260.875,37.743
		c0,0.344,0.053,0.662,0.16,0.956c0.105,0.292,0.264,0.548,0.467,0.767c0.205,0.219,0.449,0.391,0.732,0.518
		c0.283,0.125,0.602,0.188,0.955,0.188c0.355,0,0.672-0.062,0.957-0.188c0.283-0.127,0.529-0.299,0.732-0.518
		s0.361-0.475,0.465-0.767c0.107-0.294,0.162-0.612,0.162-0.956s-0.055-0.662-0.162-0.955c-0.104-0.293-0.262-0.55-0.465-0.768
		c-0.203-0.218-0.449-0.391-0.732-0.517c-0.285-0.126-0.602-0.188-0.957-0.188c-0.354,0-0.672,0.062-0.955,0.188
		c-0.283,0.125-0.527,0.298-0.732,0.517c-0.203,0.218-0.361,0.474-0.467,0.768C260.928,37.081,260.875,37.399,260.875,37.743z"/>
	<path fill="#FFFFFF" d="M268.365,36.028c0-0.298-0.008-0.577-0.029-0.837c-0.018-0.26-0.025-0.498-0.025-0.712h1.031
		c0,0.177,0.006,0.354,0.016,0.53c0.008,0.177,0.012,0.358,0.012,0.544h0.027c0.074-0.158,0.182-0.312,0.312-0.46
		c0.139-0.148,0.297-0.281,0.484-0.397c0.186-0.116,0.395-0.209,0.627-0.279c0.232-0.07,0.482-0.104,0.754-0.104
		c0.074,0,0.148,0.005,0.225,0.013c0.074,0.011,0.148,0.029,0.223,0.057l-0.07,1.102c-0.188-0.056-0.381-0.083-0.586-0.083
		c-0.67,0-1.156,0.216-1.459,0.648c-0.301,0.433-0.453,1.025-0.453,1.778v3.182h-1.088V36.028z"/>
	<path fill="#FFFFFF" d="M273.275,30.46h1.088v6.893l2.973-2.875h1.549l-3.154,2.972l3.475,3.557H277.6l-3.236-3.432v3.432h-1.088
		V30.46z"/>
</g>
</svg>
