<?xml version="1.0" encoding="utf-8"?>
<!-- Generator: Adobe Illustrator 16.0.0, SVG Export Plug-In . SVG Version: 6.00 Build 0)  -->
<!DOCTYPE svg PUBLIC "-//W3C//DTD SVG 1.1//EN" "http://www.w3.org/Graphics/SVG/1.1/DTD/svg11.dtd">
<svg version="1.1" id="Layer_1" xmlns="http://www.w3.org/2000/svg" xmlns:xlink="http://www.w3.org/1999/xlink" x="0px" y="0px"
	 width="386.75px" height="75px" viewBox="0 0 386.75 75" enable-background="new 0 0 386.75 75" xml:space="preserve">
<g>
	<path fill="#FFFFFF" d="M270.51,33.371h1.523l5.303,12.39h-1.961l-1.242-3.062h-5.898l-1.225,3.062h-1.959L270.51,33.371z
		 M273.52,41.229l-2.309-5.688h-0.035l-2.346,5.688H273.52z"/>
	<path fill="#FFFFFF" d="M279.066,33.371h4.322c0.875,0,1.643,0.099,2.303,0.297c0.658,0.199,1.23,0.464,1.715,0.797
		c0.484,0.332,0.887,0.715,1.207,1.146c0.32,0.433,0.574,0.875,0.762,1.33c0.186,0.455,0.32,0.91,0.402,1.365
		s0.123,0.875,0.123,1.26c0,0.794-0.146,1.561-0.438,2.302c-0.293,0.741-0.725,1.399-1.295,1.978
		c-0.572,0.577-1.281,1.041-2.127,1.391c-0.846,0.351-1.822,0.525-2.932,0.525h-4.043V33.371z M280.748,44.186h2.117
		c0.711,0,1.385-0.096,2.021-0.288c0.635-0.193,1.191-0.481,1.67-0.867c0.479-0.385,0.857-0.866,1.139-1.443
		c0.279-0.577,0.42-1.251,0.42-2.021c0-0.396-0.064-0.86-0.193-1.391c-0.129-0.531-0.371-1.035-0.727-1.514
		s-0.848-0.884-1.479-1.217c-0.629-0.332-1.447-0.499-2.449-0.499h-2.52V44.186z"/>
	<path fill="#FFFFFF" d="M292.438,33.371h4.322c0.875,0,1.643,0.099,2.301,0.297c0.66,0.199,1.23,0.464,1.715,0.797
		c0.484,0.332,0.887,0.715,1.209,1.146c0.32,0.433,0.574,0.875,0.76,1.33c0.188,0.455,0.322,0.91,0.402,1.365
		c0.082,0.455,0.123,0.875,0.123,1.26c0,0.794-0.146,1.561-0.438,2.302s-0.723,1.399-1.295,1.978
		c-0.572,0.577-1.281,1.041-2.127,1.391c-0.846,0.351-1.822,0.525-2.93,0.525h-4.043V33.371z M294.117,44.186h2.117
		c0.711,0,1.385-0.096,2.021-0.288c0.637-0.193,1.193-0.481,1.672-0.867c0.479-0.385,0.857-0.866,1.137-1.443
		c0.281-0.577,0.42-1.251,0.42-2.021c0-0.396-0.064-0.86-0.191-1.391c-0.129-0.531-0.371-1.035-0.727-1.514s-0.85-0.884-1.479-1.217
		c-0.631-0.332-1.447-0.499-2.451-0.499h-2.52V44.186z"/>
	<path fill="#FFFFFF" d="M306.088,33.371h1.68v12.39h-1.68V33.371z"/>
	<path fill="#FFFFFF" d="M311.723,43.171c0.303,0.455,0.691,0.79,1.164,1.006s0.959,0.324,1.461,0.324
		c0.279,0,0.566-0.044,0.857-0.132c0.291-0.087,0.557-0.219,0.797-0.394c0.238-0.175,0.434-0.391,0.586-0.647
		c0.15-0.257,0.227-0.554,0.227-0.893c0-0.479-0.15-0.843-0.455-1.094c-0.303-0.251-0.68-0.461-1.129-0.63s-0.939-0.332-1.469-0.49
		c-0.531-0.157-1.021-0.376-1.471-0.656c-0.449-0.279-0.826-0.656-1.129-1.129c-0.303-0.472-0.455-1.11-0.455-1.916
		c0-0.361,0.08-0.746,0.236-1.154c0.158-0.409,0.406-0.782,0.744-1.12c0.338-0.339,0.773-0.622,1.303-0.849
		c0.531-0.228,1.17-0.342,1.918-0.342c0.676,0,1.322,0.094,1.941,0.28s1.16,0.565,1.627,1.138l-1.363,1.242
		c-0.211-0.326-0.508-0.589-0.893-0.787c-0.387-0.198-0.824-0.298-1.312-0.298c-0.467,0-0.855,0.062-1.164,0.184
		c-0.311,0.122-0.559,0.28-0.744,0.473c-0.188,0.192-0.318,0.399-0.395,0.621s-0.113,0.426-0.113,0.612
		c0,0.525,0.152,0.928,0.455,1.208c0.303,0.279,0.68,0.507,1.129,0.683c0.449,0.175,0.939,0.332,1.471,0.472
		c0.529,0.141,1.02,0.336,1.469,0.587s0.826,0.589,1.129,1.015s0.455,1.013,0.455,1.759c0,0.595-0.113,1.132-0.342,1.61
		c-0.227,0.479-0.533,0.881-0.918,1.207c-0.385,0.327-0.84,0.578-1.365,0.753s-1.084,0.263-1.68,0.263
		c-0.793,0-1.547-0.141-2.258-0.421c-0.711-0.279-1.277-0.711-1.697-1.295L311.723,43.171z"/>
	<path fill="#FFFFFF" d="M330.641,33.371h1.521l5.303,12.39h-1.961l-1.242-3.062h-5.896l-1.225,3.062h-1.961L330.641,33.371z
		 M333.65,41.229l-2.311-5.688h-0.035l-2.346,5.688H333.65z"/>
	<path fill="#FFFFFF" d="M339.477,33.371h4.305c0.537,0,1.035,0.063,1.496,0.192c0.461,0.128,0.859,0.317,1.191,0.568
		s0.594,0.572,0.787,0.963s0.289,0.849,0.289,1.373c0,0.712-0.199,1.293-0.596,1.742s-0.91,0.778-1.539,0.988v0.035
		c0.373,0.023,0.723,0.119,1.049,0.289c0.326,0.169,0.609,0.391,0.85,0.664c0.238,0.274,0.428,0.593,0.568,0.954
		c0.141,0.362,0.211,0.753,0.211,1.173c0,0.56-0.115,1.053-0.342,1.479c-0.229,0.426-0.541,0.785-0.938,1.076
		c-0.396,0.292-0.857,0.514-1.381,0.665c-0.525,0.151-1.092,0.228-1.697,0.228h-4.254V33.371z M341.156,38.516h2.293
		c0.314,0,0.613-0.032,0.893-0.096c0.279-0.064,0.525-0.173,0.734-0.324c0.211-0.151,0.377-0.344,0.5-0.577s0.184-0.52,0.184-0.857
		c0-0.49-0.158-0.916-0.473-1.278c-0.314-0.361-0.811-0.542-1.488-0.542h-2.643V38.516z M341.156,44.291h2.469
		c0.256,0,0.539-0.026,0.848-0.079c0.311-0.053,0.598-0.157,0.867-0.314c0.268-0.158,0.496-0.371,0.682-0.64
		c0.188-0.268,0.281-0.624,0.281-1.067c0-0.734-0.24-1.286-0.719-1.653s-1.125-0.552-1.941-0.552h-2.486V44.291z"/>
	<path fill="#FFFFFF" d="M354.789,33.371h1.523l5.303,12.39h-1.961l-1.242-3.062h-5.898l-1.225,3.062h-1.959L354.789,33.371z
		 M357.799,41.229l-2.309-5.688h-0.035l-2.346,5.688H357.799z"/>
	<path fill="#FFFFFF" d="M363.627,33.371h4.305c0.537,0,1.035,0.063,1.496,0.192c0.461,0.128,0.857,0.317,1.191,0.568
		c0.332,0.251,0.594,0.572,0.787,0.963c0.191,0.391,0.289,0.849,0.289,1.373c0,0.712-0.199,1.293-0.596,1.742
		s-0.91,0.778-1.541,0.988v0.035c0.375,0.023,0.725,0.119,1.051,0.289c0.326,0.169,0.609,0.391,0.85,0.664
		c0.238,0.274,0.428,0.593,0.568,0.954c0.139,0.362,0.209,0.753,0.209,1.173c0,0.56-0.113,1.053-0.34,1.479
		c-0.229,0.426-0.541,0.785-0.938,1.076c-0.396,0.292-0.857,0.514-1.383,0.665c-0.523,0.151-1.09,0.228-1.697,0.228h-4.252V33.371z
		 M365.307,38.516h2.293c0.314,0,0.613-0.032,0.893-0.096c0.279-0.064,0.525-0.173,0.734-0.324c0.211-0.151,0.377-0.344,0.5-0.577
		c0.121-0.233,0.184-0.52,0.184-0.857c0-0.49-0.158-0.916-0.473-1.278c-0.316-0.361-0.812-0.542-1.488-0.542h-2.643V38.516z
		 M365.307,44.291h2.469c0.256,0,0.539-0.026,0.848-0.079s0.598-0.157,0.867-0.314c0.268-0.158,0.494-0.371,0.682-0.64
		c0.188-0.268,0.279-0.624,0.279-1.067c0-0.734-0.238-1.286-0.717-1.653s-1.125-0.552-1.943-0.552h-2.484V44.291z"/>
	<path fill="#FFFFFF" d="M378.939,33.371h1.521l5.305,12.39h-1.961l-1.242-3.062h-5.898l-1.225,3.062h-1.961L378.939,33.371z
		 M381.949,41.229l-2.311-5.688h-0.035l-2.344,5.688H381.949z"/>
</g>
<path fill="#FFFFFF" d="M36.404,34.829c-0.066,0.361-0.146,0.725-0.247,1.086c-0.841,3.004-2.79,5.403-5.276,6.88l-4.101,2.812
	l-9.479,5.598c0,0,3.89-7.384,3.601-7.49c-5.658-2.072-8.855-8.185-7.201-14.087c1.734-6.201,8.167-9.818,14.37-8.087
	c1.166,0.329,2.24,0.822,3.206,1.448l0.052,0.023l0.021,0.025C35.171,25.555,37.243,30.178,36.404,34.829 M34.132,10.19
	c-0.797-0.34-1.623-0.636-2.463-0.891c-2.191-0.657-4.512-1.017-6.915-1.017c-13.229,0-23.954,10.724-23.954,23.952l0.002,0.13
	l-0.002,0.131c0,5.966,2.17,11.421,5.758,15.632l7.709,10.534l10.659,14.566l16.179-22.11l2.188-2.99
	c3.59-4.211,5.76-9.666,5.76-15.632C49.054,22.429,42.89,13.81,34.132,10.19"/>
<path fill="#FFFFFF" d="M68.132,17.907c0,1.125-0.922,2.037-2.057,2.037c-1.136,0-2.057-0.912-2.057-2.037s0.921-2.037,2.057-2.037
	C67.21,15.87,68.132,16.782,68.132,17.907"/>
<path fill="#FFFFFF" d="M88.919,32.705c0,3.244-1.691,5.192-4.49,6.356c-0.505,0.209-2.932,0.887-5.843,0.587
	c-3.09-0.315-5.358-1.379-5.358-1.379c-0.972-0.517-1.345-1.717-0.836-2.68c0.512-0.964,1.666-1.223,2.687-0.809
	c2.916,1.182,5.464,1.421,7.272,0.907c1.594-0.453,2.617-1.485,2.697-2.96v-0.347c0-1.817-1.382-3.18-3.287-3.29l0.004-0.02
	l-3.279-0.412l0.002-0.01c-3.311-0.453-5.861-3.26-5.861-6.663c0-3.267,2.287-5.649,4.459-6.462
	c0.865-0.321,2.174-0.522,3.982-0.522c2.877,0,5.205,1.109,5.205,1.109c0.918,0.443,1.308,1.541,0.869,2.449
	c-0.437,0.912-1.498,1.196-2.459,0.849c-2.742-0.993-4.897-0.751-4.897-0.751c-1.816,0-3.289,1.471-3.289,3.29
	c0,1.814,1.489,3.039,3.289,3.289c1.098,0.148,2.53,0.316,2.53,0.316c4.623,0.492,6.604,3.128,6.604,6.789V32.705z"/>
<path fill="#FFFFFF" d="M118.072,29.578h-6.455v-0.99c-0.006-1.759,1.428-3.194,3.211-3.203c1.783-0.008,3.234,1.415,3.244,3.177
	V29.578z M118.529,35.826c-2.047,0.696-2.764,0.558-3.969,0.577c-1.68,0.026-2.975-1.633-2.961-3.226l0.018-0.969h8.172
	c0.83,0,1.504-0.676,1.506-1.512l0.033-1.554c-0.02-3.648-3.027-6.597-6.721-6.58c-3.695,0.017-6.672,2.992-6.658,6.638l-0.031,3.92
	c0.02,3.649,3.025,6.598,6.723,6.581c0,0,2.479,0.224,4.826-0.854c0.338-0.156,0.426-0.166,0.729-0.327
	c0.773-0.405,0.99-1.421,0.539-2.169s-1.42-0.989-2.17-0.539L118.529,35.826z"/>
<path fill="#FFFFFF" d="M101.932,29.578h-6.455v-0.99c-0.008-1.759,1.43-3.194,3.213-3.203c1.781-0.008,3.232,1.415,3.242,3.177
	V29.578z M102.387,35.826c-2.047,0.696-2.762,0.558-3.965,0.577c-1.682,0.026-2.975-1.633-2.959-3.226l0.014-0.969h8.172
	c0.83,0,1.502-0.676,1.508-1.512l0.033-1.554c-0.021-3.648-3.027-6.597-6.723-6.58s-6.674,2.992-6.657,6.638l-0.031,3.92
	c0.017,3.649,3.024,6.598,6.721,6.581c0,0,2.48,0.224,4.824-0.854c0.34-0.156,0.428-0.166,0.732-0.327
	c0.771-0.405,0.986-1.421,0.539-2.169c-0.451-0.748-1.424-0.989-2.17-0.539L102.387,35.826z"/>
<path fill="#FFFFFF" d="M64.213,24.411c0-0.997,0.817-1.807,1.826-1.807s1.825,0.81,1.825,1.807v13.504
	c0,0.997-0.816,1.808-1.825,1.808s-1.826-0.811-1.826-1.808V24.411z"/>
<path fill="#FFFFFF" d="M128.443,29.132V17.583c0-0.998-0.816-1.807-1.824-1.807s-1.826,0.809-1.826,1.807v20.332
	c0,0.997,0.818,1.808,1.826,1.808s1.824-0.811,1.824-1.808v-4.31l2.002-1.966c0.605,1.09,4.209,7.046,4.209,7.046
	c0.465,0.833,1.525,1.132,2.367,0.661c0.844-0.468,1.152-1.524,0.686-2.36l-4.598-7.886l3.953-3.837
	c0.607-0.648,0.572-1.663-0.078-2.27c-0.648-0.604-1.664-0.57-2.268,0.079L128.443,29.132z"/>
<polygon fill="#FFFFFF" points="68.806,50.696 63.642,50.696 63.642,48.08 76.964,48.08 76.964,50.696 71.806,50.696 71.806,64.924 
	68.806,64.924 "/>
<path fill="#FFFFFF" d="M84.701,53.17c0.744,0,1.381,0.133,1.914,0.395c0.533,0.26,0.967,0.605,1.311,1.033
	c0.34,0.43,0.589,0.92,0.747,1.477c0.159,0.555,0.237,1.125,0.237,1.713v7.139h-2.853v-6.283c0-0.332-0.026-0.68-0.073-1.033
	c-0.047-0.357-0.145-0.684-0.295-0.977c-0.152-0.295-0.367-0.535-0.643-0.727c-0.279-0.189-0.648-0.285-1.107-0.285
	c-0.461,0-0.857,0.088-1.191,0.264c-0.332,0.174-0.609,0.406-0.832,0.699c-0.223,0.295-0.391,0.623-0.5,0.988
	c-0.11,0.365-0.164,0.738-0.164,1.119v6.234h-2.858V46.938h2.858v8.159h0.044c0.114-0.238,0.278-0.471,0.489-0.701
	c0.213-0.23,0.463-0.438,0.748-0.619c0.289-0.182,0.615-0.328,0.979-0.439S84.273,53.17,84.701,53.17"/>
<path fill="#FFFFFF" d="M100.281,58.072c0-0.365-0.051-0.713-0.152-1.047c-0.104-0.332-0.268-0.627-0.488-0.881
	c-0.221-0.252-0.506-0.455-0.844-0.607c-0.342-0.15-0.742-0.227-1.201-0.227c-0.857,0-1.582,0.26-2.178,0.775
	c-0.594,0.514-0.924,1.176-0.986,1.986H100.281z M103.139,59.357v0.381c0,0.127-0.008,0.254-0.021,0.381h-8.686
	c0.033,0.412,0.139,0.789,0.32,1.129c0.184,0.342,0.424,0.635,0.725,0.881c0.301,0.244,0.643,0.441,1.025,0.582
	c0.381,0.143,0.775,0.215,1.189,0.215c0.715,0,1.316-0.131,1.807-0.393c0.492-0.262,0.898-0.621,1.213-1.082l1.906,1.521
	c-1.127,1.523-2.762,2.285-4.902,2.285c-0.891,0-1.703-0.139-2.451-0.416c-0.744-0.279-1.391-0.672-1.938-1.178
	c-0.549-0.508-0.977-1.131-1.288-1.869c-0.307-0.738-0.463-1.572-0.463-2.51c0-0.92,0.156-1.756,0.463-2.508
	c0.311-0.756,0.734-1.398,1.276-1.93c0.535-0.531,1.176-0.941,1.914-1.236c0.738-0.293,1.535-0.441,2.391-0.441
	c0.791,0,1.527,0.131,2.201,0.393c0.674,0.264,1.258,0.652,1.748,1.166c0.492,0.518,0.879,1.158,1.154,1.928
	C103.002,57.426,103.139,58.326,103.139,59.357"/>
<path fill="#FFFFFF" d="M125.408,58.738c0,1.016-0.176,1.932-0.521,2.746c-0.35,0.818-0.826,1.512-1.43,2.084
	c-0.602,0.57-1.316,1.012-2.139,1.32c-0.828,0.309-1.723,0.463-2.691,0.463c-0.967,0-1.863-0.154-2.688-0.463
	c-0.826-0.309-1.543-0.75-2.154-1.32c-0.607-0.572-1.086-1.266-1.428-2.084c-0.34-0.814-0.512-1.73-0.512-2.746V48.08h3v10.539
	c0,0.492,0.062,0.98,0.189,1.463c0.125,0.484,0.336,0.916,0.629,1.297c0.295,0.381,0.684,0.691,1.166,0.928
	c0.486,0.238,1.084,0.357,1.797,0.357c0.715,0,1.312-0.119,1.799-0.357c0.48-0.236,0.869-0.547,1.166-0.928
	c0.293-0.381,0.502-0.812,0.629-1.297c0.127-0.482,0.189-0.971,0.189-1.463V48.08h2.998V58.738z"/>
<polygon fill="#FFFFFF" points="128.977,48.079 132.951,48.079 140.777,60.689 140.826,60.689 140.826,48.079 143.824,48.079 
	143.824,64.924 140.018,64.924 132.021,51.91 131.975,51.91 131.975,64.924 128.977,64.924 "/>
<rect x="153.482" y="48.08" fill="#FFFFFF" width="2.998" height="16.844"/>
<path fill="#FFFFFF" d="M160.051,53.504h2.709v1.832h0.051c0.254-0.572,0.693-1.074,1.32-1.51c0.627-0.438,1.367-0.654,2.223-0.654
	c0.746,0,1.383,0.129,1.918,0.391c0.529,0.264,0.967,0.607,1.307,1.035c0.342,0.43,0.59,0.92,0.75,1.475
	c0.156,0.557,0.238,1.129,0.238,1.715v7.137h-2.857v-6.328c0-0.332-0.021-0.682-0.07-1.049c-0.047-0.363-0.15-0.691-0.309-0.986
	c-0.158-0.293-0.379-0.535-0.654-0.725c-0.277-0.191-0.646-0.285-1.107-0.285c-0.459,0-0.857,0.09-1.188,0.271
	c-0.334,0.184-0.607,0.418-0.82,0.703c-0.215,0.285-0.379,0.615-0.488,0.988c-0.113,0.373-0.168,0.75-0.168,1.129v6.281h-2.854
	V53.504z"/>
<path fill="#FFFFFF" d="M172.254,55.789v-2.285h2v-3.307h2.807v3.307h2.855v2.285h-2.855v5.305c0,0.508,0.092,0.928,0.273,1.26
	c0.182,0.334,0.59,0.5,1.227,0.5c0.189,0,0.396-0.02,0.617-0.059c0.223-0.039,0.422-0.098,0.596-0.178l0.096,2.236
	c-0.254,0.094-0.557,0.168-0.906,0.225c-0.348,0.057-0.682,0.084-0.998,0.084c-0.762,0-1.381-0.107-1.855-0.32
	c-0.479-0.215-0.855-0.508-1.129-0.881c-0.279-0.373-0.471-0.801-0.574-1.285c-0.102-0.482-0.152-1.004-0.152-1.559v-5.328H172.254z
	"/>
<path fill="#FFFFFF" d="M181.986,53.504h2.734v1.902h0.049c0.316-0.664,0.762-1.203,1.33-1.617c0.572-0.412,1.24-0.617,2-0.617
	c0.111,0,0.23,0.004,0.357,0.012c0.127,0.006,0.236,0.027,0.334,0.059v2.617c-0.191-0.047-0.354-0.08-0.49-0.096
	c-0.135-0.016-0.264-0.023-0.391-0.023c-0.652,0-1.174,0.119-1.572,0.357c-0.393,0.238-0.705,0.523-0.926,0.857
	c-0.223,0.332-0.373,0.672-0.451,1.021c-0.08,0.35-0.119,0.627-0.119,0.832v6.115h-2.855V53.504z"/>
<path fill="#FFFFFF" d="M197.379,59.713h-0.641c-0.461,0-0.945,0.021-1.451,0.061c-0.512,0.039-0.977,0.127-1.404,0.262
	s-0.785,0.324-1.07,0.57c-0.285,0.248-0.43,0.584-0.43,1.012c0,0.27,0.059,0.496,0.18,0.676c0.117,0.186,0.273,0.332,0.463,0.441
	c0.191,0.111,0.404,0.191,0.643,0.238c0.238,0.049,0.477,0.072,0.715,0.072c0.98,0,1.729-0.262,2.234-0.785
	c0.51-0.523,0.762-1.236,0.762-2.143V59.713z M197.426,63.473h-0.07c-0.285,0.508-0.744,0.926-1.381,1.248
	c-0.633,0.326-1.355,0.488-2.162,0.488c-0.463,0-0.939-0.059-1.441-0.178c-0.498-0.119-0.957-0.318-1.379-0.594
	c-0.42-0.277-0.771-0.643-1.049-1.096c-0.277-0.451-0.414-1.01-0.414-1.678c0-0.855,0.24-1.539,0.725-2.045
	c0.484-0.508,1.107-0.896,1.867-1.166s1.607-0.449,2.535-0.537c0.928-0.086,1.834-0.129,2.723-0.129v-0.285
	c0-0.715-0.258-1.242-0.771-1.584c-0.518-0.34-1.129-0.512-1.844-0.512c-0.605,0-1.186,0.127-1.738,0.383
	c-0.555,0.252-1.018,0.562-1.379,0.928l-1.477-1.736c0.65-0.604,1.4-1.057,2.25-1.357c0.848-0.303,1.709-0.453,2.58-0.453
	c1.016,0,1.852,0.145,2.512,0.43c0.656,0.285,1.176,0.658,1.559,1.119c0.377,0.459,0.646,0.975,0.797,1.545s0.225,1.143,0.225,1.715
	v6.947h-2.666V63.473z"/>
<path fill="#FFFFFF" d="M203.424,53.504h2.711v1.832h0.047c0.254-0.572,0.693-1.074,1.32-1.51c0.629-0.438,1.371-0.654,2.225-0.654
	c0.746,0,1.385,0.129,1.916,0.391c0.531,0.264,0.969,0.607,1.311,1.035c0.338,0.43,0.588,0.92,0.746,1.475
	c0.162,0.557,0.24,1.129,0.24,1.715v7.137h-2.855v-6.328c0-0.332-0.023-0.682-0.07-1.049c-0.049-0.363-0.152-0.691-0.311-0.986
	c-0.158-0.293-0.377-0.535-0.654-0.725c-0.279-0.191-0.645-0.285-1.105-0.285s-0.857,0.09-1.191,0.271
	c-0.332,0.184-0.607,0.418-0.82,0.703c-0.215,0.285-0.379,0.615-0.488,0.988s-0.166,0.75-0.166,1.129v6.281h-2.854V53.504z"/>
<path fill="#FFFFFF" d="M225.311,58.072c0-0.365-0.051-0.713-0.154-1.047c-0.102-0.332-0.266-0.627-0.49-0.881
	c-0.219-0.252-0.502-0.455-0.842-0.607c-0.34-0.15-0.742-0.227-1.203-0.227c-0.855,0-1.58,0.26-2.172,0.775
	c-0.598,0.514-0.928,1.176-0.99,1.986H225.311z M228.166,59.357v0.381c0,0.127-0.008,0.254-0.021,0.381h-8.686
	c0.031,0.412,0.137,0.789,0.32,1.129c0.182,0.342,0.426,0.635,0.725,0.881c0.301,0.244,0.643,0.441,1.023,0.582
	c0.383,0.143,0.775,0.215,1.191,0.215c0.715,0,1.316-0.131,1.807-0.393s0.896-0.621,1.213-1.082l1.904,1.521
	c-1.127,1.523-2.76,2.285-4.9,2.285c-0.889,0-1.705-0.139-2.451-0.416c-0.746-0.279-1.393-0.672-1.939-1.178
	c-0.547-0.508-0.977-1.131-1.285-1.869c-0.307-0.738-0.463-1.572-0.463-2.51c0-0.92,0.156-1.756,0.463-2.508
	c0.309-0.756,0.732-1.398,1.273-1.93c0.537-0.531,1.178-0.941,1.916-1.236c0.736-0.293,1.533-0.441,2.391-0.441
	c0.791,0,1.527,0.131,2.199,0.393c0.674,0.264,1.258,0.652,1.75,1.166c0.492,0.518,0.877,1.158,1.154,1.928
	S228.166,58.326,228.166,59.357"/>
<path fill="#FFFFFF" d="M229.285,55.789v-2.285h1.998v-3.307h2.807v3.307h2.855v2.285h-2.855v5.305c0,0.508,0.092,0.928,0.273,1.26
	c0.182,0.334,0.592,0.5,1.227,0.5c0.189,0,0.396-0.02,0.617-0.059c0.223-0.039,0.42-0.098,0.596-0.178l0.096,2.236
	c-0.254,0.094-0.557,0.168-0.906,0.225s-0.682,0.084-1,0.084c-0.76,0-1.379-0.107-1.854-0.32c-0.477-0.215-0.854-0.508-1.131-0.881
	s-0.469-0.801-0.572-1.285c-0.102-0.482-0.152-1.004-0.152-1.559v-5.328H229.285z"/>
<line fill="none" stroke="#FFFFFF" x1="252.445" y1="6.283" x2="252.445" y2="72.428"/>
</svg>
