<?xml version="1.0" encoding="utf-8"?>
<!-- Generator: Adobe Illustrator 16.0.0, SVG Export Plug-In . SVG Version: 6.00 Build 0)  -->
<!DOCTYPE svg PUBLIC "-//W3C//DTD SVG 1.1//EN" "http://www.w3.org/Graphics/SVG/1.1/DTD/svg11.dtd">
<svg version="1.1" id="Layer_1" xmlns="http://www.w3.org/2000/svg" xmlns:xlink="http://www.w3.org/1999/xlink" x="0px" y="0px"
	 width="386.75px" height="75px" viewBox="0 0 386.75 75" enable-background="new 0 0 386.75 75" xml:space="preserve">
<path fill="#FFFFFF" d="M36.404,34.829c-0.066,0.361-0.146,0.725-0.247,1.086c-0.841,3.004-2.79,5.403-5.276,6.88l-4.101,2.812
	l-9.479,5.598c0,0,3.89-7.384,3.601-7.49c-5.658-2.072-8.855-8.185-7.201-14.087c1.734-6.201,8.167-9.818,14.37-8.087
	c1.166,0.329,2.24,0.822,3.206,1.448l0.052,0.023l0.021,0.025C35.171,25.555,37.243,30.178,36.404,34.829 M34.132,10.19
	c-0.797-0.34-1.623-0.636-2.463-0.891c-2.191-0.657-4.512-1.017-6.915-1.017c-13.229,0-23.954,10.724-23.954,23.952l0.002,0.13
	l-0.002,0.131c0,5.966,2.17,11.421,5.758,15.632l7.709,10.534l10.659,14.566l16.179-22.11l2.188-2.99
	c3.59-4.211,5.76-9.666,5.76-15.632C49.054,22.429,42.89,13.81,34.132,10.19"/>
<path fill="#FFFFFF" d="M68.132,17.907c0,1.125-0.922,2.037-2.057,2.037c-1.136,0-2.057-0.912-2.057-2.037s0.921-2.037,2.057-2.037
	C67.21,15.87,68.132,16.782,68.132,17.907"/>
<path fill="#FFFFFF" d="M88.919,32.705c0,3.244-1.691,5.192-4.49,6.356c-0.505,0.209-2.932,0.887-5.843,0.587
	c-3.09-0.315-5.358-1.379-5.358-1.379c-0.972-0.517-1.345-1.717-0.836-2.68c0.512-0.964,1.666-1.223,2.687-0.809
	c2.916,1.182,5.464,1.421,7.272,0.907c1.594-0.453,2.617-1.485,2.697-2.96v-0.347c0-1.817-1.382-3.18-3.287-3.29l0.004-0.02
	l-3.279-0.412l0.002-0.01c-3.311-0.453-5.861-3.26-5.861-6.663c0-3.267,2.287-5.649,4.459-6.462
	c0.865-0.321,2.174-0.522,3.982-0.522c2.877,0,5.205,1.109,5.205,1.109c0.918,0.443,1.308,1.541,0.869,2.449
	c-0.437,0.912-1.498,1.196-2.459,0.849c-2.742-0.993-4.897-0.751-4.897-0.751c-1.816,0-3.289,1.471-3.289,3.29
	c0,1.814,1.489,3.039,3.289,3.289c1.098,0.148,2.53,0.316,2.53,0.316c4.623,0.492,6.604,3.128,6.604,6.789V32.705z"/>
<path fill="#FFFFFF" d="M118.072,29.578h-6.455v-0.99c-0.006-1.759,1.428-3.194,3.211-3.203c1.783-0.008,3.234,1.415,3.244,3.177
	V29.578z M118.529,35.826c-2.047,0.696-2.764,0.558-3.969,0.577c-1.68,0.026-2.975-1.633-2.961-3.226l0.018-0.969h8.172
	c0.83,0,1.504-0.676,1.506-1.512l0.033-1.554c-0.02-3.648-3.027-6.597-6.721-6.58c-3.695,0.017-6.672,2.992-6.658,6.638l-0.031,3.92
	c0.02,3.649,3.025,6.598,6.723,6.581c0,0,2.479,0.224,4.826-0.854c0.338-0.156,0.426-0.166,0.729-0.327
	c0.773-0.405,0.99-1.421,0.539-2.169s-1.42-0.989-2.17-0.539L118.529,35.826z"/>
<path fill="#FFFFFF" d="M101.932,29.578h-6.455v-0.99c-0.008-1.759,1.43-3.194,3.213-3.203c1.781-0.008,3.232,1.415,3.242,3.177
	V29.578z M102.387,35.826c-2.047,0.696-2.762,0.558-3.965,0.577c-1.682,0.026-2.975-1.633-2.959-3.226l0.014-0.969h8.172
	c0.83,0,1.502-0.676,1.508-1.512l0.033-1.554c-0.021-3.648-3.027-6.597-6.723-6.58s-6.674,2.992-6.657,6.638l-0.031,3.92
	c0.017,3.649,3.024,6.598,6.721,6.581c0,0,2.48,0.224,4.824-0.854c0.34-0.156,0.428-0.166,0.732-0.327
	c0.771-0.405,0.986-1.421,0.539-2.169c-0.451-0.748-1.424-0.989-2.17-0.539L102.387,35.826z"/>
<path fill="#FFFFFF" d="M64.213,24.411c0-0.997,0.817-1.807,1.826-1.807s1.825,0.81,1.825,1.807v13.504
	c0,0.997-0.816,1.808-1.825,1.808s-1.826-0.811-1.826-1.808V24.411z"/>
<path fill="#FFFFFF" d="M128.443,29.132V17.583c0-0.998-0.816-1.807-1.824-1.807s-1.826,0.809-1.826,1.807v20.332
	c0,0.997,0.818,1.808,1.826,1.808s1.824-0.811,1.824-1.808v-4.31l2.002-1.966c0.605,1.09,4.209,7.046,4.209,7.046
	c0.465,0.833,1.525,1.132,2.367,0.661c0.844-0.468,1.152-1.524,0.686-2.36l-4.598-7.886l3.953-3.837
	c0.607-0.648,0.572-1.663-0.078-2.27c-0.648-0.604-1.664-0.57-2.268,0.079L128.443,29.132z"/>
<polygon fill="#FFFFFF" points="68.806,50.696 63.642,50.696 63.642,48.08 76.964,48.08 76.964,50.696 71.806,50.696 71.806,64.924 
	68.806,64.924 "/>
<path fill="#FFFFFF" d="M84.701,53.17c0.744,0,1.381,0.133,1.914,0.395c0.533,0.26,0.967,0.605,1.311,1.033
	c0.34,0.43,0.589,0.92,0.747,1.477c0.159,0.555,0.237,1.125,0.237,1.713v7.139h-2.853v-6.283c0-0.332-0.026-0.68-0.073-1.033
	c-0.047-0.357-0.145-0.684-0.295-0.977c-0.152-0.295-0.367-0.535-0.643-0.727c-0.279-0.189-0.648-0.285-1.107-0.285
	c-0.461,0-0.857,0.088-1.191,0.264c-0.332,0.174-0.609,0.406-0.832,0.699c-0.223,0.295-0.391,0.623-0.5,0.988
	c-0.11,0.365-0.164,0.738-0.164,1.119v6.234h-2.858V46.938h2.858v8.159h0.044c0.114-0.238,0.278-0.471,0.489-0.701
	c0.213-0.23,0.463-0.438,0.748-0.619c0.289-0.182,0.615-0.328,0.979-0.439S84.273,53.17,84.701,53.17"/>
<path fill="#FFFFFF" d="M100.281,58.072c0-0.365-0.051-0.713-0.152-1.047c-0.104-0.332-0.268-0.627-0.488-0.881
	c-0.221-0.252-0.506-0.455-0.844-0.607c-0.342-0.15-0.742-0.227-1.201-0.227c-0.857,0-1.582,0.26-2.178,0.775
	c-0.594,0.514-0.924,1.176-0.986,1.986H100.281z M103.139,59.357v0.381c0,0.127-0.008,0.254-0.021,0.381h-8.686
	c0.033,0.412,0.139,0.789,0.32,1.129c0.184,0.342,0.424,0.635,0.725,0.881c0.301,0.244,0.643,0.441,1.025,0.582
	c0.381,0.143,0.775,0.215,1.189,0.215c0.715,0,1.316-0.131,1.807-0.393c0.492-0.262,0.898-0.621,1.213-1.082l1.906,1.521
	c-1.127,1.523-2.762,2.285-4.902,2.285c-0.891,0-1.703-0.139-2.451-0.416c-0.744-0.279-1.391-0.672-1.938-1.178
	c-0.549-0.508-0.977-1.131-1.288-1.869c-0.307-0.738-0.463-1.572-0.463-2.51c0-0.92,0.156-1.756,0.463-2.508
	c0.311-0.756,0.734-1.398,1.276-1.93c0.535-0.531,1.176-0.941,1.914-1.236c0.738-0.293,1.535-0.441,2.391-0.441
	c0.791,0,1.527,0.131,2.201,0.393c0.674,0.264,1.258,0.652,1.748,1.166c0.492,0.518,0.879,1.158,1.154,1.928
	C103.002,57.426,103.139,58.326,103.139,59.357"/>
<path fill="#FFFFFF" d="M125.408,58.738c0,1.016-0.176,1.932-0.521,2.746c-0.35,0.818-0.826,1.512-1.43,2.084
	c-0.602,0.57-1.316,1.012-2.139,1.32c-0.828,0.309-1.723,0.463-2.691,0.463c-0.967,0-1.863-0.154-2.688-0.463
	c-0.826-0.309-1.543-0.75-2.154-1.32c-0.607-0.572-1.086-1.266-1.428-2.084c-0.34-0.814-0.512-1.73-0.512-2.746V48.08h3v10.539
	c0,0.492,0.062,0.98,0.189,1.463c0.125,0.484,0.336,0.916,0.629,1.297c0.295,0.381,0.684,0.691,1.166,0.928
	c0.486,0.238,1.084,0.357,1.797,0.357c0.715,0,1.312-0.119,1.799-0.357c0.48-0.236,0.869-0.547,1.166-0.928
	c0.293-0.381,0.502-0.812,0.629-1.297c0.127-0.482,0.189-0.971,0.189-1.463V48.08h2.998V58.738z"/>
<polygon fill="#FFFFFF" points="128.977,48.079 132.951,48.079 140.777,60.689 140.826,60.689 140.826,48.079 143.824,48.079 
	143.824,64.924 140.018,64.924 132.021,51.91 131.975,51.91 131.975,64.924 128.977,64.924 "/>
<rect x="153.482" y="48.08" fill="#FFFFFF" width="2.998" height="16.844"/>
<path fill="#FFFFFF" d="M160.051,53.504h2.709v1.832h0.051c0.254-0.572,0.693-1.074,1.32-1.51c0.627-0.438,1.367-0.654,2.223-0.654
	c0.746,0,1.383,0.129,1.918,0.391c0.529,0.264,0.967,0.607,1.307,1.035c0.342,0.43,0.59,0.92,0.75,1.475
	c0.156,0.557,0.238,1.129,0.238,1.715v7.137h-2.857v-6.328c0-0.332-0.021-0.682-0.07-1.049c-0.047-0.363-0.15-0.691-0.309-0.986
	c-0.158-0.293-0.379-0.535-0.654-0.725c-0.277-0.191-0.646-0.285-1.107-0.285c-0.459,0-0.857,0.09-1.188,0.271
	c-0.334,0.184-0.607,0.418-0.82,0.703c-0.215,0.285-0.379,0.615-0.488,0.988c-0.113,0.373-0.168,0.75-0.168,1.129v6.281h-2.854
	V53.504z"/>
<path fill="#FFFFFF" d="M172.254,55.789v-2.285h2v-3.307h2.807v3.307h2.855v2.285h-2.855v5.305c0,0.508,0.092,0.928,0.273,1.26
	c0.182,0.334,0.59,0.5,1.227,0.5c0.189,0,0.396-0.02,0.617-0.059c0.223-0.039,0.422-0.098,0.596-0.178l0.096,2.236
	c-0.254,0.094-0.557,0.168-0.906,0.225c-0.348,0.057-0.682,0.084-0.998,0.084c-0.762,0-1.381-0.107-1.855-0.32
	c-0.479-0.215-0.855-0.508-1.129-0.881c-0.279-0.373-0.471-0.801-0.574-1.285c-0.102-0.482-0.152-1.004-0.152-1.559v-5.328H172.254z
	"/>
<path fill="#FFFFFF" d="M181.986,53.504h2.734v1.902h0.049c0.316-0.664,0.762-1.203,1.33-1.617c0.572-0.412,1.24-0.617,2-0.617
	c0.111,0,0.23,0.004,0.357,0.012c0.127,0.006,0.236,0.027,0.334,0.059v2.617c-0.191-0.047-0.354-0.08-0.49-0.096
	c-0.135-0.016-0.264-0.023-0.391-0.023c-0.652,0-1.174,0.119-1.572,0.357c-0.393,0.238-0.705,0.523-0.926,0.857
	c-0.223,0.332-0.373,0.672-0.451,1.021c-0.08,0.35-0.119,0.627-0.119,0.832v6.115h-2.855V53.504z"/>
<path fill="#FFFFFF" d="M197.379,59.713h-0.641c-0.461,0-0.945,0.021-1.451,0.061c-0.512,0.039-0.977,0.127-1.404,0.262
	s-0.785,0.324-1.07,0.57c-0.285,0.248-0.43,0.584-0.43,1.012c0,0.27,0.059,0.496,0.18,0.676c0.117,0.186,0.273,0.332,0.463,0.441
	c0.191,0.111,0.404,0.191,0.643,0.238c0.238,0.049,0.477,0.072,0.715,0.072c0.98,0,1.729-0.262,2.234-0.785
	c0.51-0.523,0.762-1.236,0.762-2.143V59.713z M197.426,63.473h-0.07c-0.285,0.508-0.744,0.926-1.381,1.248
	c-0.633,0.326-1.355,0.488-2.162,0.488c-0.463,0-0.939-0.059-1.441-0.178c-0.498-0.119-0.957-0.318-1.379-0.594
	c-0.42-0.277-0.771-0.643-1.049-1.096c-0.277-0.451-0.414-1.01-0.414-1.678c0-0.855,0.24-1.539,0.725-2.045
	c0.484-0.508,1.107-0.896,1.867-1.166s1.607-0.449,2.535-0.537c0.928-0.086,1.834-0.129,2.723-0.129v-0.285
	c0-0.715-0.258-1.242-0.771-1.584c-0.518-0.34-1.129-0.512-1.844-0.512c-0.605,0-1.186,0.127-1.738,0.383
	c-0.555,0.252-1.018,0.562-1.379,0.928l-1.477-1.736c0.65-0.604,1.4-1.057,2.25-1.357c0.848-0.303,1.709-0.453,2.58-0.453
	c1.016,0,1.852,0.145,2.512,0.43c0.656,0.285,1.176,0.658,1.559,1.119c0.377,0.459,0.646,0.975,0.797,1.545s0.225,1.143,0.225,1.715
	v6.947h-2.666V63.473z"/>
<path fill="#FFFFFF" d="M203.424,53.504h2.711v1.832h0.047c0.254-0.572,0.693-1.074,1.32-1.51c0.629-0.438,1.371-0.654,2.225-0.654
	c0.746,0,1.385,0.129,1.916,0.391c0.531,0.264,0.969,0.607,1.311,1.035c0.338,0.43,0.588,0.92,0.746,1.475
	c0.162,0.557,0.24,1.129,0.24,1.715v7.137h-2.855v-6.328c0-0.332-0.023-0.682-0.07-1.049c-0.049-0.363-0.152-0.691-0.311-0.986
	c-0.158-0.293-0.377-0.535-0.654-0.725c-0.279-0.191-0.645-0.285-1.105-0.285s-0.857,0.09-1.191,0.271
	c-0.332,0.184-0.607,0.418-0.82,0.703c-0.215,0.285-0.379,0.615-0.488,0.988s-0.166,0.75-0.166,1.129v6.281h-2.854V53.504z"/>
<path fill="#FFFFFF" d="M225.311,58.072c0-0.365-0.051-0.713-0.154-1.047c-0.102-0.332-0.266-0.627-0.49-0.881
	c-0.219-0.252-0.502-0.455-0.842-0.607c-0.34-0.15-0.742-0.227-1.203-0.227c-0.855,0-1.58,0.26-2.172,0.775
	c-0.598,0.514-0.928,1.176-0.99,1.986H225.311z M228.166,59.357v0.381c0,0.127-0.008,0.254-0.021,0.381h-8.686
	c0.031,0.412,0.137,0.789,0.32,1.129c0.182,0.342,0.426,0.635,0.725,0.881c0.301,0.244,0.643,0.441,1.023,0.582
	c0.383,0.143,0.775,0.215,1.191,0.215c0.715,0,1.316-0.131,1.807-0.393s0.896-0.621,1.213-1.082l1.904,1.521
	c-1.127,1.523-2.76,2.285-4.9,2.285c-0.889,0-1.705-0.139-2.451-0.416c-0.746-0.279-1.393-0.672-1.939-1.178
	c-0.547-0.508-0.977-1.131-1.285-1.869c-0.307-0.738-0.463-1.572-0.463-2.51c0-0.92,0.156-1.756,0.463-2.508
	c0.309-0.756,0.732-1.398,1.273-1.93c0.537-0.531,1.178-0.941,1.916-1.236c0.736-0.293,1.533-0.441,2.391-0.441
	c0.791,0,1.527,0.131,2.199,0.393c0.674,0.264,1.258,0.652,1.75,1.166c0.492,0.518,0.877,1.158,1.154,1.928
	S228.166,58.326,228.166,59.357"/>
<path fill="#FFFFFF" d="M229.285,55.789v-2.285h1.998v-3.307h2.807v3.307h2.855v2.285h-2.855v5.305c0,0.508,0.092,0.928,0.273,1.26
	c0.182,0.334,0.592,0.5,1.227,0.5c0.189,0,0.396-0.02,0.617-0.059c0.223-0.039,0.42-0.098,0.596-0.178l0.096,2.236
	c-0.254,0.094-0.557,0.168-0.906,0.225s-0.682,0.084-1,0.084c-0.76,0-1.379-0.107-1.854-0.32c-0.477-0.215-0.854-0.508-1.131-0.881
	s-0.469-0.801-0.572-1.285c-0.102-0.482-0.152-1.004-0.152-1.559v-5.328H229.285z"/>
<line fill="none" stroke="#FFFFFF" x1="252.445" y1="6.283" x2="252.445" y2="72.428"/>
<g>
	<path fill="#FFFFFF" d="M266.431,43.178c0.304,0.455,0.691,0.79,1.164,1.006s0.959,0.324,1.461,0.324
		c0.281,0,0.566-0.044,0.857-0.132c0.292-0.087,0.558-0.219,0.797-0.394c0.238-0.175,0.435-0.391,0.586-0.647
		c0.152-0.257,0.229-0.554,0.229-0.893c0-0.479-0.152-0.843-0.455-1.094c-0.305-0.251-0.68-0.461-1.129-0.63
		s-0.939-0.332-1.471-0.49c-0.531-0.157-1.021-0.376-1.47-0.656c-0.449-0.279-0.825-0.656-1.129-1.129
		c-0.304-0.472-0.455-1.11-0.455-1.916c0-0.361,0.079-0.746,0.236-1.154c0.157-0.409,0.405-0.782,0.743-1.12
		c0.339-0.339,0.773-0.622,1.305-0.849c0.53-0.228,1.17-0.342,1.916-0.342c0.676,0,1.324,0.094,1.942,0.28s1.161,0.565,1.628,1.138
		l-1.365,1.242c-0.21-0.326-0.508-0.589-0.893-0.787s-0.822-0.298-1.312-0.298c-0.467,0-0.855,0.062-1.164,0.184
		s-0.557,0.28-0.744,0.473c-0.186,0.192-0.317,0.399-0.393,0.621c-0.076,0.222-0.114,0.426-0.114,0.612
		c0,0.525,0.151,0.928,0.455,1.208c0.304,0.279,0.679,0.507,1.129,0.683c0.448,0.175,0.938,0.332,1.47,0.472
		c0.531,0.141,1.021,0.336,1.471,0.587c0.448,0.251,0.824,0.589,1.128,1.015s0.455,1.013,0.455,1.759
		c0,0.595-0.114,1.132-0.341,1.61c-0.229,0.479-0.534,0.881-0.919,1.207c-0.386,0.327-0.841,0.578-1.365,0.753
		s-1.085,0.263-1.68,0.263c-0.794,0-1.546-0.141-2.258-0.421c-0.712-0.279-1.277-0.711-1.697-1.295L266.431,43.178z"/>
	<path fill="#FFFFFF" d="M280.081,33.378h1.522l5.303,12.39h-1.96l-1.242-3.062h-5.898l-1.225,3.062h-1.96L280.081,33.378z
		 M283.091,41.235l-2.31-5.688h-0.035l-2.345,5.688H283.091z"/>
	<path fill="#FFFFFF" d="M288.919,33.378h2.205l6.824,10.185h0.035V33.378h1.68v12.39h-2.135l-6.895-10.185h-0.035v10.185h-1.68
		V33.378z"/>
	<path fill="#FFFFFF" d="M305.841,34.952h-3.99v-1.574h9.66v1.574h-3.99v10.815h-1.68V34.952z"/>
	<path fill="#FFFFFF" d="M313.698,33.378h1.68v12.39h-1.68V33.378z"/>
	<path fill="#FFFFFF" d="M322.851,33.378h1.522l5.303,12.39h-1.96l-1.242-3.062h-5.898l-1.225,3.062h-1.96L322.851,33.378z
		 M325.86,41.235l-2.31-5.688h-0.035l-2.345,5.688H325.86z"/>
	<path fill="#FFFFFF" d="M342.241,38.838v6.107c-0.305,0.187-0.648,0.35-1.033,0.49c-0.385,0.14-0.785,0.26-1.199,0.358
		s-0.834,0.172-1.26,0.219c-0.426,0.046-0.825,0.07-1.198,0.07c-1.05,0-1.986-0.176-2.809-0.525
		c-0.823-0.35-1.517-0.822-2.083-1.418c-0.566-0.595-0.997-1.286-1.295-2.073c-0.297-0.787-0.446-1.619-0.446-2.494
		c0-0.921,0.161-1.778,0.481-2.572c0.32-0.793,0.764-1.481,1.33-2.064c0.566-0.584,1.245-1.042,2.039-1.374
		c0.793-0.333,1.662-0.499,2.607-0.499c1.143,0,2.076,0.144,2.8,0.429c0.724,0.286,1.33,0.68,1.819,1.182l-1.189,1.277
		c-0.514-0.49-1.057-0.831-1.627-1.023c-0.572-0.193-1.173-0.289-1.803-0.289c-0.712,0-1.354,0.131-1.926,0.394
		c-0.571,0.263-1.061,0.615-1.47,1.059c-0.408,0.443-0.724,0.966-0.944,1.566c-0.223,0.602-0.333,1.24-0.333,1.916
		c0,0.7,0.122,1.351,0.368,1.951c0.244,0.602,0.582,1.123,1.015,1.566c0.431,0.443,0.938,0.791,1.522,1.041
		c0.583,0.252,1.219,0.377,1.907,0.377c0.595,0,1.157-0.056,1.688-0.166c0.531-0.111,0.982-0.271,1.356-0.481v-3.448h-2.747v-1.574
		H342.241z"/>
	<path fill="#FFFFFF" d="M351.394,46.083c-0.945,0-1.814-0.167-2.607-0.499c-0.794-0.333-1.473-0.79-2.039-1.374
		c-0.566-0.583-1.01-1.271-1.33-2.064c-0.32-0.794-0.481-1.651-0.481-2.573c0-0.921,0.161-1.778,0.481-2.572
		c0.32-0.793,0.764-1.481,1.33-2.064c0.566-0.584,1.245-1.042,2.039-1.374c0.793-0.333,1.662-0.499,2.607-0.499
		s1.813,0.166,2.607,0.499c0.793,0.332,1.473,0.79,2.039,1.374c0.565,0.583,1.008,1.271,1.33,2.064
		c0.32,0.794,0.48,1.651,0.48,2.572c0,0.922-0.16,1.779-0.48,2.573c-0.322,0.793-0.765,1.481-1.33,2.064
		c-0.566,0.584-1.246,1.041-2.039,1.374C353.207,45.916,352.339,46.083,351.394,46.083z M351.394,44.508
		c0.711,0,1.354-0.132,1.925-0.394c0.571-0.263,1.062-0.615,1.47-1.06c0.408-0.442,0.724-0.965,0.945-1.565
		c0.221-0.602,0.332-1.24,0.332-1.917c0-0.676-0.111-1.314-0.332-1.916c-0.222-0.601-0.537-1.123-0.945-1.566
		s-0.898-0.796-1.47-1.059s-1.214-0.394-1.925-0.394c-0.712,0-1.354,0.131-1.926,0.394c-0.571,0.263-1.061,0.615-1.47,1.059
		c-0.408,0.443-0.724,0.966-0.944,1.566c-0.223,0.602-0.333,1.24-0.333,1.916c0,0.677,0.11,1.315,0.333,1.917
		c0.221,0.601,0.536,1.123,0.944,1.565c0.409,0.444,0.898,0.797,1.47,1.06C350.04,44.376,350.682,44.508,351.394,44.508z"/>
</g>
</svg>
