<?xml version="1.0" encoding="utf-8"?>
<!-- Generator: Adobe Illustrator 16.0.0, SVG Export Plug-In . SVG Version: 6.00 Build 0)  -->
<!DOCTYPE svg PUBLIC "-//W3C//DTD SVG 1.1//EN" "http://www.w3.org/Graphics/SVG/1.1/DTD/svg11.dtd">
<svg version="1.1" id="Layer_1" xmlns="http://www.w3.org/2000/svg" xmlns:xlink="http://www.w3.org/1999/xlink" x="0px" y="0px"
	 width="387px" height="75px" viewBox="0 0 387 75" enable-background="new 0 0 387 75" xml:space="preserve">
<g>
	<path fill="#FFFFFF" d="M42.175,18.487c-0.016-0.008-0.035-0.016-0.054-0.025c0.027,0.017,0.049,0.034,0.075,0.05
		C42.189,18.505,42.182,18.494,42.175,18.487z"/>
	<path fill="#FFFFFF" d="M45.111,5.064c-0.835-0.356-1.699-0.664-2.58-0.931c-2.293-0.69-4.721-1.064-7.237-1.064
		c-13.848,0-25.073,11.226-25.073,25.072c0,0.045,0.002,0.091,0.002,0.136c0,0.046-0.002,0.088-0.002,0.137
		c0,6.244,2.271,11.955,6.027,16.363l8.068,11.028l11.16,15.247L52.41,47.907l2.291-3.13c3.758-4.408,6.029-10.119,6.029-16.363
		C60.73,17.876,54.277,8.853,45.111,5.064z M47.487,30.856c-0.068,0.378-0.153,0.759-0.258,1.136
		c-0.88,3.145-2.919,5.656-5.526,7.203l-4.29,2.941l-9.923,5.861c0,0,4.073-7.729,3.771-7.843
		c-5.925-2.168-9.271-8.565-7.538-14.744c1.814-6.491,8.548-10.278,15.042-8.465c1.22,0.344,2.344,0.86,3.355,1.516
		c0.02,0.009,0.039,0.017,0.054,0.025c0.006,0.007,0.014,0.019,0.021,0.025C46.197,21.149,48.366,25.988,47.487,30.856z"/>
	<path fill="#FFFFFF" d="M30.494,46.886"/>
</g>
<g opacity="0.8">
	<path fill="#FFFFFF" d="M87.649,64.803c0,2.204-1.152,3.529-3.054,4.32c-0.343,0.143-1.994,0.603-3.973,0.399
		c-2.1-0.215-3.642-0.938-3.642-0.938c-0.661-0.352-0.915-1.166-0.568-1.821c0.346-0.653,1.131-0.833,1.826-0.552
		c1.982,0.806,3.713,0.968,4.943,0.617c1.083-0.307,1.779-1.011,1.834-2.011v-0.236c0-1.235-0.94-2.162-2.235-2.235l0.003-0.015
		l-2.23-0.279l0-0.006c-2.25-0.31-3.983-2.218-3.983-4.533c0-2.219,1.554-3.839,3.031-4.389c0.587-0.22,1.476-0.357,2.707-0.357
		c1.956,0,3.539,0.754,3.539,0.754c0.624,0.303,0.888,1.047,0.59,1.667c-0.296,0.621-1.018,0.811-1.67,0.575
		c-1.866-0.672-3.33-0.51-3.33-0.51c-1.235,0-2.237,0.999-2.237,2.236c0,1.233,1.012,2.066,2.237,2.235
		c0.746,0.103,1.72,0.216,1.72,0.216c3.141,0.336,4.49,2.126,4.49,4.615V64.803z"/>
	<path fill="#FFFFFF" d="M82.194,58.979"/>
	<path fill="#FFFFFF" d="M76.435,68.249"/>
	<path fill="#FFFFFF" d="M80.641,67.078"/>
	<path fill="#FFFFFF" d="M82.84,67.371"/>
	<path fill="#FFFFFF" d="M76.435,64.771"/>
	<path fill="#FFFFFF" d="M107.777,66.925c-1.392,0.472-1.878,0.379-2.698,0.391c-1.142,0.019-2.023-1.11-2.013-2.192l0.01-0.658
		h5.558c0.563,0,1.021-0.459,1.023-1.028l0.021-1.058c-0.011-2.476-2.056-4.483-4.568-4.471s-4.535,2.033-4.525,4.512l-0.021,2.666
		c0.014,2.479,2.056,4.481,4.569,4.473c0,0,1.685,0.152,3.279-0.58c0.231-0.108,0.292-0.113,0.497-0.221
		c0.524-0.276,0.672-0.969,0.366-1.477c-0.305-0.509-0.964-0.672-1.474-0.366L107.777,66.925z M107.466,62.676h-4.391v-0.673
		c-0.003-1.197,0.973-2.171,2.186-2.177c1.211-0.006,2.198,0.961,2.205,2.159V62.676z"/>
	<path fill="#FFFFFF" d="M96.803,66.925c-1.391,0.472-1.878,0.379-2.695,0.391c-1.144,0.019-2.023-1.11-2.012-2.192l0.009-0.658
		h5.556c0.564,0,1.021-0.459,1.024-1.028l0.022-1.058c-0.013-2.476-2.057-4.483-4.567-4.471c-2.514,0.013-4.538,2.033-4.527,4.512
		l-0.021,2.666c0.011,2.479,2.055,4.481,4.567,4.473c0,0,1.687,0.152,3.281-0.58c0.231-0.108,0.29-0.113,0.498-0.221
		c0.526-0.276,0.67-0.969,0.369-1.477c-0.309-0.509-0.97-0.672-1.478-0.366L96.803,66.925z M96.494,62.676h-4.389v-0.673
		c-0.004-1.197,0.973-2.171,2.184-2.177c1.212-0.006,2.198,0.961,2.205,2.159V62.676z"/>
	<g>
		<ellipse fill="#FFFFFF" cx="72.118" cy="54.705" rx="1.398" ry="1.384"/>
		<path fill="#FFFFFF" d="M70.853,59.164c0-0.677,0.556-1.229,1.242-1.229c0.686,0,1.241,0.552,1.241,1.229v9.18
			c0,0.679-0.555,1.228-1.241,1.228c-0.686,0-1.242-0.549-1.242-1.228V59.164z"/>
	</g>
	<path fill="#FFFFFF" d="M114.516,62.374v-7.852c0-0.678-0.556-1.228-1.24-1.228c-0.685,0-1.242,0.55-1.242,1.228v13.821
		c0,0.679,0.557,1.228,1.242,1.228c0.684,0,1.24-0.549,1.24-1.228v-2.93l1.361-1.338c0.411,0.742,2.86,4.792,2.86,4.792
		c0.315,0.565,1.036,0.769,1.609,0.449c0.575-0.317,0.782-1.036,0.466-1.605l-3.126-5.36l2.689-2.608
		c0.412-0.44,0.389-1.131-0.054-1.54c-0.441-0.415-1.129-0.389-1.542,0.051L114.516,62.374z"/>
</g>
<g>
	<g>
		<path fill="#FFFFFF" d="M90.934,12.07"/>
		<path fill="#FFFFFF" d="M82.813,8"/>
		<path fill="#FFFFFF" d="M71.218,11.029h-4.529V8.735h11.684v2.294h-4.527v12.478h-2.628V11.029z"/>
		<path fill="#FFFFFF" d="M85.157,13.201c0.653,0,1.213,0.114,1.68,0.344c0.466,0.23,0.846,0.532,1.148,0.908
			c0.298,0.376,0.518,0.806,0.657,1.293c0.137,0.487,0.207,0.986,0.207,1.502v6.26h-2.501v-5.509c0-0.291-0.023-0.594-0.064-0.905
			c-0.041-0.314-0.125-0.6-0.26-0.857c-0.132-0.257-0.319-0.469-0.562-0.637c-0.247-0.167-0.568-0.25-0.971-0.25
			c-0.404,0-0.751,0.077-1.044,0.23c-0.292,0.153-0.534,0.359-0.729,0.615c-0.196,0.258-0.345,0.547-0.439,0.864
			c-0.1,0.321-0.146,0.649-0.146,0.983v5.466h-2.504V7.732h2.504v7.158h0.041c0.101-0.209,0.242-0.413,0.429-0.616
			c0.188-0.201,0.405-0.382,0.657-0.542c0.252-0.158,0.536-0.289,0.855-0.386S84.783,13.201,85.157,13.201z"/>
		<path fill="#FFFFFF" d="M101.328,18.627c0,0.109,0,0.22,0,0.332s-0.007,0.223-0.02,0.335h-7.618
			c0.03,0.361,0.126,0.691,0.281,0.989c0.163,0.3,0.374,0.559,0.638,0.773c0.265,0.215,0.562,0.386,0.898,0.511
			c0.336,0.126,0.682,0.189,1.043,0.189c0.626,0,1.155-0.116,1.586-0.345c0.428-0.229,0.784-0.545,1.061-0.949l1.672,1.335
			c-0.989,1.336-2.421,2.002-4.299,2.002c-0.782,0-1.495-0.122-2.15-0.364c-0.652-0.244-1.219-0.588-1.699-1.032
			c-0.48-0.446-0.856-0.992-1.127-1.64s-0.408-1.379-0.408-2.201c0-0.807,0.137-1.54,0.408-2.199
			c0.271-0.661,0.643-1.226,1.117-1.691c0.47-0.466,1.033-0.828,1.679-1.086c0.644-0.257,1.347-0.385,2.098-0.385
			c0.693,0,1.34,0.114,1.93,0.344c0.59,0.23,1.104,0.571,1.534,1.022c0.429,0.453,0.768,1.016,1.01,1.691
			C101.208,16.933,101.328,17.721,101.328,18.627z M98.822,17.499c0-0.321-0.043-0.627-0.135-0.919
			c-0.09-0.291-0.236-0.549-0.426-0.771c-0.194-0.222-0.443-0.399-0.739-0.533c-0.3-0.131-0.652-0.198-1.055-0.198
			c-0.753,0-1.39,0.227-1.91,0.679c-0.522,0.451-0.809,1.031-0.867,1.742H98.822z"/>
	</g>
	<path fill="#FFFFFF" d="M87.055,39.519c0,1.232-0.209,2.343-0.634,3.335c-0.423,0.995-1.002,1.837-1.735,2.532
		c-0.73,0.692-1.598,1.227-2.596,1.603c-1.007,0.376-2.095,0.563-3.27,0.563c-1.175,0-2.263-0.188-3.267-0.563
		c-1.001-0.376-1.874-0.91-2.616-1.603c-0.739-0.695-1.32-1.537-1.733-2.532c-0.412-0.992-0.622-2.103-0.622-3.335V26.57h3.645
		v12.803c0,0.597,0.074,1.188,0.23,1.774c0.152,0.59,0.408,1.117,0.764,1.575c0.357,0.465,0.831,0.84,1.418,1.131
		c0.59,0.289,1.314,0.434,2.181,0.434s1.593-0.145,2.184-0.434c0.583-0.291,1.057-0.666,1.416-1.131
		c0.358-0.458,0.607-0.985,0.763-1.575c0.155-0.586,0.234-1.178,0.234-1.774V26.57h3.638V39.519z"/>
	<path fill="#FFFFFF" d="M91.392,26.57h4.827l9.504,15.319h0.06V26.57h3.642v20.463h-4.623l-9.71-15.812h-0.06v15.812h-3.64V26.57z"
		/>
	<path fill="#FFFFFF" d="M121.156,26.57h3.641v20.463h-3.641V26.57z"/>
	<path fill="#FFFFFF" d="M129.135,33.158h3.292v2.227h0.058c0.312-0.693,0.844-1.306,1.605-1.835
		c0.762-0.531,1.662-0.795,2.699-0.795c0.905,0,1.681,0.159,2.331,0.478c0.643,0.318,1.172,0.736,1.59,1.254
		c0.413,0.522,0.715,1.12,0.909,1.794c0.189,0.674,0.291,1.367,0.291,2.08v8.673h-3.472v-7.689c0-0.403-0.026-0.829-0.085-1.273
		c-0.06-0.44-0.184-0.84-0.377-1.198c-0.191-0.356-0.457-0.65-0.792-0.88c-0.338-0.233-0.786-0.346-1.345-0.346
		c-0.559,0-1.042,0.11-1.444,0.331c-0.405,0.222-0.737,0.505-0.998,0.852c-0.26,0.348-0.456,0.748-0.593,1.198
		c-0.136,0.455-0.2,0.913-0.2,1.371v7.635h-3.468V33.158z"/>
	<path fill="#FFFFFF" d="M143.959,35.935v-2.776h2.428v-4.015h3.411v4.015h3.466v2.776h-3.466v6.444
		c0,0.616,0.111,1.126,0.331,1.532c0.221,0.401,0.716,0.607,1.49,0.607c0.233,0,0.481-0.026,0.751-0.074
		c0.27-0.047,0.51-0.118,0.722-0.218l0.117,2.719c-0.307,0.114-0.676,0.204-1.099,0.272c-0.424,0.07-0.832,0.103-1.212,0.103
		c-0.927,0-1.679-0.13-2.257-0.391c-0.578-0.259-1.036-0.614-1.371-1.07c-0.338-0.451-0.568-0.972-0.697-1.559
		c-0.123-0.588-0.185-1.22-0.185-1.895v-6.472H143.959z"/>
	<path fill="#FFFFFF" d="M155.777,33.158h3.325v2.312h0.056c0.387-0.806,0.927-1.462,1.619-1.964c0.693-0.5,1.505-0.751,2.426-0.751
		c0.136,0,0.282,0.006,0.437,0.014c0.155,0.01,0.286,0.034,0.403,0.071v3.181c-0.23-0.058-0.428-0.098-0.592-0.116
		c-0.166-0.019-0.323-0.028-0.475-0.028c-0.792,0-1.426,0.145-1.911,0.434c-0.477,0.29-0.859,0.636-1.124,1.04
		c-0.272,0.404-0.455,0.818-0.549,1.242c-0.097,0.424-0.144,0.763-0.144,1.012v7.43h-3.471V33.158z"/>
	<path fill="#FFFFFF" d="M174.532,45.27h-0.083c-0.346,0.613-0.906,1.122-1.678,1.514c-0.767,0.397-1.647,0.594-2.625,0.594
		c-0.565,0-1.143-0.07-1.752-0.215c-0.606-0.146-1.162-0.385-1.673-0.723c-0.514-0.338-0.938-0.777-1.278-1.33
		c-0.334-0.55-0.5-1.228-0.5-2.039c0-1.041,0.291-1.868,0.876-2.481c0.591-0.619,1.345-1.091,2.271-1.417
		c0.921-0.329,1.952-0.547,3.078-0.65c1.127-0.106,2.229-0.161,3.308-0.161v-0.346c0-0.867-0.312-1.507-0.938-1.922
		c-0.63-0.415-1.372-0.623-2.239-0.623c-0.735,0-1.44,0.156-2.11,0.465c-0.674,0.307-1.235,0.681-1.678,1.125l-1.792-2.109
		c0.789-0.73,1.703-1.28,2.733-1.647c1.031-0.368,2.076-0.55,3.134-0.55c1.234,0,2.25,0.174,3.051,0.521
		c0.795,0.346,1.43,0.8,1.893,1.358c0.461,0.558,0.785,1.184,0.966,1.878c0.185,0.693,0.275,1.388,0.275,2.081v8.441h-3.24V45.27z
		 M174.477,40.701h-0.78c-0.558,0-1.147,0.025-1.761,0.074c-0.62,0.046-1.188,0.154-1.706,0.316c-0.518,0.164-0.955,0.395-1.3,0.694
		c-0.347,0.3-0.521,0.708-0.521,1.227c0,0.329,0.073,0.604,0.219,0.823c0.142,0.223,0.333,0.402,0.562,0.536
		c0.231,0.134,0.489,0.232,0.779,0.29s0.58,0.086,0.867,0.086c1.193,0,2.102-0.317,2.716-0.954c0.619-0.636,0.925-1.502,0.925-2.601
		V40.701z"/>
	<path fill="#FFFFFF" d="M181.818,33.158h3.295v2.227h0.053c0.311-0.693,0.844-1.306,1.604-1.835
		c0.767-0.531,1.667-0.795,2.705-0.795c0.907,0,1.681,0.159,2.327,0.478c0.646,0.318,1.179,0.736,1.591,1.254
		c0.412,0.522,0.715,1.12,0.905,1.794c0.197,0.674,0.292,1.367,0.292,2.08v8.673h-3.467v-7.689c0-0.403-0.028-0.829-0.083-1.273
		c-0.061-0.44-0.189-0.84-0.377-1.198c-0.194-0.356-0.458-0.65-0.796-0.88c-0.341-0.233-0.784-0.346-1.343-0.346
		c-0.56,0-1.042,0.11-1.45,0.331c-0.4,0.222-0.736,0.505-0.993,0.852c-0.262,0.348-0.462,0.748-0.595,1.198
		c-0.132,0.455-0.202,0.913-0.202,1.371v7.635h-3.467V33.158z"/>
	<path fill="#FFFFFF" d="M211.873,40.269c0,0.153,0,0.309,0,0.462c0,0.155-0.008,0.309-0.028,0.463h-10.547
		c0.036,0.502,0.163,0.959,0.386,1.374c0.224,0.412,0.519,0.77,0.882,1.069c0.366,0.296,0.783,0.535,1.244,0.708
		c0.465,0.174,0.942,0.26,1.446,0.26c0.867,0,1.598-0.16,2.196-0.478c0.593-0.318,1.086-0.756,1.473-1.315l2.312,1.851
		c-1.368,1.848-3.354,2.771-5.952,2.771c-1.08,0-2.072-0.167-2.979-0.504c-0.906-0.337-1.692-0.815-2.354-1.43
		c-0.667-0.617-1.185-1.373-1.562-2.27c-0.374-0.896-0.561-1.912-0.561-3.048c0-1.118,0.187-2.135,0.561-3.048
		c0.378-0.915,0.891-1.698,1.548-2.343c0.65-0.645,1.43-1.146,2.326-1.503c0.894-0.355,1.862-0.534,2.904-0.534
		c0.964,0,1.855,0.159,2.673,0.478c0.819,0.318,1.528,0.79,2.126,1.415c0.595,0.627,1.062,1.408,1.399,2.341
		C211.704,37.923,211.873,39.016,211.873,40.269z M208.403,38.708c0-0.443-0.06-0.868-0.188-1.272
		c-0.123-0.404-0.323-0.76-0.592-1.068c-0.27-0.307-0.612-0.555-1.025-0.739c-0.411-0.183-0.901-0.273-1.462-0.273
		c-1.036,0-1.923,0.313-2.639,0.94c-0.724,0.625-1.127,1.429-1.2,2.413H208.403z"/>
	<path fill="#FFFFFF" d="M213.231,35.935v-2.776h2.428v-4.015h3.408v4.015h3.471v2.776h-3.471v6.444
		c0,0.616,0.113,1.126,0.332,1.532c0.22,0.401,0.718,0.607,1.489,0.607c0.231,0,0.479-0.026,0.753-0.074
		c0.269-0.047,0.511-0.118,0.724-0.218l0.115,2.719c-0.309,0.114-0.678,0.204-1.1,0.272c-0.425,0.07-0.832,0.103-1.217,0.103
		c-0.923,0-1.677-0.13-2.253-0.391c-0.575-0.259-1.032-0.614-1.374-1.07c-0.336-0.451-0.565-0.972-0.693-1.559
		c-0.123-0.588-0.185-1.22-0.185-1.895v-6.472H213.231z"/>
</g>
<line fill="none" stroke="#FFFFFF" stroke-width="0.9245" stroke-miterlimit="10" x1="248.235" y1="3.5" x2="248.235" y2="70.769"/>
<g>
	<path fill="#FFFFFF" d="M265.888,32.406h1.969l7.613,10.924h0.037V32.406h1.562v13.152h-1.97l-7.617-10.922h-0.036v10.922h-1.558
		V32.406z"/>
	<path fill="#FFFFFF" d="M287.839,43.98c-0.519,0.668-1.087,1.136-1.709,1.4c-0.617,0.268-1.334,0.401-2.149,0.401
		c-0.686,0-1.299-0.122-1.843-0.364c-0.546-0.241-1.006-0.567-1.384-0.975c-0.379-0.408-0.667-0.892-0.871-1.449
		c-0.205-0.557-0.306-1.15-0.306-1.782c0-0.668,0.111-1.283,0.333-1.848c0.221-0.563,0.533-1.048,0.928-1.449
		c0.396-0.403,0.869-0.715,1.412-0.938s1.14-0.335,1.784-0.335c0.606,0,1.162,0.102,1.67,0.308c0.51,0.204,0.946,0.501,1.311,0.891
		c0.366,0.391,0.646,0.866,0.845,1.43c0.198,0.564,0.299,1.206,0.299,1.924v0.465h-7.021c0.024,0.369,0.113,0.727,0.269,1.067
		c0.153,0.34,0.355,0.639,0.604,0.89c0.247,0.255,0.538,0.457,0.873,0.604c0.336,0.149,0.699,0.224,1.099,0.224
		c0.628,0,1.162-0.111,1.596-0.335c0.433-0.222,0.821-0.551,1.17-0.983L287.839,43.98z M286.599,40.432
		c-0.026-0.743-0.269-1.337-0.726-1.784c-0.461-0.445-1.09-0.667-1.893-0.667c-0.81,0-1.458,0.222-1.953,0.667
		c-0.494,0.447-0.794,1.041-0.891,1.784H286.599z"/>
	<path fill="#FFFFFF" d="M299.729,45.559h-1.431l-2.47-6.689h-0.037l-2.192,6.689h-1.484l-2.825-8.694h1.597l1.987,6.688h0.037
		l2.252-6.688h1.521l2.285,6.688h0.034l1.971-6.688h1.563L299.729,45.559z"/>
	<path fill="#FFFFFF" d="M312.694,39.893l-4.902-7.486h1.986l3.699,5.946l3.806-5.946h1.879l-4.905,7.486v5.666h-1.562V39.893z"/>
	<path fill="#FFFFFF" d="M317.801,41.212c0-0.682,0.119-1.3,0.355-1.856c0.235-0.558,0.556-1.039,0.967-1.44
		c0.407-0.403,0.896-0.715,1.467-0.938c0.568-0.224,1.187-0.335,1.856-0.335c0.667,0,1.289,0.111,1.859,0.335
		c0.568,0.224,1.058,0.535,1.466,0.938c0.408,0.401,0.728,0.883,0.966,1.44c0.231,0.557,0.353,1.175,0.353,1.856
		c0,0.681-0.121,1.301-0.353,1.857c-0.238,0.557-0.558,1.037-0.966,1.441c-0.408,0.402-0.897,0.714-1.466,0.937
		c-0.57,0.225-1.192,0.335-1.859,0.335c-0.67,0-1.288-0.11-1.856-0.335c-0.57-0.223-1.06-0.534-1.467-0.937
		c-0.411-0.404-0.731-0.885-0.967-1.441C317.92,42.513,317.801,41.893,317.801,41.212z M319.364,41.212
		c0,0.457,0.069,0.881,0.213,1.271c0.141,0.39,0.352,0.73,0.621,1.022c0.272,0.29,0.6,0.52,0.977,0.689
		c0.376,0.165,0.8,0.248,1.271,0.248c0.474,0,0.894-0.083,1.273-0.248c0.378-0.17,0.704-0.399,0.975-0.689
		c0.271-0.292,0.482-0.633,0.62-1.022c0.142-0.391,0.216-0.814,0.216-1.271c0-0.458-0.074-0.881-0.216-1.271
		c-0.138-0.392-0.349-0.732-0.62-1.022c-0.271-0.291-0.597-0.521-0.975-0.688c-0.38-0.169-0.8-0.25-1.273-0.25
		c-0.472,0-0.896,0.081-1.271,0.25c-0.377,0.167-0.704,0.396-0.977,0.688c-0.27,0.29-0.48,0.631-0.621,1.022
		C319.434,40.331,319.364,40.754,319.364,41.212z"/>
	<path fill="#FFFFFF" d="M329.337,38.928c0-0.396-0.01-0.769-0.039-1.115c-0.023-0.346-0.034-0.663-0.034-0.948h1.373
		c0,0.235,0.008,0.472,0.021,0.706c0.01,0.237,0.015,0.479,0.015,0.725h0.037c0.099-0.211,0.24-0.415,0.416-0.612
		c0.186-0.197,0.395-0.375,0.645-0.529c0.248-0.155,0.526-0.279,0.835-0.372c0.31-0.092,0.643-0.14,1.004-0.14
		c0.1,0,0.197,0.007,0.299,0.017c0.099,0.016,0.198,0.04,0.297,0.077l-0.094,1.467c-0.249-0.075-0.507-0.111-0.779-0.111
		c-0.893,0-1.541,0.289-1.944,0.863c-0.399,0.576-0.603,1.366-0.603,2.367v4.237h-1.448V38.928z"/>
	<path fill="#FFFFFF" d="M335.875,31.515h1.448v9.177l3.958-3.828h2.062l-4.2,3.958l4.626,4.736h-2.137l-4.309-4.57v4.57h-1.448
		V31.515z"/>
</g>
<rect x="574.443" y="-34.599" fill="none" width="150" height="15.168"/>
<text transform="matrix(1 0 0 1 574.4434 -24.0151)"><tspan x="0" y="0" font-family="'Avenir-Medium'" font-size="12">Addis Ababa </tspan><tspan x="73.56" y="0" font-family="'Avenir-Medium'" font-size="14">New </tspan><tspan x="104.485" y="0" font-family="'Avenir-Medium'" font-size="14" letter-spacing="-1">York</tspan></text>
</svg>
