<?xml version="1.0" encoding="utf-8"?>
<!-- Generator: Adobe Illustrator 18.1.1, SVG Export Plug-In . SVG Version: 6.00 Build 0)  -->
<svg version="1.1" id="Layer_1" xmlns="http://www.w3.org/2000/svg" xmlns:xlink="http://www.w3.org/1999/xlink" x="0px" y="0px"
	 viewBox="-52 9 144.7 71" enable-background="new -52 9 144.7 71" xml:space="preserve">
<g>
	<polygon fill="#267BB2" points="-20.9,37.7 -47.4,80 -41.2,80 -11.4,32.4 	"/>
	<g>
		<path fill="#267BB2" d="M20,35.9c1.1,2,1.3,4.8,0.7,7.1c-0.7,2.7-3,5.4-5.6,6.5c-3,1.5-7.2,1.1-9.9-0.8C1.5,46.1,0,41.8,1.1,37.5
			c0.7-2.6,2.7-5.1,5.2-6.3c1.4-0.7,2.9-1.1,4.6-1.1C14.7,30.1,18.3,32.4,20,35.9z M11.1,30.6c0.1,0.4,0,0.9,0,1.4v-0.1
			c0.1,0,0.1,0,0.2,0.1c0,0.1,0,0.2,0,0.2c0.1,0,0.1,0,0.1,0c1.2,0.1,2.2,0.4,3.2,1l0,0c0.2-0.1,0.4-0.2,0.6-0.1
			c0.2-0.1,0.3,0.2,0.5,0.2c0.2,0.1,0.5,0.4,0.5,0.7c0.1,0.1,0.2,0.2,0.2,0.3c0.2-0.3,0.5-0.6,0.8-0.9l0.2-0.1
			c-1.5-1.5-3.3-2.3-5.4-2.5C11.8,30.7,11.4,30.7,11.1,30.6z M10.5,30.7c-2,0.1-3.8,0.8-5.4,1.9c-0.3,0.2-0.6,0.5-0.9,0.7l0,0
			C4.6,33.6,5,34,5.3,34.4v-0.1c1.5-1.3,3.2-2.1,5.2-2.2V32L10.5,30.7L10.5,30.7z M12.3,31.4l-0.7,0.3c-0.1,0-0.2-0.1-0.2,0v0.1
			c0.3,0.3,0.7,0.2,1.1,0.1c0.2,0.1,0.5,0,0.7-0.2l0,0C12.9,31.5,12.6,31.5,12.3,31.4z M11.1,32.7L11.1,32.7c0,0.6,0.1,1.1,0,1.5
			c0.2-0.1,0.4,0,0.6,0c1,0.2,1.9,0.5,2.7,1.1c-0.1-0.1-0.2-0.2-0.2-0.4c0,0,0,0,0.1,0c0-0.2-0.2-0.2-0.2-0.4c0,0,0.1-0.1,0.1,0
			c0.2,0.2,0.3,0.3,0.4,0.5c0.1,0,0.2,0,0.3,0.1c0.1,0.1,0.1,0.3,0.2,0.4c0,0.3,0.4,0.5,0.4,0.8c0,0.1,0.1,0,0.1,0.1l0.3,0.4
			c-0.1,0.1,0,0.2,0,0.2c0.1,0.1,0.2-0.1,0.4-0.1c0.2,0.1,0,0.2,0,0.4c0.1,0,0.2-0.1,0.2,0c0,0.1-0.1,0.2-0.1,0.3
			c0,0.1,0.1,0.1,0.2,0.1c0.1,0,0.1,0.1,0.1,0.2c0.2,0.3-0.1,0.5,0,0.8c0.1,0.2,0,0.4-0.1,0.5c0,0.2-0.2,0.4-0.3,0.5L16,39.8
			c-0.1,0.1,0.1,0.3,0,0.4h0.6l-0.1-0.1c-0.1-0.2-0.1-0.5,0.1-0.7c0.1-0.2,0.1-0.4,0.3-0.6c0,0,0.1-0.1,0.1,0c0,0.2,0,0.4-0.1,0.5
			c0.2,0.2,0.1,0.5,0.2,0.8c0.5,0,1,0,1.5,0V40c-0.1-0.9-0.3-1.8-0.7-2.6c-0.1,0-0.2,0.1-0.3,0.1l-0.1-0.1c-0.2-0.2-0.3-0.4-0.6-0.6
			c-0.3,0-0.4-0.3-0.6-0.3c-0.2-0.1-0.1-0.4-0.4-0.3c-0.1-0.1-0.3-0.2-0.3-0.3c0-0.3-0.1-0.5-0.3-0.7c-0.2-0.1-0.3,0.2-0.4,0.1
			c-0.1,0-0.1-0.2-0.1-0.3s-0.1-0.1-0.1-0.2c0.2-0.3-0.3-0.3-0.2-0.6c0-0.2-0.3-0.3-0.4-0.5c-0.8-0.4-1.6-0.6-2.4-0.7
			C11.5,32.8,11.3,32.8,11.1,32.7z M15.7,32.7c-0.1,0.1-0.2-0.1-0.3,0c0,0.1,0,0.1,0,0.1c0.2,0.1,0.2,0.4,0.5,0.3
			c0.1-0.1,0-0.2,0-0.3C15.9,32.8,15.8,32.7,15.7,32.7z M6.6,34.1c-0.3,0.2-0.6,0.5-0.9,0.7c0.4,0.2,0.7,0.6,1,0.9v0.1
			c0.9-0.8,1.9-1.3,3-1.5c0.3,0,0.5-0.1,0.8-0.1c0-0.5-0.1-1,0-1.5C9.1,32.8,7.8,33.3,6.6,34.1z M17.8,33.6c-0.3,0.4-0.7,0.7-1,1.1
			h-0.2c0.1,0,0.1,0.2,0.2,0.2c0.4,0.2,0.5,0.6,0.8,0.8c0.2,0.4,0.6,0.7,0.6,1.1c0.4,1,0.7,2,0.8,3.1V40h0.1h1.5
			c-0.1-0.1-0.1-0.3-0.1-0.5C20.3,37.2,19.3,35.3,17.8,33.6z M3.9,33.6c-1.4,1.6-2.3,3.4-2.6,5.5c-0.1,0.3,0,0.6-0.1,0.9
			c0.5,0,1.1,0,1.6,0v-0.2c0.1-1.6,0.6-3,1.5-4.3c0.2-0.3,0.4-0.6,0.7-0.8C4.7,34.4,4.3,34,3.9,33.6L3.9,33.6z M10.6,34.7L10.6,34.7
			c-1.4,0.1-2.5,0.7-3.5,1.5c0.4,0.3,0.7,0.7,1.1,1c0-0.1,0.1-0.1,0.1-0.1c0.5-0.3,1-0.7,1.5-0.8c0.3,0,0.5-0.1,0.8-0.1
			C10.5,35.7,10.5,35.2,10.6,34.7z M11.1,34.7L11.1,34.7l0.1,1.5h0.1c0.8,0.1,1.6,0.4,2.3,0.9v0.1c0.2-0.3,0.6-0.6,0.8-0.9l0.3-0.1
			l-0.1-0.1c-0.6-0.5-1.2-0.8-1.8-1C12.2,34.9,11.7,34.8,11.1,34.7z M5.3,35.1L5.3,35.1l-0.6,0.8c-0.8,1.2-1.2,2.6-1.4,4.2h1.4h0.1
			c-0.1,0,0-0.1-0.1-0.1c0.1-1.4,0.6-2.7,1.6-3.8C6,35.8,5.6,35.5,5.3,35.1z M15,36.5L15,36.5c-0.5,0.5-1,1-1.4,1.5
			c0,0.1,0.1,0.1,0.1,0.1c0-0.1,0.1-0.2,0.1-0.4c0.1-0.2,0.3-0.1,0.5,0c0.2-0.1,0.5,0.1,0.7,0.1c0.2,0.1,0.2,0.3,0.4,0.4
			c0,0.1,0,0.1-0.1,0.2c0.1,0.4,0.2-0.1,0.4,0c0.1,0,0.2,0,0.2,0.1c0,0.2,0.2,0.1,0.2,0.3c0,0.1-0.1,0.1-0.1,0.1
			c0,0.2-0.2,0.2-0.1,0.4c0.3,0.1,0.3-0.3,0.4-0.4c-0.1-0.3-0.1-0.5-0.3-0.8c-0.2,0-0.3-0.2-0.4-0.3c-0.3-0.1,0.1-0.3,0-0.5
			C15.5,37.1,15.2,36.8,15,36.5z M6.8,36.5c-0.7,0.8-1.2,1.7-1.4,2.8c-0.1,0.2,0,0.5-0.1,0.8c0.2-0.1,0.4,0,0.6,0
			c-0.1-0.1,0-0.2-0.1-0.3c0-0.1,0-0.3,0.1-0.4c0-0.2,0.2-0.3,0.2-0.5c0.1-0.2,0.3-0.1,0.4-0.2c0.1,0,0-0.1,0-0.2
			c0.1-0.1,0.3-0.1,0.4-0.2C7,38.2,7.1,38,7.2,37.9c0.3,0,0.3-0.4,0.6-0.4C7.5,37.3,7.1,36.9,6.8,36.5z M11.1,36.7
			c0.1,0.3,0,0.7,0.1,1l0.4,0.1c0.1-0.2,0.3-0.2,0.4-0.4c0.1-0.1,0.1,0,0.2,0.1c0,0.1,0,0.3-0.1,0.4c-0.1,0.3-0.5,0.3-0.6,0.5
			c0.1,0.1,0.2-0.1,0.3-0.1c0.1,0,0.3,0.1,0.3,0.2c0.1,0,0.2,0,0.3,0c0.1-0.4,0.6-0.4,0.7-0.8H13c0-0.1-0.1,0-0.1-0.1
			c0.1-0.1,0.2-0.2,0.3-0.2c-0.5-0.3-0.9-0.5-1.4-0.7C11.5,36.8,11.3,36.8,11.1,36.7z M8.4,37.8L8.4,37.8c0.2,0.1,0.4,0.1,0.5,0.3
			c0,0.1-0.1,0.1-0.1,0.2c0,0,0.1,0,0.1,0.1C9,38.4,9,38.3,9,38.3c0.2-0.3,0.2,0,0.3,0c0.1-0.1,0.2-0.1,0.3,0c0.1-0.1,0.3,0,0.3-0.1
			c0.2-0.2,0.1-0.4,0.3-0.5c0.1,0,0,0.1,0,0.2c0.2,0.1,0.3-0.1,0.5,0c-0.1-0.3-0.1-0.7-0.1-1.1C9.8,36.8,9,37.1,8.4,37.8z
			 M10.9,38.6c-0.1-0.1-0.3,0-0.4,0c0.1,0.1,0.1,0.3,0.1,0.4c-0.2,0.3-0.4,0.3-0.6,0.4c-0.1,0.1-0.1,0.3-0.2,0.2
			c0,0.1-0.2,0.2-0.2,0.3c-0.1,0.2,0,0.4-0.1,0.6c-0.3,0.2-0.2-0.2-0.3-0.3v0.1c-0.1,0-0.1,0-0.1-0.1c0,0-0.1,0-0.2,0
			c-0.1,0.1-0.2,0.2-0.1,0.4c0,0.1-0.2,0.1-0.2,0.2c0.2,0,0.3,0,0.5-0.1c0.1,0,0.2-0.1,0.3-0.1l0.1,0.1l0,0c0.1-0.1,0.1-0.2,0.1-0.2
			c0-0.1,0.1-0.1,0.2-0.1s0,0.1,0,0.1c0.2,0.1-0.1,0.3-0.1,0.4c-0.1,0.1,0,0.3-0.2,0.3c0,0-0.1,0,0-0.1l0,0c0,0.1,0.1,0.2,0.1,0.2
			C9.7,41.2,9.7,41,9.9,41c0.1-0.1,0-0.3,0.1-0.4c0.3,0,0.5-0.1,0.8,0.1c0,0.1,0,0.1,0,0.2c-0.1,0.1-0.1,0.2-0.2,0.3
			c0,0.1,0,0.1-0.1,0.2c-0.1,0.3-0.4,0.2-0.6,0.3c0.3,0.2,0.7,0.3,1.1,0.3c0.2,0,0.1-0.3,0.2-0.4c0.1-0.4,0.4-0.1,0.6-0.2
			c0.1-0.2,0.1-0.3,0.2-0.5c-0.1-0.1-0.2-0.2-0.1-0.4c-0.1-0.1-0.1-0.3-0.3-0.4V40c0-0.1,0.1-0.1,0.1-0.2c-0.1-0.1-0.1-0.2-0.1-0.3
			c-0.2,0.1-0.2-0.2-0.4-0.3c0-0.1-0.2-0.1-0.3-0.2c-0.2,0.1-0.3-0.2-0.5-0.3c0-0.1-0.1-0.1,0-0.2C10.7,38.6,10.8,38.6,10.9,38.6
			L10.9,38.6z M6.5,39.8c-0.4,0.1,0.1,0.4,0,0.7c-0.1,0.1-0.2,0-0.3,0.1v0.3c-0.1,0.2-0.3,0-0.3,0.1c-0.1,0.1,0,0.2,0.1,0.3
			c-0.1,0.3,0.3,0.4,0.3,0.7c0.1,0.2,0,0.4,0.2,0.6c0,0.3,0,0.8,0.2,1l0.1,0.3C6.9,44,6.5,44,6.6,44.2c0.1,0,0.1,0,0.1,0.1l0,0
			c0.4-0.5,0.8-0.9,1.3-1.3l-0.2-0.2c-0.6-0.6-0.9-1.1-1-1.8H6.6c0,0.2-0.1,0.3-0.1,0.4v0.1c-0.1,0-0.2-0.1-0.3-0.1
			c0-0.1-0.1-0.1,0-0.2h0.1c0-0.1,0-0.1,0.1-0.2c0-0.1-0.1-0.2,0-0.3c0.1,0,0.2,0.1,0.2,0.2c0.1,0,0.2,0,0.3-0.1
			c0-0.1,0.1-0.2,0-0.3c0.1-0.2,0-0.4,0-0.6C6.8,39.8,6.6,39.8,6.5,39.8z M15.9,40L15.9,40C15.8,40,15.9,40,15.9,40z M15.6,40.5
			l0.2,0.2c0.2,0.1,0.1,0.3,0.2,0.4c0.2,0.1,0.3,0.3,0.4,0.5v-0.1c0.1-0.3,0.1-0.6,0.1-0.9C16.2,40.6,15.9,40.6,15.6,40.5z
			 M19.1,40.6L19.1,40.6L19.1,40.6c-0.1,1.8-0.7,3.2-1.6,4.6c-0.2,0.2-0.4,0.5-0.6,0.7c0.4,0.3,0.8,0.8,1.1,1.1v-0.1
			c1.5-1.8,2.4-3.8,2.5-6.2l0.1-0.1h-0.1H19.1z M17,40.5c0,0.3-0.1,0.6-0.1,0.9l0.2,0.2c0,0.1,0,0.2,0,0.2c-0.1,0-0.2,0-0.2,0
			c-0.2,0.7-0.5,1.3-0.9,1.9c-0.2,0.2-0.3,0.5-0.5,0.6l0.5,0.4v-0.1c0-0.1,0-0.1,0.1-0.1c0.2,0,0.2,0.2,0.4,0.4
			c0,0.2,0.1,0.3,0.1,0.5c1.3-1.3,1.9-3,2-4.8l0.1-0.1c-0.5,0-0.9,0-1.4,0L17,40.5z M5.3,40.6L5.3,40.6c0.1,0.4,0.2,0.7,0.2,1.1
			c0.1-0.1,0.1-0.2,0.2-0.3c0-0.1-0.1-0.1-0.1-0.2c0.1-0.2,0-0.5,0.2-0.6C5.6,40.6,5.4,40.7,5.3,40.6z M2.8,40.6L2.8,40.6l-1.5,0.1
			c0.1,1.6,0.5,3.1,1.2,4.4c0.4,0.7,0.9,1.3,1.3,1.9l1-1l0.1-0.1c-0.2-0.1-0.3-0.3-0.5-0.5c-0.2,0-0.3-0.2-0.4-0.3
			c-0.1-0.1,0-0.2-0.1-0.2l-0.1,0.1c-0.2,0.1-0.2-0.1-0.4-0.2c-0.2-0.1-0.1-0.4-0.3-0.3c0.1-0.1,0.1-0.2,0.1-0.2C3,44.2,3,44,2.8,44
			c0,0,0,0.1-0.1,0.1c-0.2,0-0.3-0.2-0.4-0.3c0,0-0.1,0.1-0.1,0C2.1,43.7,2,43.5,2,43.4c-0.2-0.2-0.1-0.5-0.1-0.7
			c0-0.1,0.1-0.1,0.1-0.2c0-0.1,0.2-0.1,0.3-0.1l0.1,0.1c0.1,0,0.2,0,0.2-0.1c0.1-0.1,0.2-0.1,0.3-0.1C3,42.4,3,42.5,3.1,42.6
			L3,42.5c-0.1-0.5-0.2-1-0.2-1.5c0,0-0.1,0,0-0.1l0,0C2.8,40.8,2.8,40.7,2.8,40.6z M4.8,40.6L4.8,40.6c-0.6,0.1-1.1,0.1-1.5,0.1
			l0.1,0.1l0.1,0.9c0,0.4,0.2,0.7,0.2,1.1c0.1-0.1,0-0.2,0.2-0.2c-0.1-0.1,0.1-0.2,0-0.3c0-0.2,0.1-0.5,0.3-0.7
			c0.3,0,0.3-0.3,0.5-0.4c0.1,0,0.2,0.2,0.3,0.2C4.8,41.1,4.8,40.8,4.8,40.6z M7.4,41.2c0.1,0.3,0.2,0.6,0.4,0.8
			c0.1,0.2,0.3,0.4,0.4,0.6c0.1-0.2,0.3-0.3,0.4-0.5c0-0.1,0-0.1-0.1-0.2c0-0.1,0-0.3-0.1-0.3c-0.1,0,0,0.2,0,0.3
			c-0.1,0-0.1,0-0.1-0.1c-0.1,0-0.2-0.1-0.2-0.2c0.1-0.1,0-0.1-0.1-0.1H7.9H7.8C7.8,41.2,7.5,41.3,7.4,41.2z M9,41.6
			c0,0.1-0.1,0.2-0.2,0.3l0,0c0.1-0.1,0.2-0.2,0.4-0.3H9z M13,42c0,0.1,0,0.2,0.1,0.2c0.2,0,0.1,0.2,0.3,0.2c0.1,0,0-0.1,0-0.2
			C13.4,42,13.2,42,13,42l0.1-0.2C13,41.9,13,42,13,42z M15.8,42c-0.1,0-0.3,0.1-0.4,0c0,0-0.1,0-0.1,0.1c-0.1,0.1-0.1,0.2-0.2,0.1
			C15,42.2,15,42.1,15,42c0,0.1,0,0.1,0,0.2c-0.1,0.1-0.1,0.2-0.2,0.3c-0.1,0.1-0.3,0.1-0.4,0.2c0,0.2-0.3,0.2-0.4,0.3
			c0,0,0,0,0,0.1c0.1,0,0.2,0,0.2-0.1c0.2,0.1,0.2-0.2,0.3-0.3c0.1,0,0.2-0.1,0.3,0c0.1,0.1,0.1,0.3,0.1,0.5
			c-0.1,0.1-0.1,0.3-0.1,0.5s-0.2,0.2-0.2,0.4c-0.1,0.1-0.2,0.1-0.3,0.1C13.9,44,13.5,44,13,43.9c0,0-0.1,0-0.1,0.1
			c0.2,0.1,0.4,0.1,0.6,0.2c0.2,0,0.3,0.3,0.5,0.2c0.2-0.1,0.5,0.1,0.6-0.1c0-0.2,0.1-0.3,0.2-0.5h0.1C15,43.9,15,44,15,44.1
			c0.1-0.2,0.3-0.3,0.4-0.5c0.3-0.5,0.6-1,0.7-1.6C16.1,42,15.9,42,15.8,42z M9.5,42c-0.2,0.4-0.6,0.7-0.9,1
			c0.5,0.4,1.1,0.7,1.8,0.8c0-0.1,0-0.3,0.1-0.4c0.1-0.1,0.2-0.1,0.3-0.1c0.1,0,0.1-0.1,0.1-0.1c-0.1,0-0.1-0.2-0.1-0.3
			c0,0,0.1,0,0.1-0.1c-0.1-0.1,0.1-0.2,0-0.3l0.1-0.1c-0.3,0.2-0.7,0-0.9-0.2C9.7,42.3,9.5,42.2,9.5,42z M12.4,42.9
			C12.4,42.9,12.3,43,12.4,42.9c0.1,0,0.4,0,0.4-0.2C12.6,42.7,12.5,42.8,12.4,42.9z M13,43.3c-0.2,0-0.2,0.1-0.4,0.2
			c-0.1,0.1-0.2-0.2-0.3-0.1l0,0v0.1c-0.2,0.2-0.3-0.1-0.4-0.1v0.1c0,0,0,0.1-0.1,0.1c-0.1-0.2-0.3-0.1-0.4-0.3
			c-0.1,0-0.1,0-0.2,0.1c0,0.1-0.2,0-0.2,0.1c-0.1,0-0.1,0.2-0.2,0.3c-0.2,0-0.2,0.1-0.4,0.1V44c0.1,0,0.2,0,0.3,0
			c0.2-0.2,0.4,0,0.6-0.1c0.1,0,0,0.2,0.1,0.2c0.2-0.1,0.4,0.2,0.5,0c0-0.2,0.3-0.2,0.4-0.3C12.8,43.8,13,43.6,13,43.3L13,43.3z
			 M8.1,43.4c-0.3,0.4-0.7,0.7-1,1c0.2,0,0.2,0.2,0.4,0.3c0.7,0.6,1.7,0.9,2.5,1.2l-0.2-0.1c-0.2-0.2-0.4-0.4-0.4-0.7
			c0.2-0.1,0.2-0.3,0.2-0.4c0.2-0.2,0.3-0.2,0.5-0.3c-0.5,0.2-1-0.2-1.4-0.4C8.5,43.8,8.2,43.7,8.1,43.4z M15.1,44.7L15.1,44.7
			c-0.1,0-0.2,0.1-0.3,0.2c0,0.1,0,0.2,0.1,0.3c0.2,0.1,0.5,0.2,0.5,0.4c-0.1,0.2-0.5,0.4-0.2,0.7c0.1,0.1-0.1,0.2-0.1,0.3l0.1-0.1
			c0.3-0.2,0.6-0.5,0.9-0.8l0,0c-0.1,0-0.1,0-0.2,0c-0.1-0.1-0.2-0.2-0.2-0.3L15.1,44.7z M7,44.9L7,44.9L7,44.9L7,44.9z M7.2,45.1
			c-0.1,0-0.1-0.1-0.1-0.2L7.2,45.1z M7.2,45.2c0,0.1,0.2,0.2,0.1,0.3S7,45.6,6.9,45.6c-0.3,0-0.5,0.2-0.8,0.2
			c-0.2,0.1-0.3-0.2-0.6-0.2c1.4,1.2,3,2,4.9,2.1l0.1,0.1l-0.1-0.2v-1.3h-0.1C9.2,46.3,8.1,45.9,7.2,45.2z M16.5,46.1L16.5,46.1
			c-0.1,0.2-0.5,0.4-0.7,0.6c-0.3,0.3-0.9,0.4-1,0.9c-0.2,0.2-0.2,0.4-0.5,0.5c-0.1,0.2-0.4,0.2-0.5,0.4c-0.4,0.4-0.7-0.2-1.1-0.3
			l-0.8,0.1c-0.3,0-0.5,0.1-0.8,0c0,0.5,0,1.1,0,1.6l0.1-0.1c2.4-0.1,4.5-1,6.3-2.7L16.5,46.1z M5.3,46.1L5.3,46.1l-1.1,1.1
			c1.6,1.4,3.4,2.2,5.4,2.5c0.3,0.1,0.7,0,1,0.1l-0.1-0.1v-1.4l0.1-0.1h-0.2C8.5,48.2,6.7,47.5,5.3,46.1z M11.1,46.5L11.1,46.5
			c0.1,0.5,0.2,0.9,0.1,1.3c0.4-0.1,0.8-0.1,1.2-0.2c-0.1,0-0.2,0-0.2-0.1c-0.2,0-0.3-0.3-0.4-0.4c0-0.1,0.1-0.2,0.1-0.4
			c-0.1-0.2-0.4-0.1-0.6-0.1C11.2,46.5,11.1,46.5,11.1,46.5z"/>
		<g>
			<path fill="#267BB2" d="M20.4,32.1c0.7,0.7,1.1,1.5,1.3,2.4l0.1,0.3c-1.1-0.8-2-1.8-2.7-2.9L18.2,31
				C18.9,31.3,19.7,31.5,20.4,32.1z"/>
			<path fill="#267BB2" d="M1.6,33.4c-0.5,0.6-1.1,1-1.7,1.5c0.3-0.6,0.3-1.4,0.8-1.9c0.6-1.1,1.7-1.4,2.8-1.8
				C2.7,31.8,2.1,32.6,1.6,33.4z"/>
			<path fill="#267BB2" d="M23,34.5c0.2,1.1-0.1,2.1,0.1,3.2l0,0c-0.6-1.1-1.8-1.7-2.6-2.6c-0.5-0.5-0.7-1.2-0.8-1.9
				c0.5,1.2,1.8,1.4,2.5,2.4c0.3,0.2,0.3,0.5,0.5,0.8l0,0c-0.4-0.9-0.6-2-0.9-2.9c-0.2-0.4-0.4-0.8-0.8-1.1
				C21.9,32.5,22.8,33.5,23,34.5z"/>
			<path fill="#267BB2" d="M0.7,32.5c-1,0.7-0.9,1.9-1.3,2.9c-0.1,0.4-0.3,0.7-0.4,1.1l0,0c0.2-0.4,0.5-0.9,0.8-1.2
				c0.7-0.7,1.8-1.1,2.1-2c0,1.3-1.1,2.4-2.2,3.2c-0.4,0.4-0.9,0.8-1.1,1.3c0-0.3,0-0.7,0-1c-0.1-1.2-0.2-2.5,0.6-3.4
				C-0.3,32.9,0.2,32.6,0.7,32.5z"/>
			<path fill="#267BB2" d="M23.6,34.7c0.9,1.2,1.1,3.1,0.4,4.5c-0.2,0.6-0.4,1.2-0.5,1.9c0-0.1-0.1-0.3-0.1-0.4
				c-0.3-1.4-1.6-2.3-2.2-3.6c-0.2-0.4-0.3-0.9-0.4-1.3c0.6,1,2,1.6,2.3,2.7c0.2,0.3,0.1,0.7,0.2,1l0,0c-0.2-1.2-0.1-2.4,0-3.6
				c0-0.6-0.1-1.3-0.4-1.7C23.4,34.3,23.5,34.5,23.6,34.7z"/>
			<path fill="#267BB2" d="M-1.5,34.3c-0.8,1.2-0.1,2.6-0.2,4l-0.1,1.4c0,0,0,0,0.1,0c0-0.1,0.1-0.3,0.1-0.5c0.2-1.1,1.1-1.9,2-2.6
				c0.2-0.2,0.3-0.4,0.4-0.6c-0.1,0.5-0.2,1.1-0.5,1.6c-0.6,1.3-1.8,2.3-2.1,3.7c-0.1-1.4-1-2.4-1-3.9C-2.7,36.2-2.2,35.3-1.5,34.3
				C-1.5,34.4-1.5,34.3-1.5,34.3z"/>
			<path fill="#267BB2" d="M24.4,42.6c-0.5,0.8-1.2,1.5-1.7,2.2c0.1-0.6,0.1-1.4-0.1-1.9c-0.4-1.2-0.8-2.5-0.9-3.8v-0.5
				c0.3,1.4,1.7,2.3,1.6,3.9c0,0.4-0.1,0.7-0.2,1l0,0l0.1-0.1c0.2-0.8,0.3-1.6,0.6-2.3c0.4-1,1-2.1,0.8-3.3
				C25.4,39.3,25.2,41.2,24.4,42.6z"/>
			<path fill="#267BB2" d="M-1.9,42.1c0.1,0.5,0.2,1.1,0.4,1.5c0,0,0,0,0.1,0c-0.5-1.5,0.2-2.8,1-3.9c0.2-0.3,0.3-0.6,0.4-1
				c0.1,0.7-0.1,1.4-0.2,2.1c-0.2,0.9-0.5,1.7-0.7,2.5c-0.2,0.5-0.1,1.1,0,1.7L-1,44.8c-0.6-1-1.6-1.8-2-2.9
				c-0.3-0.9-0.4-1.9-0.3-2.9c0.1-0.4,0.2-0.8,0.3-1.1C-3.3,39.6-2.2,40.7-1.9,42.1z"/>
			<path fill="#267BB2" d="M22.4,44.9c0,0.7-0.3,1.3-0.6,1.8h0.1c0.5-0.6,0.9-1.3,1.4-1.9c0.9-0.8,1.8-1.7,1.9-2.9
				c0.3,2-0.8,3.7-2.4,4.8c-0.7,0.4-1.4,0.8-2,1.3v0c1-1.6,0.5-3.9,1.1-5.7l0.2-0.6C21.9,42.9,22.4,43.8,22.4,44.9z"/>
			<path fill="#267BB2" d="M0.7,47.1c0.1,0.4,0.3,0.7,0.5,1.1c-1.5-1-3.6-2-4.2-3.9c-0.3-0.6-0.3-1.4-0.3-2.2
				c0.1,1.7,1.9,2.6,2.8,3.9c0.2,0.3,0.4,0.6,0.6,0.8c0-0.2-0.2-0.3-0.3-0.5c-0.3-0.6-0.4-1.3-0.3-2c0.1-0.9,0.4-1.6,0.3-2.5
				C0.5,43.5,0.3,45.4,0.7,47.1z"/>
			<path fill="#267BB2" d="M20.1,48.3c-0.3,0.4-0.6,0.9-1,1.2c0.1,0,0.2-0.1,0.4-0.2c1.1-1.1,2.5-1.4,3.7-2.3
				c0.5-0.4,0.9-0.9,1.1-1.4c-0.2,1.8-2,3.5-3.7,4c-0.9,0.2-1.8,0.3-2.6,0.6c1.4-1.2,1.3-3.1,2.3-4.6c0.3-0.4,0.6-0.8,0.9-1.2
				C20.5,45.7,20.8,47.2,20.1,48.3z"/>
			<path fill="#267BB2" d="M2.1,46.8C2.6,48,2.8,49.4,4,50.4c-1.3-0.4-2.8-0.3-3.9-1.1c-1.2-0.7-2.3-2-2.5-3.4
				c0.8,1.9,2.9,2.1,4.3,3.2c0.3,0.2,0.5,0.4,0.8,0.6l0,0c-0.3-0.3-0.7-0.6-0.9-1c-0.8-1.1-0.5-2.8-1.2-4
				C1.3,45.4,1.8,46.1,2.1,46.8z"/>
			<path fill="#267BB2" d="M17.1,50.5c-0.3,0.2-0.7,0.2-1,0.4c0.5,0,0.9-0.2,1.3-0.2c1.7-0.3,3.6,0,4.7-1.4c-0.4,1-1.5,1.8-2.5,2.2
				c-1.7,0.6-3.4-0.1-5-0.4L14.2,51l0,0c0.8-0.2,1.5-0.4,2.2-1c0.9-0.9,1.7-1.8,2.7-2.5C18.4,48.5,18.3,49.9,17.1,50.5z"/>
			<path fill="#267BB2" d="M5.4,50.1c0.6,0.6,1.4,0.8,2.2,1c-0.2,0.1-0.5,0.1-0.7,0.1c-1.5,0.4-3.1,1-4.7,0.4
				c-1-0.3-2.1-1.1-2.6-2.1c1.3,1.5,3.5,1,5.3,1.4c0.2,0,0.5,0.1,0.8,0.1c-0.2-0.1-0.5-0.1-0.7-0.2c-1.4-0.5-1.6-2-2.4-3
				C3.7,48.3,4.5,49.2,5.4,50.1z"/>
			<path fill="#267BB2" d="M16.4,52.1c1.1,0.4,2.5,0.3,3.4-0.4c-0.5,0.6-1.1,1-1.8,1.3c-1.5,0.6-3.1,0-4.3-0.9
				c-0.5-0.3-0.9-0.7-1.5-0.7c-0.2,0-0.4,0-0.6,0.1c1.1,0.5,2.2,1.3,3.2,2.2c-0.2,0.2-0.4,0.4-0.6,0.5c-0.9-1-2-2-3.1-2.6
				c-0.2,0-0.4,0.2-0.7,0.3c-0.9,0.6-1.9,1.4-2.6,2.3l-0.6-0.5c1-1,2-1.7,3.2-2.3C9.3,51,8.5,52,7.6,52.5c-1,0.7-2.5,1-3.7,0.6
				c-0.7-0.3-1.3-0.6-1.8-1.2c1,0.7,2.4,0.7,3.5,0.3c1.5-0.6,3-1.5,4.8-1.1c0.3,0,0.6,0.3,0.8,0c1.3-0.3,2.8-0.1,4,0.5L16.4,52.1z"
				/>
		</g>
	</g>
	<g>
		<polygon fill="#FFFFFF" points="-49.5,37.7 -44.8,39.3 -21.9,39.3 -20.9,37.7 		"/>
		<path fill="#267BB2" d="M-20.9,37.7H-52H-20.9z"/>
		<polygon fill="#267BB2" points="-21.9,39.3 -21.8,39.3 -20.8,37.7 -20.9,37.7 		"/>
		<path fill="#267BB2" d="M-48.8,32.4c-1,1.7-2.2,3.7-3.2,5.3h31.1l0,0h1.5l-1.3,2.5h-1.8l-25,39.8h6.3l29.9-47.6H-48.8L-48.8,32.4z
			"/>
		<g>
			<g>
				<path fill="#267BB2" d="M-19.4,37.7h-1.5H-52l6.9,2.5h22.6h1.8L-19.4,37.7z M-21.8,39.3L-21.8,39.3h-23l-4.7-1.6h28.6h0.1
					L-21.8,39.3z"/>
			</g>
		</g>
	</g>
	<path fill="#267BB2" d="M10.9,9.1c-8.8,0-16.8,3.6-22.6,9.3l2.6,5.9l0,0l0,0H-3c3.8-3.1,8.6-5,13.9-5c12.1,0,21.9,9.8,21.9,21.9
		S23,63,10.9,63C4.8,63-0.8,60.6-5,56.2c-3.9-4.1-6-9.5-6-15.1c0-1.9,0.2-3.7,0.7-5.4l-0.3-3.5h-2.3v1.1h1.3l0.2,2.3
		c-0.4,1.8-0.7,3.6-0.7,5.5c0,5.9,2.2,11.5,6.3,15.8c4.4,4.6,10.3,7.2,16.7,7.2c12.7,0,23-10.3,23-23s-10.3-23-23-23
		c-5.2,0-10.2,1.8-14.3,5h-2.2h-2h-0.6C-3.4,18.1,3.4,15,10.9,15c14.5,0,26.3,11.8,26.3,26.3S25.4,67.5,10.9,67.5
		c-7.3,0-14.1-2.9-19.1-8.2c-3.8-4-6.2-9-6.9-14.3l-4.4,6.9c1.5,4.2,3.8,8.1,7,11.4c6.1,6.5,14.4,10,23.4,10
		c17.7,0,32.2-14.4,32.2-32.2C43.1,23.5,28.6,9.1,10.9,9.1z"/>
	<g>
		<path fill="#267BB2" d="M-15.3,43.6l-20.4,32.2l-4.5,2.5l0,0l-1,1.7l6.3-3.5l19.8-31.6C-15.2,44.5-15.2,44-15.3,43.6z"/>
	</g>
</g>
<g>
	<path fill="#267BB2" d="M53.2,20.5c1.7,0.4,3.5,1.1,3.4,3.6c-0.1,2.1-2,3.1-3.7,3.1c-1.5,0-3-0.8-3.6-2.5l1.4-0.7
		c0.5,1.1,1.4,1.6,2.3,1.6c1.1,0,1.8-0.6,1.9-1.5c0.1-1.3-1.2-1.7-2.1-2c-1.4-0.4-3.2-1.1-3.2-3.3c0-2.1,1.8-3.1,3.5-3.1
		c1.4,0,2.8,0.8,3.4,2.4l-1.4,0.6c-0.4-1-1.2-1.5-2-1.5s-1.6,0.5-1.7,1.5C51.3,19.8,52.4,20.3,53.2,20.5z"/>
	<path fill="#267BB2" d="M61.1,26.9c-1.8,0.2-3.2-0.6-3.2-2.5v-4H57v-1.5h0.9v-3h1.7v3h1.5v1.5h-1.5v4c0,0.6,0.5,1.1,1.5,1V26.9z"/>
	<path fill="#267BB2" d="M63.7,18.9l0.1,0.8c0.5-0.9,1.3-1,1.9-1c0.5,0,1.3,0.2,1.8,0.5l-0.7,1.4c-1.2-0.8-2.9-0.3-2.9,1.3v5h-1.7
		v-8C62.2,18.9,63.7,18.9,63.7,18.9z"/>
	<path fill="#267BB2" d="M71.5,27.1c-2.4,0-4.1-1.8-4.1-4.1c0-2.3,1.8-4.1,4.1-4.1c2.4,0,4.1,1.8,4.1,4.1
		C75.6,25.2,73.8,27.1,71.5,27.1z M71.5,25.5c1.2,0,2.4-0.8,2.4-2.6c0-1.8-1.2-2.6-2.4-2.6c-1.2,0-2.4,0.8-2.4,2.6
		C69,24.7,70.3,25.5,71.5,25.5z"/>
	<path fill="#267BB2" d="M76.8,19.3c1.2-0.4,2.2-0.5,3.2-0.5c2.2,0,4,1,4,3.6V27h-1.7v-4.5c0-1.6-1.2-2.1-2.5-2.1
		c-0.4,0-0.9,0.1-1.4,0.2V27h-1.7L76.8,19.3L76.8,19.3z"/>
	<path fill="#267BB2" d="M92.5,26.5c0,2.3-1.7,3.4-3.4,3.5c-1.3,0-2.5-0.4-3.5-1.4l0.9-1.1c0.6,0.6,1.7,1,2.6,1s1.7-0.5,1.7-1.7
		c-0.4,0.2-0.9,0.3-1.4,0.3c-2.7,0-4.2-2.1-4.1-4.2c0-2,1.5-4.1,4.1-4.1c0.9,0,2,0.1,3.1,0.5L92.5,26.5L92.5,26.5z M87,22.8
		c0,1.3,0.8,2.6,2.5,2.6c0.5,0,1-0.1,1.4-0.2c0-1.7,0-3.2,0-4.9c-0.5-0.1-1-0.1-1.5-0.1C87.8,20.3,87,21.6,87,22.8z"/>
	<path fill="#267BB2" d="M51.8,29.3V37c0,1.3,1,1.9,2,1.9c1,0,2-0.5,2-1.9v-7.7h1.8V37c0,2.5-1.9,3.5-3.8,3.5c-1.9,0-3.8-1-3.8-3.5
		v-7.7H51.8z"/>
	<path fill="#267BB2" d="M65.5,36.4l0.8,1.6l0,0l-0.2-2v-6.7h1.8v11h-2.1l-4.1-7.2l-0.8-1.6l0,0l0.2,2v6.7h-1.8v-11h2.1L65.5,36.4z"
		/>
	<path fill="#267BB2" d="M69.5,40.3v-1.9h1.9v1.9H69.5z"/>
	<path fill="#267BB2" d="M55.6,47.6c1.2,0.5,1.8,1.7,1.8,2.6c0,2.3-1.8,3.3-3.8,3.3h-3.4v-11h3.5c1.8,0,3.3,1.1,3.3,3
		C56.8,46.3,56.4,47.2,55.6,47.6z M53.6,47c1.1,0,1.6-0.7,1.6-1.4c0-0.7-0.5-1.4-1.6-1.4h-1.7V47H53.6L53.6,47z M51.9,48.5v3.3h1.7
		c1.4,0,2-0.8,2-1.6s-0.6-1.7-2-1.7H51.9z"/>
	<path fill="#267BB2" d="M64.5,51.1l1.2,0.8c-0.9,1.2-2.1,1.8-3.4,1.8c-2.7,0-4.1-2.1-4.1-4.1s1.4-4.1,4-4.1c2.3,0,3.9,1.7,3.9,3.9
		c0,0.2,0,0.5-0.1,0.9h-6.2c0.2,1,1,1.9,2.3,1.9C63,52.1,63.8,52,64.5,51.1z M64.5,48.8c-0.2-1.2-1-1.9-2.2-1.9
		c-1.3,0-2.1,0.8-2.3,1.9H64.5z"/>
	<path fill="#267BB2" d="M70.7,53.5c-1.8,0.2-3.2-0.6-3.2-2.5v-4h-0.9v-1.5h0.9v-3h1.7v3h1.5V47h-1.5v4c0,0.6,0.5,1.1,1.5,1V53.5
		L70.7,53.5z"/>
	<path fill="#267BB2" d="M74.8,53.5c-1.8,0.2-3.2-0.6-3.2-2.5v-4h-0.9v-1.5h0.9v-3h1.7v3h1.5V47h-1.5v4c0,0.6,0.5,1.1,1.5,1V53.5
		L74.8,53.5z"/>
	<path fill="#267BB2" d="M81.4,51.1l1.3,0.8c-0.9,1.2-2.1,1.8-3.4,1.8c-2.7,0-4.1-2.1-4-4.1c0-2,1.4-4.1,4-4.1
		c2.3,0,3.9,1.7,3.9,3.9c0,0.2,0,0.5-0.1,0.9h-6.2c0.2,1,1,1.9,2.3,1.9C79.9,52.1,80.7,52,81.4,51.1z M81.4,48.8
		c-0.2-1.2-1-1.9-2.2-1.9c-1.3,0-2.1,0.8-2.3,1.9H81.4z"/>
	<path fill="#267BB2" d="M85.8,45.6l0.1,0.8c0.5-0.9,1.3-1,1.9-1c0.5,0,1.3,0.2,1.8,0.5l-0.7,1.4c-1.2-0.8-2.8-0.3-2.8,1.3v5h-1.7
		v-8H85.8L85.8,45.6z"/>
	<path fill="#267BB2" d="M55.8,61.4l-1.5,5.5h-2.2l-2.9-11h1.9l1.9,7.6l0.2,1.9l0,0l0.3-1.9l1.6-6.3h2l1.6,6.3l0.3,1.9h0.2l0.2-1.9
		l1.9-7.6h1.9l-2.9,11H58l-1.5-5.5l-0.4-2.1H56L55.8,61.4z"/>
	<path fill="#267BB2" d="M66.9,67.1c-2.4,0-4.1-1.8-4.1-4.1c0-2.3,1.8-4.1,4.1-4.1c2.4,0,4.1,1.8,4.1,4.1
		C71,65.2,69.3,67.1,66.9,67.1z M66.9,65.5c1.2,0,2.4-0.8,2.4-2.6c0-1.8-1.2-2.6-2.4-2.6c-1.2,0-2.4,0.8-2.4,2.6
		C64.4,64.7,65.7,65.5,66.9,65.5z"/>
	<path fill="#267BB2" d="M73.7,58.9l0.1,0.8c0.5-0.9,1.3-1,1.9-1c0.5,0,1.3,0.2,1.8,0.5l-0.7,1.4c-1.2-0.8-2.9-0.3-2.9,1.3v5h-1.7
		v-8H73.7L73.7,58.9z"/>
	<path fill="#267BB2" d="M81,66.9c-1.9,0.2-2.9-0.6-2.9-2.4V56h1.7v8.5c0,0.6,0.2,1,1.2,0.9L81,66.9L81,66.9z"/>
	<path fill="#267BB2" d="M88.6,55.9v10.6c-1.1,0.4-2.2,0.5-3.1,0.5c-2.7,0-4.2-2-4.1-4.1c0-2.7,2.5-5,5.6-3.9v-3.1
		C86.9,55.9,88.6,55.9,88.6,55.9z M86.9,65.4v-4.8C84.9,59.7,83,61,83,63c0,1.2,0.8,2.6,2.5,2.6C86,65.6,86.4,65.5,86.9,65.4z"/>
	<path fill="#267BB2" d="M90.5,66.9V65h1.9v1.9H90.5z"/>
</g>
</svg>
