<?xml version="1.0" encoding="utf-8"?>
<!-- Generator: Adobe Illustrator 18.1.1, SVG Export Plug-In . SVG Version: 6.00 Build 0)  -->
<svg version="1.1" id="Layer_1" xmlns="http://www.w3.org/2000/svg" xmlns:xlink="http://www.w3.org/1999/xlink" x="0px" y="0px"
	 viewBox="175 192.9 473.2 352.7" enable-background="new 175 192.9 473.2 352.7" xml:space="preserve">
<g>
	<g>
		<path fill="#267BB2" d="M533.3,326.2c5.5,10,6.5,23.9,3.5,35.3c-3.5,13.4-14.9,26.9-27.9,32.3c-14.9,7.5-35.8,5.5-49.3-4
			c-18.4-12.9-25.9-34.3-20.4-55.7c3.5-12.9,13.4-25.4,25.9-31.3c7-3.5,14.4-5.5,22.9-5.5C506.9,297.3,524.8,308.8,533.3,326.2z
			 M489,299.8c0.5,2,0,4.5,0,7v-0.5c0.5,0,0.5,0,1,0.5c0,0.5,0,1,0,1c0.5,0,0.5,0,0.5,0c6,0.5,10.9,2,15.9,5l0,0c1-0.5,2-1,3-0.5
			c1-0.5,1.5,1,2.5,1c1,0.5,2.5,2,2.5,3.5c0.5,0.5,1,1,1,1.5c1-1.5,2.5-3,4-4.5l1-0.5c-7.5-7.5-16.4-11.4-26.9-12.4
			C492.5,300.3,490.5,300.3,489,299.8z M486,300.3c-10,0.5-18.9,4-26.9,9.5c-1.5,1-3,2.5-4.5,3.5l0,0c2,1.5,4,3.5,5.5,5.5v-0.5
			c7.5-6.5,15.9-10.4,25.9-10.9v-0.5V300.3L486,300.3z M495,303.8l-3.5,1.5c-0.5,0-1-0.5-1,0v0.5c1.5,1.5,3.5,1,5.5,0.5
			c1,0.5,2.5,0,3.5-1l0,0C497.9,304.3,496.5,304.3,495,303.8z M489,310.3L489,310.3c0,3,0.5,5.5,0,7.5c1-0.5,2,0,3,0
			c5,1,9.5,2.5,13.4,5.5c-0.5-0.5-1-1-1-2c0,0,0,0,0.5,0c0-1-1-1-1-2c0,0,0.5-0.5,0.5,0c1,1,1.5,1.5,2,2.5c0.5,0,1,0,1.5,0.5
			s0.5,1.5,1,2c0,1.5,2,2.5,2,4c0,0.5,0.5,0,0.5,0.5l1.5,2c-0.5,0.5,0,1,0,1c0.5,0.5,1-0.5,2-0.5c1,0.5,0,1,0,2c0.5,0,1-0.5,1,0
			s-0.5,1-0.5,1.5s0.5,0.5,1,0.5s0.5,0.5,0.5,1c1,1.5-0.5,2.5,0,4c0.5,1,0,2-0.5,2.5c0,1-1,2-1.5,2.5l-1.5,0.5c-0.5,0.5,0.5,1.5,0,2
			h3l-0.5-0.5c-0.5-1-0.5-2.5,0.5-3.5c0.5-1,0.5-2,1.5-3c0,0,0.5-0.5,0.5,0c0,1,0,2-0.5,2.5c1,1,0.5,2.5,1,4c2.5,0,5,0,7.5,0v-0.5
			c-0.5-4.5-1.5-9-3.5-12.9c-0.5,0-1,0.5-1.5,0.5l-0.5-0.5c-1-1-1.5-2-3-3c-1.5,0-2-1.5-3-1.5c-1-0.5-0.5-2-2-1.5
			c-0.5-0.5-1.5-1-1.5-1.5c0-1.5-0.5-2.5-1.5-3.5c-1-0.5-1.5,1-2,0.5c-0.5,0-0.5-1-0.5-1.5s-0.5-0.5-0.5-1c1-1.5-1.5-1.5-1-3
			c0-1-1.5-1.5-2-2.5c-4-2-8-3-11.9-3.5C491,310.8,490,310.8,489,310.3z M511.9,310.3c-0.5,0.5-1-0.5-1.5,0c0,0.5,0,0.5,0,0.5
			c1,0.5,1,2,2.5,1.5c0.5-0.5,0-1,0-1.5C512.9,310.8,512.4,310.3,511.9,310.3z M466.6,317.3c-1.5,1-3,2.5-4.5,3.5c2,1,3.5,3,5,4.5
			v0.5c4.5-4,9.5-6.5,14.9-7.5c1.5,0,2.5-0.5,4-0.5c0-2.5-0.5-5,0-7.5C479,310.8,472.6,313.3,466.6,317.3z M522.3,314.8
			c-1.5,2-3.5,3.5-5,5.5h-1c0.5,0,0.5,1,1,1c2,1,2.5,3,4,4c1,2,3,3.5,3,5.5c2,5,3.5,10,4,15.4v0.5h0.5h7.5c-0.5-0.5-0.5-1.5-0.5-2.5
			C534.8,332.7,529.8,323.2,522.3,314.8z M453.2,314.8c-7,8-11.4,16.9-12.9,27.4c-0.5,1.5,0,3-0.5,4.5c2.5,0,5.5,0,8,0v-1
			c0.5-8,3-14.9,7.5-21.4c1-1.5,2-3,3.5-4C457.1,318.7,455.2,316.8,453.2,314.8L453.2,314.8z M486.5,320.2L486.5,320.2
			c-7,0.5-12.4,3.5-17.4,7.5c2,1.5,3.5,3.5,5.5,5c0-0.5,0.5-0.5,0.5-0.5c2.5-1.5,5-3.5,7.5-4c1.5,0,2.5-0.5,4-0.5
			C486,325.2,486,322.7,486.5,320.2z M489,320.2L489,320.2l0.5,7.5h0.5c4,0.5,8,2,11.4,4.5v0.5c1-1.5,3-3,4-4.5l1.5-0.5l-0.5-0.5
			c-3-2.5-6-4-9-5C494.5,321.2,492,320.7,489,320.2z M460.1,322.2L460.1,322.2l-3,4c-4,6-6,12.9-7,20.9h7h0.5c-0.5,0,0-0.5-0.5-0.5
			c0.5-7,3-13.4,8-18.9C463.6,325.7,461.6,324.2,460.1,322.2z M508.4,329.2L508.4,329.2c-2.5,2.5-5,5-7,7.5c0,0.5,0.5,0.5,0.5,0.5
			c0-0.5,0.5-1,0.5-2c0.5-1,1.5-0.5,2.5,0c1-0.5,2.5,0.5,3.5,0.5c1,0.5,1,1.5,2,2c0,0.5,0,0.5-0.5,1c0.5,2,1-0.5,2,0
			c0.5,0,1,0,1,0.5c0,1,1,0.5,1,1.5c0,0.5-0.5,0.5-0.5,0.5c0,1-1,1-0.5,2c1.5,0.5,1.5-1.5,2-2c-0.5-1.5-0.5-2.5-1.5-4
			c-1,0-1.5-1-2-1.5c-1.5-0.5,0.5-1.5,0-2.5C510.9,332.2,509.4,330.7,508.4,329.2z M467.6,329.2c-3.5,4-6,8.5-7,13.9
			c-0.5,1,0,2.5-0.5,4c1-0.5,2,0,3,0c-0.5-0.5,0-1-0.5-1.5c0-0.5,0-1.5,0.5-2c0-1,1-1.5,1-2.5c0.5-1,1.5-0.5,2-1c0.5,0,0-0.5,0-1
			c0.5-0.5,1.5-0.5,2-1s1-1.5,1.5-2c1.5,0,1.5-2,3-2C471.1,333.2,469.1,331.2,467.6,329.2z M489,330.2c0.5,1.5,0,3.5,0.5,5l2,0.5
			c0.5-1,1.5-1,2-2c0.5-0.5,0.5,0,1,0.5c0,0.5,0,1.5-0.5,2c-0.5,1.5-2.5,1.5-3,2.5c0.5,0.5,1-0.5,1.5-0.5s1.5,0.5,1.5,1
			c0.5,0,1,0,1.5,0c0.5-2,3-2,3.5-4h-0.5c0-0.5-0.5,0-0.5-0.5c0.5-0.5,1-1,1.5-1c-2.5-1.5-4.5-2.5-7-3.5
			C491,330.7,490,330.7,489,330.2z M475.6,335.7L475.6,335.7c1,0.5,2,0.5,2.5,1.5c0,0.5-0.5,0.5-0.5,1c0,0,0.5,0,0.5,0.5
			c0.5,0,0.5-0.5,0.5-0.5c1-1.5,1,0,1.5,0c0.5-0.5,1-0.5,1.5,0c0.5-0.5,1.5,0,1.5-0.5c1-1,0.5-2,1.5-2.5c0.5,0,0,0.5,0,1
			c1,0.5,1.5-0.5,2.5,0c-0.5-1.5-0.5-3.5-0.5-5.5C482.5,330.7,478.5,332.2,475.6,335.7z M488,339.6c-0.5-0.5-1.5,0-2,0
			c0.5,0.5,0.5,1.5,0.5,2c-1,1.5-2,1.5-3,2c-0.5,0.5-0.5,1.5-1,1c0,0.5-1,1-1,1.5c-0.5,1,0,2-0.5,3c-1.5,1-1-1-1.5-1.5v0.5
			c-0.5,0-0.5,0-0.5-0.5c0,0-0.5,0-1,0c-0.5,0.5-1,1-0.5,2c0,0.5-1,0.5-1,1c1,0,1.5,0,2.5-0.5c0.5,0,1-0.5,1.5-0.5l0.5,0.5l0,0
			c0.5-0.5,0.5-1,0.5-1c0-0.5,0.5-0.5,1-0.5s0,0.5,0,0.5c1,0.5-0.5,1.5-0.5,2c-0.5,0.5,0,1.5-1,1.5c0,0-0.5,0,0-0.5l0,0
			c0,0.5,0.5,1,0.5,1c0.5-0.5,0.5-1.5,1.5-1.5c0.5-0.5,0-1.5,0.5-2c1.5,0,2.5-0.5,4,0.5c0,0.5,0,0.5,0,1c-0.5,0.5-0.5,1-1,1.5
			c0,0.5,0,0.5-0.5,1c-0.5,1.5-2,1-3,1.5c1.5,1,3.5,1.5,5.5,1.5c1,0,0.5-1.5,1-2c0.5-2,2-0.5,3-1c0.5-1,0.5-1.5,1-2.5
			c-0.5-0.5-1-1-0.5-2c-0.5-0.5-0.5-1.5-1.5-2v-0.5c0-0.5,0.5-0.5,0.5-1c-0.5-0.5-0.5-1-0.5-1.5c-1,0.5-1-1-2-1.5c0-0.5-1-0.5-1.5-1
			c-1,0.5-1.5-1-2.5-1.5c0-0.5-0.5-0.5,0-1C487,339.6,487.5,339.6,488,339.6L488,339.6z M466.1,345.6c-2,0.5,0.5,2,0,3.5
			c-0.5,0.5-1,0-1.5,0.5v1.5c-0.5,1-1.5,0-1.5,0.5c-0.5,0.5,0,1,0.5,1.5c-0.5,1.5,1.5,2,1.5,3.5c0.5,1,0,2,1,3c0,1.5,0,4,1,5
			l0.5,1.5c0.5,0.5-1.5,0.5-1,1.5c0.5,0,0.5,0,0.5,0.5l0,0c2-2.5,4-4.5,6.5-6.5l-1-1c-3-3-4.5-5.5-5-9h-1c0,1-0.5,1.5-0.5,2v0.5
			c-0.5,0-1-0.5-1.5-0.5c0-0.5-0.5-0.5,0-1h0.5c0-0.5,0-0.5,0.5-1c0-0.5-0.5-1,0-1.5c0.5,0,1,0.5,1,1c0.5,0,1,0,1.5-0.5
			c0-0.5,0.5-1,0-1.5c0.5-1,0-2,0-3C467.6,345.6,466.6,345.6,466.1,345.6z M512.9,346.6L512.9,346.6
			C512.4,346.6,512.9,346.6,512.9,346.6z M511.4,349.1l1,1c1,0.5,0.5,1.5,1,2c1,0.5,1.5,1.5,2,2.5v-0.5c0.5-1.5,0.5-3,0.5-4.5
			C514.4,349.6,512.9,349.6,511.4,349.1z M528.8,349.6L528.8,349.6L528.8,349.6c-0.5,9-3.5,15.9-8,22.9c-1,1-2,2.5-3,3.5
			c2,1.5,4,4,5.5,5.5V381c7.5-9,11.9-18.9,12.4-30.9l0.5-0.5h-0.5H528.8z M518.3,349.1c0,1.5-0.5,3-0.5,4.5l1,1c0,0.5,0,1,0,1
			c-0.5,0-1,0-1,0c-1,3.5-2.5,6.5-4.5,9.5c-1,1-1.5,2.5-2.5,3l2.5,2v-0.5c0-0.5,0-0.5,0.5-0.5c1,0,1,1,2,2c0,1,0.5,1.5,0.5,2.5
			c6.5-6.5,9.5-14.9,10-23.9l0.5-0.5c-2.5,0-4.5,0-7,0L518.3,349.1z M460.1,349.6L460.1,349.6c0.5,2,1,3.5,1,5.5
			c0.5-0.5,0.5-1,1-1.5c0-0.5-0.5-0.5-0.5-1c0.5-1,0-2.5,1-3C461.6,349.6,460.6,350.1,460.1,349.6z M447.7,349.6L447.7,349.6
			l-7.5,0.5c0.5,8,2.5,15.4,6,21.9c2,3.5,4.5,6.5,6.5,9.5l5-5l0.5-0.5c-1-0.5-1.5-1.5-2.5-2.5c-1,0-1.5-1-2-1.5s0-1-0.5-1l-0.5,0.5
			c-1,0.5-1-0.5-2-1s-0.5-2-1.5-1.5c0.5-0.5,0.5-1,0.5-1c-1-0.5-1-1.5-2-1.5c0,0,0,0.5-0.5,0.5c-1,0-1.5-1-2-1.5c0,0-0.5,0.5-0.5,0
			c-0.5-0.5-1-1.5-1-2c-1-1-0.5-2.5-0.5-3.5c0-0.5,0.5-0.5,0.5-1s1-0.5,1.5-0.5l0.5,0.5c0.5,0,1,0,1-0.5c0.5-0.5,1-0.5,1.5-0.5
			c0.5,0.5,0.5,1,1,1.5l-0.5-0.5c-0.5-2.5-1-5-1-7.5c0,0-0.5,0,0-0.5l0,0C447.7,350.6,447.7,350.1,447.7,349.6z M457.6,349.6
			L457.6,349.6c-3,0.5-5.5,0.5-7.5,0.5l0.5,0.5l0.5,4.5c0,2,1,3.5,1,5.5c0.5-0.5,0-1,1-1c-0.5-0.5,0.5-1,0-1.5c0-1,0.5-2.5,1.5-3.5
			c1.5,0,1.5-1.5,2.5-2c0.5,0,1,1,1.5,1C457.6,352.1,457.6,350.6,457.6,349.6z M470.6,352.6c0.5,1.5,1,3,2,4c0.5,1,1.5,2,2,3
			c0.5-1,1.5-1.5,2-2.5c0-0.5,0-0.5-0.5-1c0-0.5,0-1.5-0.5-1.5s0,1,0,1.5c-0.5,0-0.5,0-0.5-0.5c-0.5,0-1-0.5-1-1
			c0.5-0.5,0-0.5-0.5-0.5h-0.5h-0.5C472.6,352.6,471.1,353.1,470.6,352.6z M478.5,354.6c0,0.5-0.5,1-1,1.5l0,0c0.5-0.5,1-1,2-1.5
			H478.5z M498.4,356.6c0,0.5,0,1,0.5,1c1,0,0.5,1,1.5,1c0.5,0,0-0.5,0-1C500.4,356.6,499.4,356.6,498.4,356.6l0.5-1
			C498.4,356.1,498.4,356.6,498.4,356.6z M512.4,356.6c-0.5,0-1.5,0.5-2,0c0,0-0.5,0-0.5,0.5c-0.5,0.5-0.5,1-1,0.5
			c-0.5,0-0.5-0.5-0.5-1c0,0.5,0,0.5,0,1c-0.5,0.5-0.5,1-1,1.5s-1.5,0.5-2,1c0,1-1.5,1-2,1.5c0,0,0,0,0,0.5c0.5,0,1,0,1-0.5
			c1,0.5,1-1,1.5-1.5c0.5,0,1-0.5,1.5,0s0.5,1.5,0.5,2.5c-0.5,0.5-0.5,1.5-0.5,2.5s-1,1-1,2c-0.5,0.5-1,0.5-1.5,0.5
			c-2-1-4-1-6.5-1.5c0,0-0.5,0-0.5,0.5c1,0.5,2,0.5,3,1c1,0,1.5,1.5,2.5,1s2.5,0.5,3-0.5c0-1,0.5-1.5,1-2.5h0.5
			c0.5,0.5,0.5,1,0.5,1.5c0.5-1,1.5-1.5,2-2.5c1.5-2.5,3-5,3.5-8C513.9,356.6,512.9,356.6,512.4,356.6z M481,356.6c-1,2-3,3.5-4.5,5
			c2.5,2,5.5,3.5,9,4c0-0.5,0-1.5,0.5-2s1-0.5,1.5-0.5s0.5-0.5,0.5-0.5c-0.5,0-0.5-1-0.5-1.5c0,0,0.5,0,0.5-0.5
			c-0.5-0.5,0.5-1,0-1.5l0.5-0.5c-1.5,1-3.5,0-4.5-1C482,358.1,481,357.6,481,356.6z M495.5,361C495.5,361,495,361.5,495.5,361
			c0.5,0,2,0,2-1C496.5,360,496,360.5,495.5,361z M498.4,363c-1,0-1,0.5-2,1c-0.5,0.5-1-1-1.5-0.5l0,0v0.5c-1,1-1.5-0.5-2-0.5v0.5
			c0,0,0,0.5-0.5,0.5c-0.5-1-1.5-0.5-2-1.5c-0.5,0-0.5,0-1,0.5c0,0.5-1,0-1,0.5c-0.5,0-0.5,1-1,1.5c-1,0-1,0.5-2,0.5v0.5
			c0.5,0,1,0,1.5,0c1-1,2,0,3-0.5c0.5,0,0,1,0.5,1c1-0.5,2,1,2.5,0c0-1,1.5-1,2-1.5C497.5,365.5,498.4,364.5,498.4,363L498.4,363z
			 M474.1,363.5c-1.5,2-3.5,3.5-5,5c1,0,1,1,2,1.5c3.5,3,8.5,4.5,12.4,6l-1-0.5c-1-1-2-2-2-3.5c1-0.5,1-1.5,1-2c1-1,1.5-1,2.5-1.5
			c-2.5,1-5-1-7-2C476.1,365.5,474.6,365,474.1,363.5z M508.9,370L508.9,370c-0.5,0-1,0.5-1.5,1c0,0.5,0,1,0.5,1.5
			c1,0.5,2.5,1,2.5,2c-0.5,1-2.5,2-1,3.5c0.5,0.5-0.5,1-0.5,1.5l0.5-0.5c1.5-1,3-2.5,4.5-4l0,0c-0.5,0-0.5,0-1,0c-0.5-0.5-1-1-1-1.5
			L508.9,370z M468.6,371L468.6,371L468.6,371L468.6,371z M469.6,372c-0.5,0-0.5-0.5-0.5-1L469.6,372z M469.6,372.5
			c0,0.5,1,1,0.5,1.5s-1.5,0.5-2,0.5c-1.5,0-2.5,1-4,1c-1,0.5-1.5-1-3-1c7,6,14.9,10,24.4,10.4l0.5,0.5l-0.5-1V378H485
			C479.5,378,474.1,376,469.6,372.5z M515.9,377L515.9,377c-0.5,1-2.5,2-3.5,3c-1.5,1.5-4.5,2-5,4.5c-1,1-1,2-2.5,2.5
			c-0.5,1-2,1-2.5,2c-2,2-3.5-1-5.5-1.5l-4,0.5c-1.5,0-2.5,0.5-4,0c0,2.5,0,5.5,0,8l0.5-0.5c11.9-0.5,22.4-5,31.3-13.4L515.9,377z
			 M460.1,377L460.1,377l-5.5,5.5c8,7,16.9,10.9,26.9,12.4c1.5,0.5,3.5,0,5,0.5l-0.5-0.5v-7l0.5-0.5h-1
			C476.1,387.4,467.1,383.9,460.1,377z M489,379L489,379c0.5,2.5,1,4.5,0.5,6.5c2-0.5,4-0.5,6-1c-0.5,0-1,0-1-0.5c-1,0-1.5-1.5-2-2
			c0-0.5,0.5-1,0.5-2c-0.5-1-2-0.5-3-0.5C489.5,379,489,379,489,379z"/>
		<g>
			<path fill="#267BB2" d="M535.3,307.3c3.5,3.5,5.5,7.5,6.5,11.9l0.5,1.5c-5.5-4-10-9-13.4-14.4l-4.5-4.5
				C527.8,303.3,531.8,304.3,535.3,307.3z"/>
			<path fill="#267BB2" d="M441.7,313.8c-2.5,3-5.5,5-8.5,7.5c1.5-3,1.5-7,4-9.5c3-5.5,8.5-7,13.9-9
				C447.2,305.8,444.2,309.8,441.7,313.8z"/>
			<path fill="#267BB2" d="M548.2,319.2c1,5.5-0.5,10.4,0.5,15.9l0,0c-3-5.5-9-8.5-12.9-12.9c-2.5-2.5-3.5-6-4-9.5
				c2.5,6,9,7,12.4,11.9c1.5,1,1.5,2.5,2.5,4l0,0c-2-4.5-3-10-4.5-14.4c-1-2-2-4-4-5.5C542.7,309.3,547.2,314.3,548.2,319.2z"/>
			<path fill="#267BB2" d="M437.2,309.3c-5,3.5-4.5,9.5-6.5,14.4c-0.5,2-1.5,3.5-2,5.5l0,0c1-2,2.5-4.5,4-6c3.5-3.5,9-5.5,10.4-10
				c0,6.5-5.5,11.9-10.9,15.9c-2,2-4.5,4-5.5,6.5c0-1.5,0-3.5,0-5c-0.5-6-1-12.4,3-16.9C432.3,311.3,434.8,309.8,437.2,309.3z"/>
			<path fill="#267BB2" d="M551.2,320.2c4.5,6,5.5,15.4,2,22.4c-1,3-2,6-2.5,9.5c0-0.5-0.5-1.5-0.5-2c-1.5-7-8-11.4-10.9-17.9
				c-1-2-1.5-4.5-2-6.5c3,5,10,8,11.4,13.4c1,1.5,0.5,3.5,1,5l0,0c-1-6-0.5-11.9,0-17.9c0-3-0.5-6.5-2-8.5
				C550.2,318.2,550.7,319.2,551.2,320.2z"/>
			<path fill="#267BB2" d="M426.3,318.2c-4,6-0.5,12.9-1,19.9l-0.5,7c0,0,0,0,0.5,0c0-0.5,0.5-1.5,0.5-2.5c1-5.5,5.5-9.5,10-12.9
				c1-1,1.5-2,2-3c-0.5,2.5-1,5.5-2.5,8c-3,6.5-9,11.4-10.4,18.4c-0.5-7-5-11.9-5-19.4C420.3,327.7,422.8,323.2,426.3,318.2
				C426.3,318.7,426.3,318.2,426.3,318.2z"/>
			<path fill="#267BB2" d="M555.2,359.5c-2.5,4-6,7.5-8.5,10.9c0.5-3,0.5-7-0.5-9.5c-2-6-4-12.4-4.5-18.9v-2.5
				c1.5,7,8.5,11.4,8,19.4c0,2-0.5,3.5-1,5l0,0l0.5-0.5c1-4,1.5-8,3-11.4c2-5,5-10.4,4-16.4C560.1,343.1,559.2,352.6,555.2,359.5z"
				/>
			<path fill="#267BB2" d="M424.3,357.1c0.5,2.5,1,5.5,2,7.5c0,0,0,0,0.5,0c-2.5-7.5,1-13.9,5-19.4c1-1.5,1.5-3,2-5
				c0.5,3.5-0.5,7-1,10.4c-1,4.5-2.5,8.5-3.5,12.4c-1,2.5-0.5,5.5,0,8.5l-0.5-1c-3-5-8-9-10-14.4c-1.5-4.5-2-9.5-1.5-14.4
				c0.5-2,1-4,1.5-5.5C417.3,344.6,422.8,350.1,424.3,357.1z"/>
			<path fill="#267BB2" d="M545.2,371c0,3.5-1.5,6.5-3,9h0.5c2.5-3,4.5-6.5,7-9.5c4.5-4,9-8.5,9.5-14.4c1.5,10-4,18.4-11.9,23.9
				c-3.5,2-7,4-10,6.5l0,0c5-8,2.5-19.4,5.5-28.4l1-3C542.7,361,545.2,365.5,545.2,371z"/>
			<path fill="#267BB2" d="M437.2,381.9c0.5,2,1.5,3.5,2.5,5.5c-7.5-5-17.9-10-20.9-19.4c-1.5-3-1.5-7-1.5-10.9
				c0.5,8.5,9.5,12.9,13.9,19.4c1,1.5,2,3,3,4c0-1-1-1.5-1.5-2.5c-1.5-3-2-6.5-1.5-10c0.5-4.5,2-8,1.5-12.4
				C436.2,364,435.3,373.5,437.2,381.9z"/>
			<path fill="#267BB2" d="M533.8,387.9c-1.5,2-3,4.5-5,6c0.5,0,1-0.5,2-1c5.5-5.5,12.4-7,18.4-11.4c2.5-2,4.5-4.5,5.5-7
				c-1,9-10,17.4-18.4,19.9c-4.5,1-9,1.5-12.9,3c7-6,6.5-15.4,11.4-22.9c1.5-2,3-4,4.5-6C535.8,375,537.3,382.4,533.8,387.9z"/>
			<path fill="#267BB2" d="M444.2,380.4c2.5,6,3.5,12.9,9.5,17.9c-6.5-2-13.9-1.5-19.4-5.5c-6-3.5-11.4-10-12.4-16.9
				c4,9.5,14.4,10.4,21.4,15.9c1.5,1,2.5,2,4,3l0,0c-1.5-1.5-3.5-3-4.5-5c-4-5.5-2.5-13.9-6-19.9C440.2,373.5,442.7,377,444.2,380.4
				z"/>
			<path fill="#267BB2" d="M518.8,398.9c-1.5,1-3.5,1-5,2c2.5,0,4.5-1,6.5-1c8.5-1.5,17.9,0,23.4-7c-2,5-7.5,9-12.4,10.9
				c-8.5,3-16.9-0.5-24.9-2l-2-0.5l0,0c4-1,7.5-2,10.9-5c4.5-4.5,8.5-9,13.4-12.4C525.3,388.9,524.8,395.9,518.8,398.9z"/>
			<path fill="#267BB2" d="M460.6,396.9c3,3,7,4,10.9,5c-1,0.5-2.5,0.5-3.5,0.5c-7.5,2-15.4,5-23.4,2c-5-1.5-10.4-5.5-12.9-10.4
				c6.5,7.5,17.4,5,26.4,7c1,0,2.5,0.5,4,0.5c-1-0.5-2.5-0.5-3.5-1c-7-2.5-8-10-11.9-14.9C452.2,387.9,456.2,392.4,460.6,396.9z"/>
			<path fill="#267BB2" d="M515.4,406.8c5.5,2,12.4,1.5,16.9-2c-2.5,3-5.5,5-9,6.5c-7.5,3-15.4,0-21.4-4.5c-2.5-1.5-4.5-3.5-7.5-3.5
				c-1,0-2,0-3,0.5c5.5,2.5,10.9,6.5,15.9,10.9c-1,1-2,2-3,2.5c-4.5-5-10-10-15.4-12.9c-1,0-2,1-3.5,1.5c-4.5,3-9.5,7-12.9,11.4
				l-3-2.5c5-5,10-8.5,15.9-11.4c-5.5-2-9.5,3-13.9,5.5c-5,3.5-12.4,5-18.4,3c-3.5-1.5-6.5-3-9-6c5,3.5,11.9,3.5,17.4,1.5
				c7.5-3,14.9-7.5,23.9-5.5c1.5,0,3,1.5,4,0c6.5-1.5,13.9-0.5,19.9,2.5L515.4,406.8z"/>
		</g>
	</g>
	<g>
		<polygon fill="#FFFFFF" points="187.5,335.2 210.8,343.1 324.8,343.1 329.8,335.2 		"/>
		<path fill="#267BB2" d="M329.8,335.2H175H329.8z"/>
		<polygon fill="#267BB2" points="324.8,343.1 325.3,343.1 330.3,335.2 329.8,335.2 		"/>
	</g>
	<path fill="#267BB2" d="M488,192.9c-43.8,0-83.6,17.9-112.5,46.3l12.9,29.4h30.4c18.9-15.4,42.8-24.9,69.2-24.9
		c60.2,0,109,48.8,109,109s-48.8,108.5-109,108.5c-30.4,0-58.2-11.9-79.1-33.8C389.5,407,379,380.1,379,352.3c0-9.5,1-18.4,3.5-26.9
		l-1.5-16.6l-3.6,0l0,0H190.9c-5,8.5-10.9,18.4-15.9,26.4h12.7l0,0h142h0.1l-5,7.9h-114l-23.1-7.9H175l34.3,12.4h112.4l-124.4,198
		h0.6h30.7h0.1l0,0l0,0h0.1l0.1-0.1l31.1-17.3L336.9,406c7.5,20.8,18.9,40.1,34.7,56.4c30.4,32.3,71.7,49.8,116.4,49.8
		c88.1,0,160.2-71.7,160.2-160.2C648.2,264.5,576.1,192.9,488,192.9z M488,483.4c-36.3,0-70.2-14.4-95-40.8
		c-18.9-19.9-30.9-44.8-34.3-71.2c-0.5-2-0.6-4.9-1.1-6.9L256.1,524.7l-21.8,12l43.8-70.1l96.3-153.2h1.7l1,11.4
		c-2,9-3.5,17.9-3.5,27.4c0,29.4,10.9,57.2,31.3,78.6c21.9,22.9,51.3,35.8,83.1,35.8c63.2,0,114.4-51.3,114.4-114.4
		S551.2,237.6,488,237.6c-25.9,0-50.8,9-71.2,24.9h-10.9h-10h-3c23.9-24.9,57.7-40.3,95-40.3c72.1,0,130.9,58.7,130.9,130.9
		S560.1,483.4,488,483.4z"/>
</g>
</svg>
