<?xml version="1.0" encoding="utf-8"?>
<!-- Generator: Adobe Illustrator 16.0.0, SVG Export Plug-In . SVG Version: 6.00 Build 0)  -->
<!DOCTYPE svg PUBLIC "-//W3C//DTD SVG 1.1//EN" "http://www.w3.org/Graphics/SVG/1.1/DTD/svg11.dtd">
<svg version="1.1" id="Layer_1" xmlns="http://www.w3.org/2000/svg" xmlns:xlink="http://www.w3.org/1999/xlink" x="0px" y="0px"
	 width="118px" height="88px" viewBox="0 0 118 88" enable-background="new 0 0 118 88" xml:space="preserve">
<g>
	<polygon fill="#267CB3" points="38.815,35.604 6.594,87 14.143,87 50.345,29.154 	"/>
	<g>
		<path fill="#267CB3" d="M88.527,33.405c1.343,2.442,1.588,5.839,0.854,8.624c-0.854,3.273-3.641,6.569-6.814,7.89
			c-3.64,1.83-8.746,1.343-12.042-0.979c-4.497-3.149-6.329-8.377-4.985-13.605c0.856-3.152,3.273-6.206,6.327-7.647
			c1.71-0.854,3.518-1.342,5.595-1.342C82.077,26.346,86.448,29.154,88.527,33.405z M77.704,26.956c0.122,0.49,0,1.099,0,1.711
			v-0.122c0.122,0,0.122,0,0.244,0.122c0,0.122,0,0.245,0,0.245c0.123,0,0.123,0,0.123,0c1.466,0.121,2.663,0.488,3.884,1.221l0,0
			c0.246-0.122,0.489-0.245,0.733-0.122c0.243-0.123,0.366,0.244,0.61,0.244c0.244,0.121,0.611,0.488,0.611,0.855
			c0.12,0.122,0.242,0.244,0.242,0.367c0.246-0.367,0.611-0.734,0.979-1.101l0.244-0.121c-1.833-1.833-4.006-2.785-6.572-3.03
			C78.56,27.078,78.071,27.078,77.704,26.956z M76.971,27.078c-2.441,0.122-4.616,0.976-6.569,2.321
			c-0.368,0.244-0.732,0.611-1.101,0.855l0,0c0.49,0.365,0.978,0.855,1.344,1.343v-0.121c1.832-1.588,3.885-2.542,6.326-2.663V28.69
			V27.078L76.971,27.078z M79.172,27.933l-0.856,0.367c-0.122,0-0.244-0.122-0.244,0v0.122c0.367,0.367,0.855,0.245,1.343,0.123
			c0.245,0.122,0.611,0,0.856-0.245l0,0C79.879,28.054,79.537,28.054,79.172,27.933z M77.704,29.52L77.704,29.52
			c0,0.734,0.122,1.345,0,1.833c0.244-0.122,0.489,0,0.734,0c1.221,0.244,2.319,0.61,3.272,1.344
			c-0.122-0.122-0.243-0.245-0.243-0.49c0,0,0,0,0.121,0c0-0.244-0.245-0.244-0.245-0.489c0,0,0.124-0.121,0.124,0
			c0.243,0.245,0.364,0.367,0.487,0.612c0.122,0,0.246,0,0.367,0.122c0.122,0.123,0.122,0.367,0.244,0.488
			c0,0.366,0.488,0.611,0.488,0.978c0,0.123,0.122,0,0.122,0.123l0.366,0.487c-0.123,0.122,0,0.245,0,0.245
			c0.122,0.123,0.244-0.123,0.487-0.123c0.244,0.123,0,0.246,0,0.49c0.122,0,0.244-0.122,0.244,0c0,0.122-0.122,0.245-0.122,0.367
			c0,0.12,0.122,0.12,0.246,0.12c0.122,0,0.122,0.123,0.122,0.245c0.243,0.367-0.122,0.612,0,0.976c0.122,0.245,0,0.49-0.122,0.612
			c0,0.245-0.246,0.49-0.368,0.611l-0.365,0.121c-0.122,0.122,0.122,0.366,0,0.489h0.733l-0.124-0.123
			c-0.122-0.244-0.122-0.609,0.124-0.854c0.122-0.245,0.122-0.489,0.365-0.734c0,0,0.123-0.122,0.123,0c0,0.246,0,0.49-0.123,0.612
			c0.246,0.244,0.123,0.61,0.246,0.976c0.61,0,1.221,0,1.831,0v-0.123c-0.122-1.098-0.368-2.197-0.854-3.149
			c-0.123,0-0.246,0.123-0.366,0.123l-0.123-0.123c-0.243-0.245-0.365-0.489-0.733-0.734c-0.365,0-0.489-0.365-0.733-0.365
			c-0.243-0.123-0.12-0.49-0.487-0.367c-0.123-0.123-0.366-0.245-0.366-0.368c0-0.367-0.122-0.61-0.365-0.854
			c-0.245-0.121-0.367,0.245-0.489,0.123c-0.121,0-0.121-0.244-0.121-0.367s-0.124-0.123-0.124-0.245
			c0.245-0.367-0.366-0.367-0.245-0.732c0-0.245-0.364-0.367-0.488-0.611c-0.977-0.488-1.953-0.732-2.905-0.854
			C78.193,29.643,77.948,29.643,77.704,29.52z M83.299,29.52c-0.122,0.123-0.244-0.121-0.367,0c0,0.123,0,0.123,0,0.123
			c0.245,0.122,0.245,0.489,0.611,0.367c0.122-0.123,0-0.245,0-0.367C83.543,29.643,83.42,29.52,83.299,29.52z M72.232,31.231
			c-0.366,0.245-0.733,0.609-1.098,0.854c0.487,0.245,0.854,0.733,1.22,1.099v0.123c1.1-0.976,2.319-1.588,3.641-1.831
			c0.365,0,0.609-0.123,0.976-0.123c0-0.611-0.12-1.221,0-1.833C75.261,29.643,73.698,30.254,72.232,31.231z M85.838,30.619
			c-0.365,0.49-0.854,0.857-1.22,1.344h-0.246c0.124,0,0.124,0.244,0.246,0.244c0.488,0.245,0.612,0.733,0.979,0.977
			c0.241,0.49,0.73,0.857,0.73,1.344c0.489,1.222,0.856,2.442,0.977,3.762v0.123h0.124h1.83c-0.122-0.123-0.122-0.366-0.122-0.611
			C88.892,34.993,87.672,32.673,85.838,30.619z M68.959,30.619c-1.71,1.956-2.784,4.128-3.15,6.694c-0.123,0.366,0,0.734-0.123,1.1
			c0.611,0,1.343,0,1.955,0v-0.245c0.122-1.955,0.732-3.64,1.831-5.228c0.245-0.365,0.488-0.733,0.855-0.977
			C69.913,31.572,69.447,31.109,68.959,30.619L68.959,30.619z M77.095,31.938L77.095,31.938c-1.711,0.123-3.029,0.856-4.25,1.833
			c0.487,0.366,0.854,0.854,1.343,1.221c0-0.122,0.123-0.122,0.123-0.122c0.609-0.367,1.221-0.855,1.831-0.977
			c0.366,0,0.61-0.122,0.978-0.122C76.971,33.161,76.971,32.55,77.095,31.938z M77.704,31.938L77.704,31.938l0.122,1.833h0.122
			c0.979,0.122,1.955,0.487,2.786,1.099v0.122c0.244-0.366,0.733-0.734,0.977-1.099l0.366-0.122l-0.122-0.123
			c-0.733-0.611-1.466-0.976-2.199-1.221C79.048,32.183,78.438,32.061,77.704,31.938z M70.645,32.428L70.645,32.428l-0.731,0.977
			c-0.978,1.466-1.467,3.152-1.71,5.105h1.71h0.12c-0.12,0,0-0.123-0.12-0.123c0.12-1.709,0.731-3.273,1.953-4.616
			C71.499,33.283,71.012,32.916,70.645,32.428z M82.444,34.138L82.444,34.138c-0.612,0.609-1.223,1.221-1.71,1.832
			c0,0.123,0.123,0.123,0.123,0.123c0-0.123,0.121-0.245,0.121-0.488c0.12-0.245,0.365-0.122,0.61,0
			c0.243-0.122,0.612,0.121,0.855,0.121c0.244,0.123,0.244,0.368,0.487,0.489c0,0.123,0,0.123-0.12,0.245
			c0.12,0.488,0.243-0.122,0.487,0c0.121,0,0.244,0,0.244,0.123c0,0.243,0.244,0.123,0.244,0.366c0,0.122-0.122,0.122-0.122,0.122
			c0,0.245-0.245,0.245-0.122,0.49c0.367,0.121,0.367-0.368,0.487-0.49c-0.12-0.364-0.12-0.61-0.365-0.976
			c-0.245,0-0.366-0.245-0.488-0.368c-0.365-0.121,0.122-0.365,0-0.61C83.055,34.871,82.688,34.504,82.444,34.138z M72.477,34.138
			c-0.854,0.977-1.465,2.075-1.71,3.395c-0.122,0.245,0,0.61-0.122,0.977c0.244-0.123,0.49,0,0.734,0
			c-0.123-0.123,0-0.245-0.123-0.367c0-0.121,0-0.366,0.123-0.488c0-0.245,0.243-0.366,0.243-0.612
			c0.121-0.245,0.366-0.123,0.489-0.245c0.121,0,0-0.121,0-0.243c0.121-0.123,0.365-0.123,0.488-0.244
			c0.123-0.123,0.245-0.367,0.366-0.489c0.366,0,0.366-0.488,0.732-0.488C73.332,35.115,72.845,34.626,72.477,34.138z
			 M77.704,34.381c0.122,0.366,0,0.856,0.122,1.223l0.489,0.121c0.123-0.243,0.367-0.243,0.488-0.487
			c0.123-0.123,0.123,0,0.244,0.122c0,0.123,0,0.365-0.121,0.488c-0.123,0.366-0.611,0.366-0.733,0.611
			c0.122,0.123,0.245-0.122,0.366-0.122c0.123,0,0.367,0.122,0.367,0.245c0.121,0,0.245,0,0.364,0
			c0.123-0.489,0.734-0.489,0.856-0.977h-0.122c0-0.122-0.122,0-0.122-0.122c0.122-0.123,0.244-0.244,0.367-0.244
			c-0.611-0.367-1.099-0.611-1.711-0.856C78.193,34.504,77.948,34.504,77.704,34.381z M74.432,35.725L74.432,35.725
			c0.242,0.123,0.488,0.123,0.61,0.368c0,0.121-0.122,0.121-0.122,0.244c0,0,0.122,0,0.122,0.122c0.122,0,0.122-0.122,0.122-0.122
			c0.245-0.367,0.245,0,0.367,0c0.123-0.123,0.243-0.123,0.366,0c0.12-0.123,0.366,0,0.366-0.123
			c0.244-0.244,0.121-0.489,0.366-0.609c0.122,0,0,0.121,0,0.243c0.244,0.123,0.366-0.123,0.611,0
			c-0.122-0.365-0.122-0.854-0.122-1.343C76.117,34.504,75.14,34.871,74.432,35.725z M77.461,36.679c-0.122-0.122-0.366,0-0.49,0
			c0.124,0.121,0.124,0.365,0.124,0.488c-0.244,0.366-0.49,0.366-0.734,0.489c-0.122,0.122-0.122,0.367-0.243,0.244
			c0,0.123-0.245,0.244-0.245,0.365c-0.121,0.245,0,0.489-0.121,0.734c-0.367,0.245-0.246-0.245-0.367-0.366v0.122
			c-0.123,0-0.123,0-0.123-0.122c0,0-0.121,0-0.243,0c-0.122,0.122-0.246,0.244-0.122,0.489c0,0.123-0.243,0.123-0.243,0.243
			c0.243,0,0.365,0,0.608-0.121c0.123,0,0.244-0.123,0.368-0.123l0.122,0.123l0,0c0.121-0.123,0.121-0.245,0.121-0.245
			c0-0.122,0.123-0.122,0.245-0.122c0.121,0,0,0.122,0,0.122c0.243,0.123-0.122,0.366-0.122,0.488c-0.123,0.123,0,0.367-0.244,0.367
			c0,0-0.122,0,0-0.122l0,0c0,0.122,0.121,0.245,0.121,0.245c0.123-0.123,0.123-0.367,0.366-0.367c0.122-0.123,0-0.365,0.122-0.488
			c0.367,0,0.61-0.123,0.979,0.123c0,0.121,0,0.121,0,0.243c-0.123,0.123-0.123,0.245-0.244,0.367c0,0.123,0,0.123-0.124,0.245
			c-0.12,0.366-0.487,0.244-0.732,0.366c0.366,0.245,0.856,0.366,1.345,0.366c0.243,0,0.121-0.366,0.243-0.488
			c0.122-0.489,0.489-0.122,0.733-0.244c0.123-0.245,0.123-0.367,0.244-0.612c-0.121-0.122-0.244-0.243-0.121-0.488
			c-0.123-0.122-0.123-0.366-0.367-0.489v-0.123c0-0.123,0.123-0.123,0.123-0.244c-0.123-0.121-0.123-0.244-0.123-0.366
			c-0.244,0.122-0.244-0.245-0.489-0.367c0-0.122-0.243-0.122-0.365-0.244c-0.245,0.123-0.366-0.246-0.61-0.368
			c0-0.121-0.123-0.121,0-0.243C77.216,36.679,77.339,36.679,77.461,36.679L77.461,36.679z M72.111,38.144
			c-0.489,0.122,0.121,0.489,0,0.855c-0.123,0.123-0.245,0-0.368,0.123v0.365c-0.121,0.245-0.364,0-0.364,0.123
			c-0.123,0.122,0,0.244,0.12,0.367c-0.12,0.366,0.367,0.489,0.367,0.854c0.122,0.244,0,0.489,0.245,0.734
			c0,0.366,0,0.977,0.243,1.221l0.122,0.367c0.123,0.123-0.365,0.123-0.244,0.365c0.122,0,0.122,0,0.122,0.123l0,0
			c0.49-0.61,0.978-1.099,1.588-1.587l-0.244-0.245c-0.732-0.734-1.099-1.344-1.222-2.199h-0.244c0,0.244-0.121,0.367-0.121,0.489
			v0.122c-0.123,0-0.245-0.122-0.368-0.122c0-0.123-0.121-0.123,0-0.245h0.123c0-0.122,0-0.122,0.122-0.244
			c0-0.123-0.122-0.245,0-0.365c0.123,0,0.244,0.121,0.244,0.243c0.122,0,0.244,0,0.367-0.122c0-0.121,0.123-0.243,0-0.366
			c0.123-0.245,0-0.489,0-0.734C72.477,38.144,72.232,38.144,72.111,38.144z M83.543,38.388L83.543,38.388
			C83.42,38.388,83.543,38.388,83.543,38.388z M83.177,38.999l0.243,0.245c0.245,0.121,0.123,0.365,0.245,0.487
			c0.245,0.122,0.365,0.367,0.487,0.611V40.22c0.122-0.367,0.122-0.733,0.122-1.099C83.91,39.122,83.543,39.122,83.177,38.999z
			 M87.428,39.122L87.428,39.122L87.428,39.122c-0.124,2.198-0.856,3.884-1.955,5.593c-0.242,0.244-0.488,0.611-0.732,0.856
			c0.49,0.366,0.978,0.977,1.344,1.343v-0.121c1.832-2.197,2.906-4.618,3.028-7.548l0.121-0.123h-0.121H87.428z M84.862,38.999
			c0,0.366-0.122,0.732-0.122,1.1l0.244,0.244c0,0.123,0,0.245,0,0.245c-0.122,0-0.244,0-0.244,0
			c-0.244,0.855-0.611,1.587-1.101,2.32c-0.242,0.244-0.365,0.609-0.611,0.732l0.611,0.489v-0.122c0-0.122,0-0.122,0.121-0.122
			c0.246,0,0.246,0.244,0.491,0.489c0,0.243,0.12,0.366,0.12,0.61c1.589-1.588,2.322-3.639,2.444-5.838l0.122-0.122
			c-0.611,0-1.101,0-1.708,0L84.862,38.999z M70.645,39.122L70.645,39.122c0.122,0.488,0.244,0.854,0.244,1.343
			c0.123-0.123,0.123-0.245,0.246-0.366c0-0.123-0.123-0.123-0.123-0.245c0.123-0.244,0-0.609,0.244-0.732
			C71.012,39.122,70.767,39.244,70.645,39.122z M67.615,39.122L67.615,39.122l-1.831,0.123c0.121,1.953,0.611,3.762,1.465,5.351
			c0.489,0.854,1.1,1.586,1.589,2.318l1.22-1.221l0.123-0.122c-0.245-0.122-0.366-0.367-0.609-0.612
			c-0.246,0-0.367-0.244-0.489-0.364c-0.123-0.123,0-0.246-0.123-0.246l-0.121,0.123c-0.244,0.123-0.244-0.123-0.489-0.245
			c-0.243-0.121-0.123-0.49-0.366-0.367c0.123-0.123,0.123-0.244,0.123-0.244c-0.246-0.122-0.246-0.365-0.49-0.365
			c0,0,0,0.122-0.121,0.122c-0.245,0-0.367-0.244-0.489-0.366c0,0-0.122,0.122-0.122,0c-0.123-0.123-0.243-0.367-0.243-0.49
			c-0.244-0.245-0.123-0.611-0.123-0.854c0-0.123,0.123-0.123,0.123-0.245c0-0.122,0.243-0.122,0.365-0.122l0.122,0.122
			c0.122,0,0.245,0,0.245-0.122c0.122-0.123,0.243-0.123,0.366-0.123c0.121,0.123,0.121,0.245,0.244,0.367l-0.123-0.122
			c-0.121-0.612-0.244-1.221-0.244-1.833c0,0-0.121,0,0-0.122l0,0C67.615,39.365,67.615,39.244,67.615,39.122z M70.033,39.122
			L70.033,39.122c-0.732,0.123-1.344,0.123-1.83,0.123l0.122,0.121l0.121,1.1c0,0.488,0.243,0.854,0.243,1.344
			c0.123-0.123,0-0.244,0.246-0.244c-0.123-0.122,0.122-0.245,0-0.368c0-0.244,0.122-0.609,0.365-0.854
			c0.368,0,0.368-0.366,0.612-0.489c0.12,0,0.242,0.245,0.365,0.245C70.033,39.731,70.033,39.365,70.033,39.122z M73.209,39.854
			c0.123,0.367,0.245,0.734,0.489,0.977c0.122,0.244,0.367,0.489,0.489,0.734c0.123-0.245,0.364-0.368,0.486-0.611
			c0-0.123,0-0.123-0.122-0.243c0-0.123,0-0.368-0.12-0.368c-0.121,0,0,0.245,0,0.368c-0.121,0-0.121,0-0.121-0.123
			c-0.123,0-0.245-0.123-0.245-0.245c0.122-0.122,0-0.122-0.123-0.122H73.82h-0.122C73.698,39.854,73.332,39.976,73.209,39.854z
			 M75.14,40.342c0,0.123-0.122,0.245-0.244,0.368l0,0c0.122-0.123,0.244-0.245,0.488-0.368H75.14z M80,40.831
			c0,0.123,0,0.244,0.124,0.244c0.243,0,0.121,0.245,0.365,0.245c0.122,0,0-0.123,0-0.245C80.489,40.831,80.245,40.831,80,40.831
			l0.124-0.243C80,40.71,80,40.831,80,40.831z M83.42,40.831c-0.121,0-0.365,0.123-0.488,0c0,0-0.12,0-0.12,0.123
			c-0.123,0.122-0.123,0.244-0.245,0.122c-0.122,0-0.122-0.122-0.122-0.244c0,0.123,0,0.123,0,0.244
			c-0.122,0.122-0.122,0.245-0.243,0.368c-0.124,0.122-0.369,0.122-0.49,0.244c0,0.244-0.367,0.244-0.489,0.367c0,0,0,0,0,0.121
			c0.122,0,0.246,0,0.246-0.121c0.243,0.121,0.243-0.245,0.364-0.367c0.123,0,0.245-0.122,0.369,0
			c0.121,0.123,0.121,0.367,0.121,0.611c-0.121,0.122-0.121,0.366-0.121,0.611c0,0.244-0.246,0.244-0.246,0.488
			c-0.123,0.121-0.244,0.121-0.366,0.121c-0.49-0.243-0.978-0.243-1.589-0.365c0,0-0.121,0-0.121,0.123
			c0.245,0.122,0.488,0.122,0.732,0.243c0.246,0,0.367,0.368,0.61,0.245c0.246-0.122,0.61,0.123,0.733-0.122
			c0-0.244,0.122-0.366,0.246-0.61h0.121c0.122,0.122,0.122,0.244,0.122,0.366c0.122-0.244,0.367-0.366,0.487-0.611
			c0.367-0.611,0.733-1.221,0.855-1.955C83.787,40.831,83.543,40.831,83.42,40.831z M75.751,40.831
			c-0.246,0.489-0.733,0.855-1.099,1.223c0.608,0.488,1.343,0.854,2.198,0.977c0-0.123,0-0.367,0.12-0.489
			c0.124-0.122,0.245-0.122,0.368-0.122c0.122,0,0.122-0.122,0.122-0.122c-0.122,0-0.122-0.244-0.122-0.367c0,0,0.122,0,0.122-0.122
			c-0.122-0.123,0.122-0.244,0-0.366l0.122-0.123c-0.367,0.245-0.855,0-1.1-0.245C75.995,41.197,75.751,41.075,75.751,40.831z
			 M79.291,41.905C79.291,41.905,79.172,42.029,79.291,41.905c0.123,0,0.49,0,0.49-0.243C79.537,41.662,79.414,41.785,79.291,41.905
			z M80,42.394c-0.244,0-0.244,0.122-0.487,0.245c-0.122,0.122-0.244-0.245-0.367-0.123l0,0v0.123
			c-0.244,0.245-0.365-0.123-0.487-0.123v0.123c0,0,0,0.122-0.124,0.122c-0.121-0.245-0.365-0.122-0.488-0.367
			c-0.12,0-0.12,0-0.244,0.122c0,0.123-0.243,0-0.243,0.123c-0.122,0-0.122,0.245-0.245,0.367c-0.243,0-0.243,0.122-0.488,0.122
			v0.123c0.122,0,0.245,0,0.366,0c0.245-0.245,0.489,0,0.734-0.123c0.12,0,0,0.244,0.12,0.244c0.244-0.122,0.488,0.244,0.612,0
			c0-0.244,0.366-0.244,0.487-0.366C79.781,43.006,80,42.761,80,42.394L80,42.394z M74.065,42.516
			c-0.367,0.49-0.856,0.856-1.221,1.221c0.242,0,0.242,0.246,0.487,0.369c0.855,0.731,2.077,1.098,3.028,1.465l-0.243-0.122
			c-0.245-0.245-0.488-0.49-0.488-0.854c0.243-0.123,0.243-0.368,0.243-0.489c0.245-0.246,0.366-0.246,0.611-0.369
			c-0.611,0.246-1.223-0.243-1.712-0.486C74.552,43.006,74.188,42.883,74.065,42.516z M82.566,44.105L82.566,44.105
			c-0.122,0-0.244,0.121-0.365,0.244c0,0.123,0,0.246,0.121,0.365c0.244,0.123,0.609,0.244,0.609,0.489
			c-0.12,0.245-0.609,0.489-0.243,0.855c0.123,0.122-0.122,0.245-0.122,0.365l0.122-0.12c0.366-0.245,0.731-0.611,1.099-0.979l0,0
			c-0.122,0-0.122,0-0.244,0c-0.123-0.122-0.244-0.243-0.244-0.367L82.566,44.105z M72.723,44.349L72.723,44.349L72.723,44.349
			L72.723,44.349z M72.966,44.595c-0.121,0-0.121-0.123-0.121-0.246L72.966,44.595z M72.966,44.714c0,0.123,0.243,0.244,0.121,0.368
			c-0.121,0.121-0.364,0.121-0.487,0.121c-0.367,0-0.611,0.245-0.978,0.245c-0.243,0.122-0.366-0.245-0.733-0.245
			c1.711,1.466,3.641,2.443,5.962,2.541l0.12,0.122l-0.12-0.244v-1.563h-0.123C75.384,46.059,74.065,45.57,72.966,44.714z
			 M84.274,45.814L84.274,45.814c-0.122,0.244-0.609,0.489-0.854,0.732c-0.365,0.366-1.098,0.489-1.219,1.1
			c-0.246,0.245-0.246,0.488-0.612,0.61c-0.121,0.244-0.49,0.244-0.61,0.489c-0.489,0.488-0.854-0.245-1.345-0.366l-0.976,0.121
			c-0.368,0-0.612,0.121-0.978,0c0,0.611,0,1.343,0,1.954l0.121-0.122c2.907-0.121,5.473-1.221,7.647-3.271L84.274,45.814z
			 M70.645,45.814L70.645,45.814l-1.344,1.345c1.955,1.708,4.129,2.661,6.571,3.027c0.366,0.123,0.855,0,1.223,0.123l-0.124-0.123
			v-1.709l0.124-0.123h-0.244C74.552,48.354,72.354,47.5,70.645,45.814z M77.704,46.304L77.704,46.304
			c0.122,0.609,0.244,1.1,0.122,1.588c0.489-0.123,0.978-0.123,1.465-0.245c-0.119,0-0.243,0-0.243-0.123
			c-0.244,0-0.365-0.364-0.488-0.487c0-0.123,0.123-0.244,0.123-0.489c-0.123-0.243-0.489-0.123-0.734-0.123
			C77.826,46.304,77.704,46.304,77.704,46.304z"/>
		<g>
			<path fill="#267CB3" d="M89.014,28.789c0.856,0.854,1.346,1.831,1.59,2.906l0.122,0.366c-1.345-0.977-2.443-2.198-3.273-3.517
				l-1.101-1.099C87.184,27.81,88.161,28.054,89.014,28.789z"/>
			<path fill="#267CB3" d="M66.15,30.375c-0.611,0.734-1.344,1.222-2.077,1.833c0.366-0.731,0.366-1.71,0.979-2.32
				c0.732-1.343,2.075-1.71,3.395-2.2C67.494,28.421,66.76,29.399,66.15,30.375z"/>
			<path fill="#267CB3" d="M92.165,31.695c0.245,1.343-0.121,2.54,0.122,3.883l0,0c-0.732-1.343-2.197-2.075-3.151-3.15
				c-0.608-0.61-0.854-1.465-0.975-2.32c0.608,1.464,2.198,1.709,3.028,2.905c0.365,0.245,0.365,0.612,0.609,0.979l0,0
				c-0.487-1.101-0.731-2.443-1.098-3.52c-0.243-0.488-0.488-0.976-0.977-1.343C90.821,29.276,91.922,30.498,92.165,31.695z"/>
			<path fill="#267CB3" d="M65.052,29.276c-1.223,0.856-1.1,2.321-1.588,3.518c-0.123,0.489-0.367,0.854-0.491,1.344l0,0
				c0.247-0.489,0.612-1.1,0.979-1.465c0.854-0.855,2.198-1.344,2.541-2.443c0,1.588-1.344,2.906-2.664,3.884
				c-0.488,0.488-1.1,0.978-1.344,1.588c0-0.366,0-0.854,0-1.222c-0.121-1.466-0.245-3.028,0.734-4.128
				C63.854,29.765,64.466,29.399,65.052,29.276z"/>
			<path fill="#267CB3" d="M92.899,31.938c1.097,1.466,1.343,3.763,0.488,5.473c-0.243,0.732-0.488,1.466-0.61,2.32
				c0-0.122-0.121-0.367-0.121-0.487c-0.369-1.711-1.955-2.786-2.664-4.374c-0.244-0.489-0.366-1.099-0.489-1.587
				c0.733,1.221,2.442,1.955,2.784,3.273c0.246,0.365,0.123,0.854,0.246,1.221l0,0c-0.246-1.465-0.123-2.907,0-4.373
				c0-0.732-0.123-1.587-0.489-2.076C92.656,31.451,92.777,31.695,92.899,31.938z"/>
			<path fill="#267CB3" d="M62.388,31.451c-0.977,1.464-0.121,3.15-0.245,4.861l-0.121,1.71c0,0,0,0,0.121,0
				c0-0.123,0.124-0.367,0.124-0.611c0.243-1.344,1.343-2.32,2.442-3.152c0.243-0.243,0.366-0.487,0.488-0.732
				c-0.122,0.611-0.245,1.344-0.609,1.955c-0.733,1.586-2.2,2.783-2.541,4.494c-0.123-1.711-1.222-2.908-1.222-4.738
				C60.923,33.772,61.534,32.673,62.388,31.451C62.388,31.572,62.388,31.451,62.388,31.451z"/>
			<path fill="#267CB3" d="M93.876,41.54c-0.609,0.977-1.466,1.833-2.077,2.662c0.123-0.733,0.123-1.709-0.123-2.32
				c-0.486-1.466-0.975-3.029-1.098-4.617v-0.61c0.366,1.71,2.078,2.784,1.955,4.739c0,0.488-0.123,0.854-0.246,1.22l0,0
				l0.123-0.122c0.246-0.977,0.367-1.954,0.734-2.785c0.486-1.222,1.22-2.54,0.975-4.006C95.074,37.533,94.854,39.854,93.876,41.54z
				"/>
			<path fill="#267CB3" d="M61.899,40.953c0.122,0.611,0.243,1.344,0.488,1.832c0,0,0,0,0.122,0
				c-0.61-1.832,0.244-3.395,1.222-4.738c0.245-0.368,0.366-0.734,0.488-1.223c0.123,0.855-0.122,1.71-0.243,2.541
				c-0.245,1.1-0.61,2.078-0.854,3.029c-0.246,0.612-0.123,1.343,0,2.078l-0.123-0.245c-0.732-1.221-1.954-2.198-2.443-3.517
				c-0.366-1.101-0.487-2.322-0.366-3.52c0.123-0.486,0.244-0.977,0.366-1.343C60.189,37.9,61.534,39.244,61.899,40.953z"/>
			<path fill="#267CB3" d="M91.433,44.349c0,0.854-0.365,1.587-0.731,2.198h0.12c0.611-0.732,1.101-1.588,1.712-2.32
				c1.098-0.976,2.198-2.076,2.321-3.517c0.364,2.442-0.979,4.493-2.909,5.837c-0.854,0.489-1.709,0.977-2.442,1.588l0,0
				c1.223-1.954,0.612-4.739,1.344-6.938l0.244-0.732C90.821,41.905,91.433,43.006,91.433,44.349z"/>
			<path fill="#267CB3" d="M65.052,47.011c0.122,0.489,0.364,0.855,0.609,1.344c-1.832-1.221-4.373-2.442-5.105-4.739
				c-0.366-0.732-0.366-1.711-0.366-2.663c0.123,2.077,2.32,3.152,3.396,4.739c0.244,0.366,0.488,0.731,0.732,0.977
				c0-0.245-0.244-0.365-0.365-0.61c-0.367-0.733-0.488-1.587-0.367-2.443c0.122-1.1,0.488-1.954,0.367-3.028
				C64.807,42.639,64.588,44.958,65.052,47.011z"/>
			<path fill="#267CB3" d="M88.649,48.478c-0.367,0.488-0.733,1.101-1.222,1.464c0.121,0,0.244-0.121,0.488-0.243
				c1.342-1.344,3.028-1.709,4.494-2.785c0.611-0.489,1.1-1.099,1.344-1.71c-0.244,2.2-2.442,4.252-4.496,4.86
				c-1.097,0.246-2.197,0.369-3.149,0.734c1.71-1.466,1.588-3.762,2.783-5.595c0.366-0.489,0.734-0.977,1.101-1.466
				C89.136,45.325,89.503,47.134,88.649,48.478z"/>
			<path fill="#267CB3" d="M66.76,46.646c0.612,1.466,0.855,3.15,2.322,4.374c-1.588-0.49-3.396-0.368-4.739-1.344
				c-1.467-0.858-2.785-2.445-3.028-4.13c0.976,2.32,3.517,2.54,5.227,3.884c0.366,0.246,0.61,0.489,0.977,0.732l0,0
				c-0.366-0.366-0.854-0.732-1.1-1.222c-0.977-1.343-0.609-3.395-1.466-4.861C65.784,44.958,66.396,45.814,66.76,46.646z"/>
			<path fill="#267CB3" d="M84.984,51.164c-0.366,0.244-0.855,0.244-1.224,0.488c0.611,0,1.102-0.244,1.591-0.244
				c2.076-0.365,4.373,0,5.716-1.71c-0.489,1.224-1.834,2.199-3.027,2.663c-2.079,0.732-4.13-0.122-6.085-0.489l-0.487-0.123l0,0
				c0.977-0.243,1.831-0.487,2.661-1.22c1.102-1.1,2.077-2.197,3.274-3.029C86.571,48.72,86.448,50.433,84.984,51.164z"/>
			<path fill="#267CB3" d="M70.767,50.676c0.732,0.732,1.71,0.977,2.663,1.222c-0.244,0.122-0.61,0.122-0.856,0.122
				c-1.831,0.488-3.761,1.222-5.714,0.488c-1.223-0.366-2.542-1.344-3.152-2.542c1.587,1.833,4.251,1.224,6.448,1.712
				c0.246,0,0.611,0.121,0.979,0.121c-0.246-0.121-0.61-0.121-0.856-0.244c-1.71-0.61-1.953-2.442-2.906-3.64
				C68.714,48.478,69.692,49.578,70.767,50.676z"/>
			<path fill="#267CB3" d="M84.152,53.094c1.345,0.489,3.031,0.367,4.13-0.488c-0.61,0.733-1.344,1.221-2.198,1.588
				c-1.832,0.733-3.762,0-5.227-1.1c-0.612-0.366-1.102-0.854-1.833-0.854c-0.244,0-0.49,0-0.734,0.122
				c1.344,0.609,2.665,1.589,3.885,2.663c-0.244,0.242-0.488,0.488-0.733,0.611c-1.099-1.223-2.442-2.444-3.761-3.151
				c-0.244,0-0.489,0.243-0.855,0.365c-1.099,0.733-2.321,1.711-3.151,2.786l-0.731-0.611c1.22-1.223,2.441-2.076,3.883-2.785
				c-1.344-0.49-2.321,0.731-3.396,1.344c-1.221,0.854-3.028,1.222-4.494,0.732c-0.855-0.365-1.589-0.732-2.199-1.466
				c1.222,0.855,2.906,0.855,4.25,0.367c1.833-0.732,3.641-1.833,5.839-1.345c0.366,0,0.733,0.367,0.977,0
				c1.589-0.366,3.397-0.123,4.862,0.612L84.152,53.094z"/>
		</g>
	</g>
	<g>
		<polygon fill="#FFFFFF" points="4.053,35.604 9.745,37.533 37.594,37.533 38.815,35.604 		"/>
		<path fill="#267CB3" d="M38.815,35.604H1H38.815z"/>
		<polygon fill="#267CB3" points="37.594,37.533 37.716,37.533 38.937,35.604 38.815,35.604 		"/>
		<path fill="#267CB3" d="M4.884,29.154C3.663,31.231,2.221,33.649,1,35.604h37.79l0,0h1.833l-1.587,3.029h-2.199L6.448,87h7.646
			l36.349-57.846H4.884L4.884,29.154z"/>
		<g>
			<g>
				<path fill="#267CB3" d="M40.623,35.604H38.79H1l8.379,3.029h27.482h2.198L40.623,35.604z M37.716,37.533L37.716,37.533H9.745
					l-5.716-1.955H38.79h0.123L37.716,37.533z"/>
			</g>
		</g>
	</g>
	<path fill="#267CB3" d="M77.461,0.842c-10.701,0-20.422,4.374-27.482,11.31l3.151,7.183l0,0l0,0h7.426
		c4.618-3.762,10.456-6.082,16.905-6.082c14.704,0,26.626,11.919,26.626,26.626c0,14.705-11.922,26.505-26.626,26.505
		c-7.428,0-14.218-2.907-19.322-8.259c-4.74-4.981-7.305-11.554-7.305-18.345c0-2.32,0.244-4.494,0.855-6.571l-0.367-4.006h-2.785
		v1.099h1.588l0.243,2.784c-0.487,2.2-0.854,4.374-0.854,6.694c0,7.184,2.663,13.976,7.646,19.201
		c5.35,5.594,12.533,8.745,20.301,8.745c15.438,0,27.945-12.532,27.945-27.946c0-15.413-12.507-28.019-27.945-28.019
		c-6.326,0-12.409,2.198-17.393,6.083h-2.664h-2.443h-0.732C60.068,11.762,68.325,8,77.437,8c17.612,0,31.976,14.339,31.976,31.976
		c0,17.637-14.338,31.832-31.951,31.832c-8.867,0-17.148-3.52-23.208-9.969c-4.617-4.86-7.548-10.943-8.379-17.393l-5.349,8.379
		c1.832,5.105,4.616,9.846,8.5,13.852c7.427,7.891,17.515,12.164,28.435,12.164c21.521,0,39.134-17.515,39.134-39.134
		C116.595,18.333,98.981,0.842,77.461,0.842z"/>
	<g>
		<path fill="#267CB3" d="M45.606,42.761L20.812,81.895l-5.472,3.03l0,0L14.118,87l7.646-4.25L45.85,44.349
			C45.729,43.86,45.729,43.25,45.606,42.761z"/>
	</g>
</g>
</svg>
